M48
; DRILL file {KiCad 8.0.3} date 2025-09-24T15:52:35+0530
; FORMAT={-:-/ absolute / metric / decimal}
; #@! TF.CreationDate,2025-09-24T15:52:35+05:30
; #@! TF.GenerationSoftware,Kicad,Pcbnew,8.0.3
; #@! TF.FileFunction,Plated,1,2,PTH
FMAT,2
METRIC
; #@! TA.AperFunction,Plated,PTH,ComponentDrill
T1C0.200
; #@! TA.AperFunction,Plated,PTH,ViaDrill
T2C0.300
; #@! TA.AperFunction,Plated,PTH,ViaDrill
T3C0.500
; #@! TA.AperFunction,Plated,PTH,ComponentDrill
T4C0.991
; #@! TA.AperFunction,Plated,PTH,ComponentDrill
T5C1.000
; #@! TA.AperFunction,Plated,PTH,ComponentDrill
T6C1.520
%
G90
G05
T1
X58.35Y-45.14
X58.35Y-46.54
X59.05Y-44.44
X59.05Y-45.84
X59.05Y-47.24
X59.75Y-45.14
X59.75Y-46.54
X60.45Y-44.44
X60.45Y-45.84
X60.45Y-47.24
X61.15Y-45.14
X61.15Y-46.54
T2
X41.5Y-35.5
X49.34Y-31.26
X50.5Y-60.5
T3
X44.07Y-55.83
X50.04Y-51.88
X50.56Y-39.61
X50.81Y-53.309
X71.85Y-47.09
X71.87Y-38.88
X71.94Y-48.38
X71.975Y-49.593
X72.018Y-52.878
X72.03Y-42.81
X72.04Y-41.69
X72.91Y-44.89
X73.06Y-55.345
X84.88Y-51.215
X85.63Y-50.2
X86.95Y-47.63
X87.687Y-44.223
X88.02Y-49.675
T4
X35.0Y-32.0
X35.0Y-38.5
X39.5Y-32.0
X39.5Y-38.5
T5
X46.88Y-32.33
X46.88Y-34.87
X46.88Y-37.41
X46.88Y-39.95
X46.88Y-42.49
X75.345Y-56.775
X77.885Y-56.775
T6
X30.5Y-43.42
X30.5Y-48.5
X75.42Y-33.5
X80.5Y-33.5
M30
