%TF.GenerationSoftware,KiCad,Pcbnew,8.0.3*%
%TF.CreationDate,2025-09-24T15:52:32+05:30*%
%TF.ProjectId,Task_1,5461736b-5f31-42e6-9b69-6361645f7063,rev?*%
%TF.SameCoordinates,Original*%
%TF.FileFunction,Paste,Top*%
%TF.FilePolarity,Positive*%
%FSLAX46Y46*%
G04 Gerber Fmt 4.6, Leading zero omitted, Abs format (unit mm)*
G04 Created by KiCad (PCBNEW 8.0.3) date 2025-09-24 15:52:32*
%MOMM*%
%LPD*%
G01*
G04 APERTURE LIST*
G04 Aperture macros list*
%AMRoundRect*
0 Rectangle with rounded corners*
0 $1 Rounding radius*
0 $2 $3 $4 $5 $6 $7 $8 $9 X,Y pos of 4 corners*
0 Add a 4 corners polygon primitive as box body*
4,1,4,$2,$3,$4,$5,$6,$7,$8,$9,$2,$3,0*
0 Add four circle primitives for the rounded corners*
1,1,$1+$1,$2,$3*
1,1,$1+$1,$4,$5*
1,1,$1+$1,$6,$7*
1,1,$1+$1,$8,$9*
0 Add four rect primitives between the rounded corners*
20,1,$1+$1,$2,$3,$4,$5,0*
20,1,$1+$1,$4,$5,$6,$7,0*
20,1,$1+$1,$6,$7,$8,$9,0*
20,1,$1+$1,$8,$9,$2,$3,0*%
G04 Aperture macros list end*
%ADD10RoundRect,0.250000X-0.262500X-0.450000X0.262500X-0.450000X0.262500X0.450000X-0.262500X0.450000X0*%
%ADD11R,1.500000X0.900000*%
%ADD12R,0.900000X1.500000*%
%ADD13R,0.900000X0.900000*%
%ADD14RoundRect,0.250000X0.325000X0.450000X-0.325000X0.450000X-0.325000X-0.450000X0.325000X-0.450000X0*%
%ADD15RoundRect,0.250000X0.250000X0.475000X-0.250000X0.475000X-0.250000X-0.475000X0.250000X-0.475000X0*%
%ADD16RoundRect,0.250000X0.262500X0.450000X-0.262500X0.450000X-0.262500X-0.450000X0.262500X-0.450000X0*%
%ADD17R,1.100000X2.250000*%
%ADD18R,1.050000X1.100000*%
%ADD19RoundRect,0.250000X-0.350000X0.850000X-0.350000X-0.850000X0.350000X-0.850000X0.350000X0.850000X0*%
%ADD20RoundRect,0.250000X-1.125000X1.275000X-1.125000X-1.275000X1.125000X-1.275000X1.125000X1.275000X0*%
%ADD21RoundRect,0.317500X1.157500X0.317500X-1.157500X0.317500X-1.157500X-0.317500X1.157500X-0.317500X0*%
%ADD22RoundRect,0.250000X0.450000X-0.262500X0.450000X0.262500X-0.450000X0.262500X-0.450000X-0.262500X0*%
%ADD23RoundRect,0.250000X-0.475000X0.250000X-0.475000X-0.250000X0.475000X-0.250000X0.475000X0.250000X0*%
%ADD24RoundRect,0.250000X0.475000X-0.250000X0.475000X0.250000X-0.475000X0.250000X-0.475000X-0.250000X0*%
%ADD25RoundRect,0.250000X0.450000X-0.350000X0.450000X0.350000X-0.450000X0.350000X-0.450000X-0.350000X0*%
G04 APERTURE END LIST*
D10*
%TO.C,R4*%
X30000000Y-37912500D03*
X31825000Y-37912500D03*
%TD*%
D11*
%TO.C,U4*%
X52500000Y-38500000D03*
X52500000Y-39770000D03*
X52500000Y-41040000D03*
X52500000Y-42310000D03*
X52500000Y-43580000D03*
X52500000Y-44850000D03*
X52500000Y-46120000D03*
X52500000Y-47390000D03*
X52500000Y-48660000D03*
X52500000Y-49930000D03*
X52500000Y-51200000D03*
X52500000Y-52470000D03*
X52500000Y-53740000D03*
X52500000Y-55010000D03*
D12*
X55535000Y-56260000D03*
X56805000Y-56260000D03*
X58075000Y-56260000D03*
X59345000Y-56260000D03*
X60615000Y-56260000D03*
X61885000Y-56260000D03*
X63155000Y-56260000D03*
X64425000Y-56260000D03*
X65695000Y-56260000D03*
X66965000Y-56260000D03*
D11*
X70000000Y-55010000D03*
X70000000Y-53740000D03*
X70000000Y-52470000D03*
X70000000Y-51200000D03*
X70000000Y-49930000D03*
X70000000Y-48660000D03*
X70000000Y-47390000D03*
X70000000Y-46120000D03*
X70000000Y-44850000D03*
X70000000Y-43580000D03*
X70000000Y-42310000D03*
X70000000Y-41040000D03*
X70000000Y-39770000D03*
X70000000Y-38500000D03*
D13*
X58350000Y-44440000D03*
X58350000Y-45840000D03*
X58350000Y-47240000D03*
X59750000Y-44440000D03*
X59750000Y-45840000D03*
X59750000Y-47240000D03*
X61150000Y-44440000D03*
X61150000Y-45840000D03*
X61150000Y-47240000D03*
%TD*%
D14*
%TO.C,D1*%
X39525000Y-43000000D03*
X37475000Y-43000000D03*
%TD*%
D15*
%TO.C,C7*%
X47510000Y-50590000D03*
X45610000Y-50590000D03*
%TD*%
D16*
%TO.C,R3*%
X47202500Y-54950000D03*
X45377500Y-54950000D03*
%TD*%
D17*
%TO.C,J5*%
X86945345Y-33905496D03*
X89895345Y-33905496D03*
D18*
X88420345Y-35455496D03*
%TD*%
D15*
%TO.C,C6*%
X47510000Y-52810000D03*
X45610000Y-52810000D03*
%TD*%
D19*
%TO.C,U2*%
X40997500Y-51450000D03*
X38717500Y-51450000D03*
D20*
X40242500Y-56075000D03*
X37192500Y-56075000D03*
X40242500Y-59425000D03*
X37192500Y-59425000D03*
D19*
X36437500Y-51450000D03*
%TD*%
D15*
%TO.C,C1*%
X43950000Y-32000000D03*
X42050000Y-32000000D03*
%TD*%
%TO.C,C5*%
X47480000Y-46300000D03*
X45580000Y-46300000D03*
%TD*%
D21*
%TO.C,U3*%
X90200345Y-53125496D03*
X90200345Y-51125496D03*
X90200345Y-49125496D03*
X90200345Y-47125496D03*
X90200345Y-45125496D03*
X90200345Y-43125496D03*
X90200345Y-41125496D03*
X90200345Y-39125496D03*
X75150345Y-39125496D03*
X75150345Y-41125496D03*
X75150345Y-43125496D03*
X75150345Y-45125496D03*
X75150345Y-47125496D03*
X75150345Y-49125496D03*
X75150345Y-51125496D03*
X75150345Y-53125496D03*
%TD*%
D22*
%TO.C,R1*%
X42640000Y-39182500D03*
X42640000Y-37357500D03*
%TD*%
D23*
%TO.C,C8*%
X43300000Y-52790000D03*
X43300000Y-54690000D03*
%TD*%
D24*
%TO.C,C3*%
X38155000Y-48610000D03*
X38155000Y-46710000D03*
%TD*%
D25*
%TO.C,R2*%
X40500000Y-48000000D03*
X40500000Y-46000000D03*
%TD*%
D15*
%TO.C,C4*%
X47490000Y-48440000D03*
X45590000Y-48440000D03*
%TD*%
D24*
%TO.C,C2*%
X35955000Y-48500000D03*
X35955000Y-46600000D03*
%TD*%
M02*
