%TF.GenerationSoftware,KiCad,Pcbnew,8.0.3*%
%TF.CreationDate,2025-09-24T15:52:32+05:30*%
%TF.ProjectId,Task_1,5461736b-5f31-42e6-9b69-6361645f7063,rev?*%
%TF.SameCoordinates,Original*%
%TF.FileFunction,Legend,Top*%
%TF.FilePolarity,Positive*%
%FSLAX46Y46*%
G04 Gerber Fmt 4.6, Leading zero omitted, Abs format (unit mm)*
G04 Created by KiCad (PCBNEW 8.0.3) date 2025-09-24 15:52:32*
%MOMM*%
%LPD*%
G01*
G04 APERTURE LIST*
%ADD10C,0.100000*%
%ADD11C,0.300000*%
%ADD12C,0.150000*%
%ADD13C,0.125000*%
%ADD14C,0.120000*%
%ADD15C,0.127000*%
%ADD16C,0.152400*%
G04 APERTURE END LIST*
D10*
X57708646Y-60290752D02*
X58065789Y-60290752D01*
X57637217Y-60433609D02*
X57887217Y-59933609D01*
X57887217Y-59933609D02*
X58137217Y-60433609D01*
X58637217Y-60171704D02*
X58744360Y-60195514D01*
X58744360Y-60195514D02*
X58780074Y-60219323D01*
X58780074Y-60219323D02*
X58815788Y-60266942D01*
X58815788Y-60266942D02*
X58815788Y-60338371D01*
X58815788Y-60338371D02*
X58780074Y-60385990D01*
X58780074Y-60385990D02*
X58744360Y-60409800D01*
X58744360Y-60409800D02*
X58672931Y-60433609D01*
X58672931Y-60433609D02*
X58387217Y-60433609D01*
X58387217Y-60433609D02*
X58387217Y-59933609D01*
X58387217Y-59933609D02*
X58637217Y-59933609D01*
X58637217Y-59933609D02*
X58708646Y-59957419D01*
X58708646Y-59957419D02*
X58744360Y-59981228D01*
X58744360Y-59981228D02*
X58780074Y-60028847D01*
X58780074Y-60028847D02*
X58780074Y-60076466D01*
X58780074Y-60076466D02*
X58744360Y-60124085D01*
X58744360Y-60124085D02*
X58708646Y-60147895D01*
X58708646Y-60147895D02*
X58637217Y-60171704D01*
X58637217Y-60171704D02*
X58387217Y-60171704D01*
X59137217Y-60433609D02*
X59137217Y-59933609D01*
X59137217Y-60171704D02*
X59565788Y-60171704D01*
X59565788Y-60433609D02*
X59565788Y-59933609D01*
X59887217Y-60290752D02*
X60244360Y-60290752D01*
X59815788Y-60433609D02*
X60065788Y-59933609D01*
X60065788Y-59933609D02*
X60315788Y-60433609D01*
X60708645Y-60195514D02*
X60708645Y-60433609D01*
X60458645Y-59933609D02*
X60708645Y-60195514D01*
X60708645Y-60195514D02*
X60958645Y-59933609D01*
X61030074Y-60481228D02*
X61601502Y-60481228D01*
X61780074Y-60171704D02*
X62030074Y-60171704D01*
X62137217Y-60433609D02*
X61780074Y-60433609D01*
X61780074Y-60433609D02*
X61780074Y-59933609D01*
X61780074Y-59933609D02*
X62137217Y-59933609D01*
X62458645Y-60433609D02*
X62458645Y-59933609D01*
X62458645Y-59933609D02*
X62744359Y-59933609D01*
X62744359Y-59933609D02*
X62815788Y-59957419D01*
X62815788Y-59957419D02*
X62851502Y-59981228D01*
X62851502Y-59981228D02*
X62887216Y-60028847D01*
X62887216Y-60028847D02*
X62887216Y-60100276D01*
X62887216Y-60100276D02*
X62851502Y-60147895D01*
X62851502Y-60147895D02*
X62815788Y-60171704D01*
X62815788Y-60171704D02*
X62744359Y-60195514D01*
X62744359Y-60195514D02*
X62458645Y-60195514D01*
X63101502Y-59933609D02*
X63351502Y-60433609D01*
X63351502Y-60433609D02*
X63601502Y-59933609D01*
X63994359Y-59933609D02*
X64065788Y-59933609D01*
X64065788Y-59933609D02*
X64137216Y-59957419D01*
X64137216Y-59957419D02*
X64172931Y-59981228D01*
X64172931Y-59981228D02*
X64208645Y-60028847D01*
X64208645Y-60028847D02*
X64244359Y-60124085D01*
X64244359Y-60124085D02*
X64244359Y-60243133D01*
X64244359Y-60243133D02*
X64208645Y-60338371D01*
X64208645Y-60338371D02*
X64172931Y-60385990D01*
X64172931Y-60385990D02*
X64137216Y-60409800D01*
X64137216Y-60409800D02*
X64065788Y-60433609D01*
X64065788Y-60433609D02*
X63994359Y-60433609D01*
X63994359Y-60433609D02*
X63922931Y-60409800D01*
X63922931Y-60409800D02*
X63887216Y-60385990D01*
X63887216Y-60385990D02*
X63851502Y-60338371D01*
X63851502Y-60338371D02*
X63815788Y-60243133D01*
X63815788Y-60243133D02*
X63815788Y-60124085D01*
X63815788Y-60124085D02*
X63851502Y-60028847D01*
X63851502Y-60028847D02*
X63887216Y-59981228D01*
X63887216Y-59981228D02*
X63922931Y-59957419D01*
X63922931Y-59957419D02*
X63994359Y-59933609D01*
X64708645Y-59933609D02*
X64780074Y-59933609D01*
X64780074Y-59933609D02*
X64851502Y-59957419D01*
X64851502Y-59957419D02*
X64887217Y-59981228D01*
X64887217Y-59981228D02*
X64922931Y-60028847D01*
X64922931Y-60028847D02*
X64958645Y-60124085D01*
X64958645Y-60124085D02*
X64958645Y-60243133D01*
X64958645Y-60243133D02*
X64922931Y-60338371D01*
X64922931Y-60338371D02*
X64887217Y-60385990D01*
X64887217Y-60385990D02*
X64851502Y-60409800D01*
X64851502Y-60409800D02*
X64780074Y-60433609D01*
X64780074Y-60433609D02*
X64708645Y-60433609D01*
X64708645Y-60433609D02*
X64637217Y-60409800D01*
X64637217Y-60409800D02*
X64601502Y-60385990D01*
X64601502Y-60385990D02*
X64565788Y-60338371D01*
X64565788Y-60338371D02*
X64530074Y-60243133D01*
X64530074Y-60243133D02*
X64530074Y-60124085D01*
X64530074Y-60124085D02*
X64565788Y-60028847D01*
X64565788Y-60028847D02*
X64601502Y-59981228D01*
X64601502Y-59981228D02*
X64637217Y-59957419D01*
X64637217Y-59957419D02*
X64708645Y-59933609D01*
X65422931Y-59933609D02*
X65494360Y-59933609D01*
X65494360Y-59933609D02*
X65565788Y-59957419D01*
X65565788Y-59957419D02*
X65601503Y-59981228D01*
X65601503Y-59981228D02*
X65637217Y-60028847D01*
X65637217Y-60028847D02*
X65672931Y-60124085D01*
X65672931Y-60124085D02*
X65672931Y-60243133D01*
X65672931Y-60243133D02*
X65637217Y-60338371D01*
X65637217Y-60338371D02*
X65601503Y-60385990D01*
X65601503Y-60385990D02*
X65565788Y-60409800D01*
X65565788Y-60409800D02*
X65494360Y-60433609D01*
X65494360Y-60433609D02*
X65422931Y-60433609D01*
X65422931Y-60433609D02*
X65351503Y-60409800D01*
X65351503Y-60409800D02*
X65315788Y-60385990D01*
X65315788Y-60385990D02*
X65280074Y-60338371D01*
X65280074Y-60338371D02*
X65244360Y-60243133D01*
X65244360Y-60243133D02*
X65244360Y-60124085D01*
X65244360Y-60124085D02*
X65280074Y-60028847D01*
X65280074Y-60028847D02*
X65315788Y-59981228D01*
X65315788Y-59981228D02*
X65351503Y-59957419D01*
X65351503Y-59957419D02*
X65422931Y-59933609D01*
X66387217Y-60433609D02*
X65958646Y-60433609D01*
X66172931Y-60433609D02*
X66172931Y-59933609D01*
X66172931Y-59933609D02*
X66101503Y-60005038D01*
X66101503Y-60005038D02*
X66030074Y-60052657D01*
X66030074Y-60052657D02*
X65958646Y-60076466D01*
D11*
X29229400Y-40445489D02*
X29229400Y-39302632D01*
X28554510Y-52229400D02*
X29697368Y-52229400D01*
X29125939Y-52800828D02*
X29125939Y-51657971D01*
D12*
X29333333Y-36454819D02*
X29000000Y-35978628D01*
X28761905Y-36454819D02*
X28761905Y-35454819D01*
X28761905Y-35454819D02*
X29142857Y-35454819D01*
X29142857Y-35454819D02*
X29238095Y-35502438D01*
X29238095Y-35502438D02*
X29285714Y-35550057D01*
X29285714Y-35550057D02*
X29333333Y-35645295D01*
X29333333Y-35645295D02*
X29333333Y-35788152D01*
X29333333Y-35788152D02*
X29285714Y-35883390D01*
X29285714Y-35883390D02*
X29238095Y-35931009D01*
X29238095Y-35931009D02*
X29142857Y-35978628D01*
X29142857Y-35978628D02*
X28761905Y-35978628D01*
X30190476Y-35788152D02*
X30190476Y-36454819D01*
X29952381Y-35407200D02*
X29714286Y-36121485D01*
X29714286Y-36121485D02*
X30333333Y-36121485D01*
X60488095Y-35864819D02*
X60488095Y-36674342D01*
X60488095Y-36674342D02*
X60535714Y-36769580D01*
X60535714Y-36769580D02*
X60583333Y-36817200D01*
X60583333Y-36817200D02*
X60678571Y-36864819D01*
X60678571Y-36864819D02*
X60869047Y-36864819D01*
X60869047Y-36864819D02*
X60964285Y-36817200D01*
X60964285Y-36817200D02*
X61011904Y-36769580D01*
X61011904Y-36769580D02*
X61059523Y-36674342D01*
X61059523Y-36674342D02*
X61059523Y-35864819D01*
X61964285Y-36198152D02*
X61964285Y-36864819D01*
X61726190Y-35817200D02*
X61488095Y-36531485D01*
X61488095Y-36531485D02*
X62107142Y-36531485D01*
X38776905Y-41794819D02*
X38776905Y-40794819D01*
X38776905Y-40794819D02*
X39015000Y-40794819D01*
X39015000Y-40794819D02*
X39157857Y-40842438D01*
X39157857Y-40842438D02*
X39253095Y-40937676D01*
X39253095Y-40937676D02*
X39300714Y-41032914D01*
X39300714Y-41032914D02*
X39348333Y-41223390D01*
X39348333Y-41223390D02*
X39348333Y-41366247D01*
X39348333Y-41366247D02*
X39300714Y-41556723D01*
X39300714Y-41556723D02*
X39253095Y-41651961D01*
X39253095Y-41651961D02*
X39157857Y-41747200D01*
X39157857Y-41747200D02*
X39015000Y-41794819D01*
X39015000Y-41794819D02*
X38776905Y-41794819D01*
X40300714Y-41794819D02*
X39729286Y-41794819D01*
X40015000Y-41794819D02*
X40015000Y-40794819D01*
X40015000Y-40794819D02*
X39919762Y-40937676D01*
X39919762Y-40937676D02*
X39824524Y-41032914D01*
X39824524Y-41032914D02*
X39729286Y-41080533D01*
X49273333Y-50909580D02*
X49225714Y-50957200D01*
X49225714Y-50957200D02*
X49082857Y-51004819D01*
X49082857Y-51004819D02*
X48987619Y-51004819D01*
X48987619Y-51004819D02*
X48844762Y-50957200D01*
X48844762Y-50957200D02*
X48749524Y-50861961D01*
X48749524Y-50861961D02*
X48701905Y-50766723D01*
X48701905Y-50766723D02*
X48654286Y-50576247D01*
X48654286Y-50576247D02*
X48654286Y-50433390D01*
X48654286Y-50433390D02*
X48701905Y-50242914D01*
X48701905Y-50242914D02*
X48749524Y-50147676D01*
X48749524Y-50147676D02*
X48844762Y-50052438D01*
X48844762Y-50052438D02*
X48987619Y-50004819D01*
X48987619Y-50004819D02*
X49082857Y-50004819D01*
X49082857Y-50004819D02*
X49225714Y-50052438D01*
X49225714Y-50052438D02*
X49273333Y-50100057D01*
X49606667Y-50004819D02*
X50273333Y-50004819D01*
X50273333Y-50004819D02*
X49844762Y-51004819D01*
X45833333Y-57454819D02*
X45500000Y-56978628D01*
X45261905Y-57454819D02*
X45261905Y-56454819D01*
X45261905Y-56454819D02*
X45642857Y-56454819D01*
X45642857Y-56454819D02*
X45738095Y-56502438D01*
X45738095Y-56502438D02*
X45785714Y-56550057D01*
X45785714Y-56550057D02*
X45833333Y-56645295D01*
X45833333Y-56645295D02*
X45833333Y-56788152D01*
X45833333Y-56788152D02*
X45785714Y-56883390D01*
X45785714Y-56883390D02*
X45738095Y-56931009D01*
X45738095Y-56931009D02*
X45642857Y-56978628D01*
X45642857Y-56978628D02*
X45261905Y-56978628D01*
X46166667Y-56454819D02*
X46785714Y-56454819D01*
X46785714Y-56454819D02*
X46452381Y-56835771D01*
X46452381Y-56835771D02*
X46595238Y-56835771D01*
X46595238Y-56835771D02*
X46690476Y-56883390D01*
X46690476Y-56883390D02*
X46738095Y-56931009D01*
X46738095Y-56931009D02*
X46785714Y-57026247D01*
X46785714Y-57026247D02*
X46785714Y-57264342D01*
X46785714Y-57264342D02*
X46738095Y-57359580D01*
X46738095Y-57359580D02*
X46690476Y-57407200D01*
X46690476Y-57407200D02*
X46595238Y-57454819D01*
X46595238Y-57454819D02*
X46309524Y-57454819D01*
X46309524Y-57454819D02*
X46214286Y-57407200D01*
X46214286Y-57407200D02*
X46166667Y-57359580D01*
X88166291Y-30954214D02*
X88166291Y-31669304D01*
X88166291Y-31669304D02*
X88118618Y-31812322D01*
X88118618Y-31812322D02*
X88023273Y-31907668D01*
X88023273Y-31907668D02*
X87880255Y-31955340D01*
X87880255Y-31955340D02*
X87784910Y-31955340D01*
X89119745Y-30954214D02*
X88643018Y-30954214D01*
X88643018Y-30954214D02*
X88595345Y-31430941D01*
X88595345Y-31430941D02*
X88643018Y-31383268D01*
X88643018Y-31383268D02*
X88738363Y-31335596D01*
X88738363Y-31335596D02*
X88976727Y-31335596D01*
X88976727Y-31335596D02*
X89072072Y-31383268D01*
X89072072Y-31383268D02*
X89119745Y-31430941D01*
X89119745Y-31430941D02*
X89167417Y-31526286D01*
X89167417Y-31526286D02*
X89167417Y-31764650D01*
X89167417Y-31764650D02*
X89119745Y-31859995D01*
X89119745Y-31859995D02*
X89072072Y-31907668D01*
X89072072Y-31907668D02*
X88976727Y-31955340D01*
X88976727Y-31955340D02*
X88738363Y-31955340D01*
X88738363Y-31955340D02*
X88643018Y-31907668D01*
X88643018Y-31907668D02*
X88595345Y-31859995D01*
X49358333Y-53859580D02*
X49317857Y-53907200D01*
X49317857Y-53907200D02*
X49196428Y-53954819D01*
X49196428Y-53954819D02*
X49115476Y-53954819D01*
X49115476Y-53954819D02*
X48994047Y-53907200D01*
X48994047Y-53907200D02*
X48913095Y-53811961D01*
X48913095Y-53811961D02*
X48872618Y-53716723D01*
X48872618Y-53716723D02*
X48832142Y-53526247D01*
X48832142Y-53526247D02*
X48832142Y-53383390D01*
X48832142Y-53383390D02*
X48872618Y-53192914D01*
X48872618Y-53192914D02*
X48913095Y-53097676D01*
X48913095Y-53097676D02*
X48994047Y-53002438D01*
X48994047Y-53002438D02*
X49115476Y-52954819D01*
X49115476Y-52954819D02*
X49196428Y-52954819D01*
X49196428Y-52954819D02*
X49317857Y-53002438D01*
X49317857Y-53002438D02*
X49358333Y-53050057D01*
X50086904Y-52954819D02*
X49924999Y-52954819D01*
X49924999Y-52954819D02*
X49844047Y-53002438D01*
X49844047Y-53002438D02*
X49803571Y-53050057D01*
X49803571Y-53050057D02*
X49722618Y-53192914D01*
X49722618Y-53192914D02*
X49682142Y-53383390D01*
X49682142Y-53383390D02*
X49682142Y-53764342D01*
X49682142Y-53764342D02*
X49722618Y-53859580D01*
X49722618Y-53859580D02*
X49763095Y-53907200D01*
X49763095Y-53907200D02*
X49844047Y-53954819D01*
X49844047Y-53954819D02*
X50005952Y-53954819D01*
X50005952Y-53954819D02*
X50086904Y-53907200D01*
X50086904Y-53907200D02*
X50127380Y-53859580D01*
X50127380Y-53859580D02*
X50167857Y-53764342D01*
X50167857Y-53764342D02*
X50167857Y-53526247D01*
X50167857Y-53526247D02*
X50127380Y-53431009D01*
X50127380Y-53431009D02*
X50086904Y-53383390D01*
X50086904Y-53383390D02*
X50005952Y-53335771D01*
X50005952Y-53335771D02*
X49844047Y-53335771D01*
X49844047Y-53335771D02*
X49763095Y-53383390D01*
X49763095Y-53383390D02*
X49722618Y-53431009D01*
X49722618Y-53431009D02*
X49682142Y-53526247D01*
X33415595Y-55064819D02*
X33415595Y-55874342D01*
X33415595Y-55874342D02*
X33463214Y-55969580D01*
X33463214Y-55969580D02*
X33510833Y-56017200D01*
X33510833Y-56017200D02*
X33606071Y-56064819D01*
X33606071Y-56064819D02*
X33796547Y-56064819D01*
X33796547Y-56064819D02*
X33891785Y-56017200D01*
X33891785Y-56017200D02*
X33939404Y-55969580D01*
X33939404Y-55969580D02*
X33987023Y-55874342D01*
X33987023Y-55874342D02*
X33987023Y-55064819D01*
X34415595Y-55160057D02*
X34463214Y-55112438D01*
X34463214Y-55112438D02*
X34558452Y-55064819D01*
X34558452Y-55064819D02*
X34796547Y-55064819D01*
X34796547Y-55064819D02*
X34891785Y-55112438D01*
X34891785Y-55112438D02*
X34939404Y-55160057D01*
X34939404Y-55160057D02*
X34987023Y-55255295D01*
X34987023Y-55255295D02*
X34987023Y-55350533D01*
X34987023Y-55350533D02*
X34939404Y-55493390D01*
X34939404Y-55493390D02*
X34367976Y-56064819D01*
X34367976Y-56064819D02*
X34987023Y-56064819D01*
X43103333Y-34269580D02*
X43055714Y-34317200D01*
X43055714Y-34317200D02*
X42912857Y-34364819D01*
X42912857Y-34364819D02*
X42817619Y-34364819D01*
X42817619Y-34364819D02*
X42674762Y-34317200D01*
X42674762Y-34317200D02*
X42579524Y-34221961D01*
X42579524Y-34221961D02*
X42531905Y-34126723D01*
X42531905Y-34126723D02*
X42484286Y-33936247D01*
X42484286Y-33936247D02*
X42484286Y-33793390D01*
X42484286Y-33793390D02*
X42531905Y-33602914D01*
X42531905Y-33602914D02*
X42579524Y-33507676D01*
X42579524Y-33507676D02*
X42674762Y-33412438D01*
X42674762Y-33412438D02*
X42817619Y-33364819D01*
X42817619Y-33364819D02*
X42912857Y-33364819D01*
X42912857Y-33364819D02*
X43055714Y-33412438D01*
X43055714Y-33412438D02*
X43103333Y-33460057D01*
X44055714Y-34364819D02*
X43484286Y-34364819D01*
X43770000Y-34364819D02*
X43770000Y-33364819D01*
X43770000Y-33364819D02*
X43674762Y-33507676D01*
X43674762Y-33507676D02*
X43579524Y-33602914D01*
X43579524Y-33602914D02*
X43484286Y-33650533D01*
X49293333Y-46699580D02*
X49245714Y-46747200D01*
X49245714Y-46747200D02*
X49102857Y-46794819D01*
X49102857Y-46794819D02*
X49007619Y-46794819D01*
X49007619Y-46794819D02*
X48864762Y-46747200D01*
X48864762Y-46747200D02*
X48769524Y-46651961D01*
X48769524Y-46651961D02*
X48721905Y-46556723D01*
X48721905Y-46556723D02*
X48674286Y-46366247D01*
X48674286Y-46366247D02*
X48674286Y-46223390D01*
X48674286Y-46223390D02*
X48721905Y-46032914D01*
X48721905Y-46032914D02*
X48769524Y-45937676D01*
X48769524Y-45937676D02*
X48864762Y-45842438D01*
X48864762Y-45842438D02*
X49007619Y-45794819D01*
X49007619Y-45794819D02*
X49102857Y-45794819D01*
X49102857Y-45794819D02*
X49245714Y-45842438D01*
X49245714Y-45842438D02*
X49293333Y-45890057D01*
X50198095Y-45794819D02*
X49721905Y-45794819D01*
X49721905Y-45794819D02*
X49674286Y-46271009D01*
X49674286Y-46271009D02*
X49721905Y-46223390D01*
X49721905Y-46223390D02*
X49817143Y-46175771D01*
X49817143Y-46175771D02*
X50055238Y-46175771D01*
X50055238Y-46175771D02*
X50150476Y-46223390D01*
X50150476Y-46223390D02*
X50198095Y-46271009D01*
X50198095Y-46271009D02*
X50245714Y-46366247D01*
X50245714Y-46366247D02*
X50245714Y-46604342D01*
X50245714Y-46604342D02*
X50198095Y-46699580D01*
X50198095Y-46699580D02*
X50150476Y-46747200D01*
X50150476Y-46747200D02*
X50055238Y-46794819D01*
X50055238Y-46794819D02*
X49817143Y-46794819D01*
X49817143Y-46794819D02*
X49721905Y-46747200D01*
X49721905Y-46747200D02*
X49674286Y-46699580D01*
X81913440Y-54780315D02*
X81913440Y-55589838D01*
X81913440Y-55589838D02*
X81961059Y-55685076D01*
X81961059Y-55685076D02*
X82008678Y-55732696D01*
X82008678Y-55732696D02*
X82103916Y-55780315D01*
X82103916Y-55780315D02*
X82294392Y-55780315D01*
X82294392Y-55780315D02*
X82389630Y-55732696D01*
X82389630Y-55732696D02*
X82437249Y-55685076D01*
X82437249Y-55685076D02*
X82484868Y-55589838D01*
X82484868Y-55589838D02*
X82484868Y-54780315D01*
X82865821Y-54780315D02*
X83484868Y-54780315D01*
X83484868Y-54780315D02*
X83151535Y-55161267D01*
X83151535Y-55161267D02*
X83294392Y-55161267D01*
X83294392Y-55161267D02*
X83389630Y-55208886D01*
X83389630Y-55208886D02*
X83437249Y-55256505D01*
X83437249Y-55256505D02*
X83484868Y-55351743D01*
X83484868Y-55351743D02*
X83484868Y-55589838D01*
X83484868Y-55589838D02*
X83437249Y-55685076D01*
X83437249Y-55685076D02*
X83389630Y-55732696D01*
X83389630Y-55732696D02*
X83294392Y-55780315D01*
X83294392Y-55780315D02*
X83008678Y-55780315D01*
X83008678Y-55780315D02*
X82913440Y-55732696D01*
X82913440Y-55732696D02*
X82865821Y-55685076D01*
X43833333Y-36304819D02*
X43500000Y-35828628D01*
X43261905Y-36304819D02*
X43261905Y-35304819D01*
X43261905Y-35304819D02*
X43642857Y-35304819D01*
X43642857Y-35304819D02*
X43738095Y-35352438D01*
X43738095Y-35352438D02*
X43785714Y-35400057D01*
X43785714Y-35400057D02*
X43833333Y-35495295D01*
X43833333Y-35495295D02*
X43833333Y-35638152D01*
X43833333Y-35638152D02*
X43785714Y-35733390D01*
X43785714Y-35733390D02*
X43738095Y-35781009D01*
X43738095Y-35781009D02*
X43642857Y-35828628D01*
X43642857Y-35828628D02*
X43261905Y-35828628D01*
X44785714Y-36304819D02*
X44214286Y-36304819D01*
X44500000Y-36304819D02*
X44500000Y-35304819D01*
X44500000Y-35304819D02*
X44404762Y-35447676D01*
X44404762Y-35447676D02*
X44309524Y-35542914D01*
X44309524Y-35542914D02*
X44214286Y-35590533D01*
D13*
X43456667Y-51747404D02*
X43418571Y-51785500D01*
X43418571Y-51785500D02*
X43304286Y-51823595D01*
X43304286Y-51823595D02*
X43228095Y-51823595D01*
X43228095Y-51823595D02*
X43113809Y-51785500D01*
X43113809Y-51785500D02*
X43037619Y-51709309D01*
X43037619Y-51709309D02*
X42999524Y-51633119D01*
X42999524Y-51633119D02*
X42961428Y-51480738D01*
X42961428Y-51480738D02*
X42961428Y-51366452D01*
X42961428Y-51366452D02*
X42999524Y-51214071D01*
X42999524Y-51214071D02*
X43037619Y-51137880D01*
X43037619Y-51137880D02*
X43113809Y-51061690D01*
X43113809Y-51061690D02*
X43228095Y-51023595D01*
X43228095Y-51023595D02*
X43304286Y-51023595D01*
X43304286Y-51023595D02*
X43418571Y-51061690D01*
X43418571Y-51061690D02*
X43456667Y-51099785D01*
X43913809Y-51366452D02*
X43837619Y-51328357D01*
X43837619Y-51328357D02*
X43799524Y-51290261D01*
X43799524Y-51290261D02*
X43761428Y-51214071D01*
X43761428Y-51214071D02*
X43761428Y-51175976D01*
X43761428Y-51175976D02*
X43799524Y-51099785D01*
X43799524Y-51099785D02*
X43837619Y-51061690D01*
X43837619Y-51061690D02*
X43913809Y-51023595D01*
X43913809Y-51023595D02*
X44066190Y-51023595D01*
X44066190Y-51023595D02*
X44142381Y-51061690D01*
X44142381Y-51061690D02*
X44180476Y-51099785D01*
X44180476Y-51099785D02*
X44218571Y-51175976D01*
X44218571Y-51175976D02*
X44218571Y-51214071D01*
X44218571Y-51214071D02*
X44180476Y-51290261D01*
X44180476Y-51290261D02*
X44142381Y-51328357D01*
X44142381Y-51328357D02*
X44066190Y-51366452D01*
X44066190Y-51366452D02*
X43913809Y-51366452D01*
X43913809Y-51366452D02*
X43837619Y-51404547D01*
X43837619Y-51404547D02*
X43799524Y-51442642D01*
X43799524Y-51442642D02*
X43761428Y-51518833D01*
X43761428Y-51518833D02*
X43761428Y-51671214D01*
X43761428Y-51671214D02*
X43799524Y-51747404D01*
X43799524Y-51747404D02*
X43837619Y-51785500D01*
X43837619Y-51785500D02*
X43913809Y-51823595D01*
X43913809Y-51823595D02*
X44066190Y-51823595D01*
X44066190Y-51823595D02*
X44142381Y-51785500D01*
X44142381Y-51785500D02*
X44180476Y-51747404D01*
X44180476Y-51747404D02*
X44218571Y-51671214D01*
X44218571Y-51671214D02*
X44218571Y-51518833D01*
X44218571Y-51518833D02*
X44180476Y-51442642D01*
X44180476Y-51442642D02*
X44142381Y-51404547D01*
X44142381Y-51404547D02*
X44066190Y-51366452D01*
X37866667Y-45707404D02*
X37828571Y-45745500D01*
X37828571Y-45745500D02*
X37714286Y-45783595D01*
X37714286Y-45783595D02*
X37638095Y-45783595D01*
X37638095Y-45783595D02*
X37523809Y-45745500D01*
X37523809Y-45745500D02*
X37447619Y-45669309D01*
X37447619Y-45669309D02*
X37409524Y-45593119D01*
X37409524Y-45593119D02*
X37371428Y-45440738D01*
X37371428Y-45440738D02*
X37371428Y-45326452D01*
X37371428Y-45326452D02*
X37409524Y-45174071D01*
X37409524Y-45174071D02*
X37447619Y-45097880D01*
X37447619Y-45097880D02*
X37523809Y-45021690D01*
X37523809Y-45021690D02*
X37638095Y-44983595D01*
X37638095Y-44983595D02*
X37714286Y-44983595D01*
X37714286Y-44983595D02*
X37828571Y-45021690D01*
X37828571Y-45021690D02*
X37866667Y-45059785D01*
X38133333Y-44983595D02*
X38628571Y-44983595D01*
X38628571Y-44983595D02*
X38361905Y-45288357D01*
X38361905Y-45288357D02*
X38476190Y-45288357D01*
X38476190Y-45288357D02*
X38552381Y-45326452D01*
X38552381Y-45326452D02*
X38590476Y-45364547D01*
X38590476Y-45364547D02*
X38628571Y-45440738D01*
X38628571Y-45440738D02*
X38628571Y-45631214D01*
X38628571Y-45631214D02*
X38590476Y-45707404D01*
X38590476Y-45707404D02*
X38552381Y-45745500D01*
X38552381Y-45745500D02*
X38476190Y-45783595D01*
X38476190Y-45783595D02*
X38247619Y-45783595D01*
X38247619Y-45783595D02*
X38171428Y-45745500D01*
X38171428Y-45745500D02*
X38133333Y-45707404D01*
X41366667Y-49863595D02*
X41100000Y-49482642D01*
X40909524Y-49863595D02*
X40909524Y-49063595D01*
X40909524Y-49063595D02*
X41214286Y-49063595D01*
X41214286Y-49063595D02*
X41290476Y-49101690D01*
X41290476Y-49101690D02*
X41328571Y-49139785D01*
X41328571Y-49139785D02*
X41366667Y-49215976D01*
X41366667Y-49215976D02*
X41366667Y-49330261D01*
X41366667Y-49330261D02*
X41328571Y-49406452D01*
X41328571Y-49406452D02*
X41290476Y-49444547D01*
X41290476Y-49444547D02*
X41214286Y-49482642D01*
X41214286Y-49482642D02*
X40909524Y-49482642D01*
X41671428Y-49139785D02*
X41709524Y-49101690D01*
X41709524Y-49101690D02*
X41785714Y-49063595D01*
X41785714Y-49063595D02*
X41976190Y-49063595D01*
X41976190Y-49063595D02*
X42052381Y-49101690D01*
X42052381Y-49101690D02*
X42090476Y-49139785D01*
X42090476Y-49139785D02*
X42128571Y-49215976D01*
X42128571Y-49215976D02*
X42128571Y-49292166D01*
X42128571Y-49292166D02*
X42090476Y-49406452D01*
X42090476Y-49406452D02*
X41633333Y-49863595D01*
X41633333Y-49863595D02*
X42128571Y-49863595D01*
D12*
X49293333Y-48759580D02*
X49245714Y-48807200D01*
X49245714Y-48807200D02*
X49102857Y-48854819D01*
X49102857Y-48854819D02*
X49007619Y-48854819D01*
X49007619Y-48854819D02*
X48864762Y-48807200D01*
X48864762Y-48807200D02*
X48769524Y-48711961D01*
X48769524Y-48711961D02*
X48721905Y-48616723D01*
X48721905Y-48616723D02*
X48674286Y-48426247D01*
X48674286Y-48426247D02*
X48674286Y-48283390D01*
X48674286Y-48283390D02*
X48721905Y-48092914D01*
X48721905Y-48092914D02*
X48769524Y-47997676D01*
X48769524Y-47997676D02*
X48864762Y-47902438D01*
X48864762Y-47902438D02*
X49007619Y-47854819D01*
X49007619Y-47854819D02*
X49102857Y-47854819D01*
X49102857Y-47854819D02*
X49245714Y-47902438D01*
X49245714Y-47902438D02*
X49293333Y-47950057D01*
X50150476Y-48188152D02*
X50150476Y-48854819D01*
X49912381Y-47807200D02*
X49674286Y-48521485D01*
X49674286Y-48521485D02*
X50293333Y-48521485D01*
D13*
X35866667Y-45287404D02*
X35828571Y-45325500D01*
X35828571Y-45325500D02*
X35714286Y-45363595D01*
X35714286Y-45363595D02*
X35638095Y-45363595D01*
X35638095Y-45363595D02*
X35523809Y-45325500D01*
X35523809Y-45325500D02*
X35447619Y-45249309D01*
X35447619Y-45249309D02*
X35409524Y-45173119D01*
X35409524Y-45173119D02*
X35371428Y-45020738D01*
X35371428Y-45020738D02*
X35371428Y-44906452D01*
X35371428Y-44906452D02*
X35409524Y-44754071D01*
X35409524Y-44754071D02*
X35447619Y-44677880D01*
X35447619Y-44677880D02*
X35523809Y-44601690D01*
X35523809Y-44601690D02*
X35638095Y-44563595D01*
X35638095Y-44563595D02*
X35714286Y-44563595D01*
X35714286Y-44563595D02*
X35828571Y-44601690D01*
X35828571Y-44601690D02*
X35866667Y-44639785D01*
X36171428Y-44639785D02*
X36209524Y-44601690D01*
X36209524Y-44601690D02*
X36285714Y-44563595D01*
X36285714Y-44563595D02*
X36476190Y-44563595D01*
X36476190Y-44563595D02*
X36552381Y-44601690D01*
X36552381Y-44601690D02*
X36590476Y-44639785D01*
X36590476Y-44639785D02*
X36628571Y-44715976D01*
X36628571Y-44715976D02*
X36628571Y-44792166D01*
X36628571Y-44792166D02*
X36590476Y-44906452D01*
X36590476Y-44906452D02*
X36133333Y-45363595D01*
X36133333Y-45363595D02*
X36628571Y-45363595D01*
D12*
X35666667Y-40907200D02*
X35809524Y-40954819D01*
X35809524Y-40954819D02*
X36047619Y-40954819D01*
X36047619Y-40954819D02*
X36142857Y-40907200D01*
X36142857Y-40907200D02*
X36190476Y-40859580D01*
X36190476Y-40859580D02*
X36238095Y-40764342D01*
X36238095Y-40764342D02*
X36238095Y-40669104D01*
X36238095Y-40669104D02*
X36190476Y-40573866D01*
X36190476Y-40573866D02*
X36142857Y-40526247D01*
X36142857Y-40526247D02*
X36047619Y-40478628D01*
X36047619Y-40478628D02*
X35857143Y-40431009D01*
X35857143Y-40431009D02*
X35761905Y-40383390D01*
X35761905Y-40383390D02*
X35714286Y-40335771D01*
X35714286Y-40335771D02*
X35666667Y-40240533D01*
X35666667Y-40240533D02*
X35666667Y-40145295D01*
X35666667Y-40145295D02*
X35714286Y-40050057D01*
X35714286Y-40050057D02*
X35761905Y-40002438D01*
X35761905Y-40002438D02*
X35857143Y-39954819D01*
X35857143Y-39954819D02*
X36095238Y-39954819D01*
X36095238Y-39954819D02*
X36238095Y-40002438D01*
X36571429Y-39954819D02*
X36809524Y-40954819D01*
X36809524Y-40954819D02*
X37000000Y-40240533D01*
X37000000Y-40240533D02*
X37190476Y-40954819D01*
X37190476Y-40954819D02*
X37428572Y-39954819D01*
X38333333Y-40954819D02*
X37761905Y-40954819D01*
X38047619Y-40954819D02*
X38047619Y-39954819D01*
X38047619Y-39954819D02*
X37952381Y-40097676D01*
X37952381Y-40097676D02*
X37857143Y-40192914D01*
X37857143Y-40192914D02*
X37761905Y-40240533D01*
X32943519Y-38499998D02*
X33181614Y-38499998D01*
X33086376Y-38738093D02*
X33181614Y-38499998D01*
X33181614Y-38499998D02*
X33086376Y-38261903D01*
X33372090Y-38642855D02*
X33181614Y-38499998D01*
X33181614Y-38499998D02*
X33372090Y-38357141D01*
X32943519Y-38499998D02*
X33181614Y-38499998D01*
X33086376Y-38738093D02*
X33181614Y-38499998D01*
X33181614Y-38499998D02*
X33086376Y-38261903D01*
X33372090Y-38642855D02*
X33181614Y-38499998D01*
X33181614Y-38499998D02*
X33372090Y-38357141D01*
D14*
%TO.C,R4*%
X30685436Y-37177500D02*
X31139564Y-37177500D01*
X30685436Y-38647500D02*
X31139564Y-38647500D01*
%TO.C,U4*%
X52140000Y-55720000D02*
X52140000Y-56620000D01*
X52140000Y-56620000D02*
X54825000Y-56620000D01*
X52450000Y-37200000D02*
X70360000Y-37200000D01*
X67675000Y-56620000D02*
X70360000Y-56620000D01*
X70360000Y-37200000D02*
X70360000Y-37790000D01*
X70360000Y-55720000D02*
X70360000Y-56620000D01*
X52140000Y-37760000D02*
X51640000Y-37760000D01*
X52140000Y-37260000D01*
X52140000Y-37760000D01*
G36*
X52140000Y-37760000D02*
G01*
X51640000Y-37760000D01*
X52140000Y-37260000D01*
X52140000Y-37760000D01*
G37*
%TO.C,D1*%
X37500000Y-43960000D02*
X40360000Y-43960000D01*
X40360000Y-42040000D02*
X37500000Y-42040000D01*
X40360000Y-43960000D02*
X40360000Y-42040000D01*
%TO.C,C7*%
X46821252Y-49855000D02*
X46298748Y-49855000D01*
X46821252Y-51325000D02*
X46298748Y-51325000D01*
%TO.C,R3*%
X46517064Y-54215000D02*
X46062936Y-54215000D01*
X46517064Y-55685000D02*
X46062936Y-55685000D01*
D15*
%TO.C,J5*%
X89720345Y-32605496D02*
X87120345Y-32605496D01*
D14*
%TO.C,C6*%
X46821252Y-52075000D02*
X46298748Y-52075000D01*
X46821252Y-53545000D02*
X46298748Y-53545000D01*
%TO.C,U2*%
X35267500Y-53180000D02*
X35537500Y-53180000D01*
X35267500Y-59600000D02*
X35267500Y-53180000D01*
X42167500Y-53180000D02*
X41897500Y-53180000D01*
X42167500Y-59600000D02*
X42167500Y-53180000D01*
X42207500Y-52005000D02*
X41877500Y-51765000D01*
X42207500Y-51525000D01*
X42207500Y-52005000D01*
G36*
X42207500Y-52005000D02*
G01*
X41877500Y-51765000D01*
X42207500Y-51525000D01*
X42207500Y-52005000D01*
G37*
%TO.C,C1*%
X43261252Y-31265000D02*
X42738748Y-31265000D01*
X43261252Y-32735000D02*
X42738748Y-32735000D01*
%TO.C,C5*%
X46791252Y-45565000D02*
X46268748Y-45565000D01*
X46791252Y-47035000D02*
X46268748Y-47035000D01*
%TO.C,U3*%
X74575345Y-38025496D02*
X74575345Y-38425496D01*
X74575345Y-54225496D02*
X74575345Y-53825496D01*
X90775345Y-38025496D02*
X74575345Y-38025496D01*
X90775345Y-38425496D02*
X90775345Y-38025496D01*
X90775345Y-54225496D02*
X74575345Y-54225496D01*
X91515345Y-54361496D02*
X91035345Y-54361496D01*
X91275345Y-54025496D01*
X91515345Y-54361496D01*
G36*
X91515345Y-54361496D02*
G01*
X91035345Y-54361496D01*
X91275345Y-54025496D01*
X91515345Y-54361496D01*
G37*
%TO.C,R1*%
X41905000Y-38497064D02*
X41905000Y-38042936D01*
X43375000Y-38497064D02*
X43375000Y-38042936D01*
%TO.C,C8*%
X42565000Y-53478748D02*
X42565000Y-54001252D01*
X44035000Y-53478748D02*
X44035000Y-54001252D01*
%TO.C,C3*%
X37420000Y-47921252D02*
X37420000Y-47398748D01*
X38890000Y-47921252D02*
X38890000Y-47398748D01*
%TO.C,R2*%
X39765000Y-47227064D02*
X39765000Y-46772936D01*
X41235000Y-47227064D02*
X41235000Y-46772936D01*
%TO.C,C4*%
X46801252Y-47705000D02*
X46278748Y-47705000D01*
X46801252Y-49175000D02*
X46278748Y-49175000D01*
%TO.C,C2*%
X35220000Y-47811252D02*
X35220000Y-47288748D01*
X36690000Y-47811252D02*
X36690000Y-47288748D01*
D16*
%TO.C,SW1*%
X34125800Y-32637639D02*
X34125800Y-37442291D01*
X36082040Y-38374199D02*
X38425299Y-38374199D01*
X38425299Y-32125799D02*
X36074702Y-32125799D01*
X40374200Y-37862359D02*
X40374200Y-32637639D01*
%TD*%
M02*
