%TF.GenerationSoftware,KiCad,Pcbnew,8.0.3*%
%TF.CreationDate,2025-09-24T15:52:31+05:30*%
%TF.ProjectId,Task_1,5461736b-5f31-42e6-9b69-6361645f7063,rev?*%
%TF.SameCoordinates,Original*%
%TF.FileFunction,Copper,L1,Top*%
%TF.FilePolarity,Positive*%
%FSLAX46Y46*%
G04 Gerber Fmt 4.6, Leading zero omitted, Abs format (unit mm)*
G04 Created by KiCad (PCBNEW 8.0.3) date 2025-09-24 15:52:31*
%MOMM*%
%LPD*%
G01*
G04 APERTURE LIST*
G04 Aperture macros list*
%AMRoundRect*
0 Rectangle with rounded corners*
0 $1 Rounding radius*
0 $2 $3 $4 $5 $6 $7 $8 $9 X,Y pos of 4 corners*
0 Add a 4 corners polygon primitive as box body*
4,1,4,$2,$3,$4,$5,$6,$7,$8,$9,$2,$3,0*
0 Add four circle primitives for the rounded corners*
1,1,$1+$1,$2,$3*
1,1,$1+$1,$4,$5*
1,1,$1+$1,$6,$7*
1,1,$1+$1,$8,$9*
0 Add four rect primitives between the rounded corners*
20,1,$1+$1,$2,$3,$4,$5,0*
20,1,$1+$1,$4,$5,$6,$7,0*
20,1,$1+$1,$6,$7,$8,$9,0*
20,1,$1+$1,$8,$9,$2,$3,0*%
G04 Aperture macros list end*
%TA.AperFunction,SMDPad,CuDef*%
%ADD10RoundRect,0.250000X-0.262500X-0.450000X0.262500X-0.450000X0.262500X0.450000X-0.262500X0.450000X0*%
%TD*%
%TA.AperFunction,SMDPad,CuDef*%
%ADD11R,1.500000X0.900000*%
%TD*%
%TA.AperFunction,SMDPad,CuDef*%
%ADD12R,0.900000X1.500000*%
%TD*%
%TA.AperFunction,SMDPad,CuDef*%
%ADD13R,0.900000X0.900000*%
%TD*%
%TA.AperFunction,HeatsinkPad*%
%ADD14C,0.600000*%
%TD*%
%TA.AperFunction,SMDPad,CuDef*%
%ADD15R,3.800000X3.800000*%
%TD*%
%TA.AperFunction,SMDPad,CuDef*%
%ADD16RoundRect,0.250000X0.325000X0.450000X-0.325000X0.450000X-0.325000X-0.450000X0.325000X-0.450000X0*%
%TD*%
%TA.AperFunction,SMDPad,CuDef*%
%ADD17RoundRect,0.250000X0.250000X0.475000X-0.250000X0.475000X-0.250000X-0.475000X0.250000X-0.475000X0*%
%TD*%
%TA.AperFunction,SMDPad,CuDef*%
%ADD18RoundRect,0.250000X0.262500X0.450000X-0.262500X0.450000X-0.262500X-0.450000X0.262500X-0.450000X0*%
%TD*%
%TA.AperFunction,ComponentPad*%
%ADD19C,3.000000*%
%TD*%
%TA.AperFunction,ComponentPad*%
%ADD20R,3.000000X3.000000*%
%TD*%
%TA.AperFunction,ComponentPad*%
%ADD21R,1.700000X1.700000*%
%TD*%
%TA.AperFunction,ComponentPad*%
%ADD22O,1.700000X1.700000*%
%TD*%
%TA.AperFunction,SMDPad,CuDef*%
%ADD23R,1.100000X2.250000*%
%TD*%
%TA.AperFunction,SMDPad,CuDef*%
%ADD24R,1.050000X1.100000*%
%TD*%
%TA.AperFunction,SMDPad,CuDef*%
%ADD25RoundRect,0.250000X-0.350000X0.850000X-0.350000X-0.850000X0.350000X-0.850000X0.350000X0.850000X0*%
%TD*%
%TA.AperFunction,SMDPad,CuDef*%
%ADD26RoundRect,0.250000X-1.125000X1.275000X-1.125000X-1.275000X1.125000X-1.275000X1.125000X1.275000X0*%
%TD*%
%TA.AperFunction,SMDPad,CuDef*%
%ADD27RoundRect,0.249997X-2.650003X2.950003X-2.650003X-2.950003X2.650003X-2.950003X2.650003X2.950003X0*%
%TD*%
%TA.AperFunction,ComponentPad*%
%ADD28C,1.700000*%
%TD*%
%TA.AperFunction,SMDPad,CuDef*%
%ADD29RoundRect,0.317500X1.157500X0.317500X-1.157500X0.317500X-1.157500X-0.317500X1.157500X-0.317500X0*%
%TD*%
%TA.AperFunction,SMDPad,CuDef*%
%ADD30RoundRect,0.250000X0.450000X-0.262500X0.450000X0.262500X-0.450000X0.262500X-0.450000X-0.262500X0*%
%TD*%
%TA.AperFunction,SMDPad,CuDef*%
%ADD31RoundRect,0.250000X-0.475000X0.250000X-0.475000X-0.250000X0.475000X-0.250000X0.475000X0.250000X0*%
%TD*%
%TA.AperFunction,SMDPad,CuDef*%
%ADD32RoundRect,0.250000X0.475000X-0.250000X0.475000X0.250000X-0.475000X0.250000X-0.475000X-0.250000X0*%
%TD*%
%TA.AperFunction,SMDPad,CuDef*%
%ADD33RoundRect,0.250000X0.450000X-0.350000X0.450000X0.350000X-0.450000X0.350000X-0.450000X-0.350000X0*%
%TD*%
%TA.AperFunction,ComponentPad*%
%ADD34R,1.498600X1.498600*%
%TD*%
%TA.AperFunction,ComponentPad*%
%ADD35C,1.498600*%
%TD*%
%TA.AperFunction,ViaPad*%
%ADD36C,0.600000*%
%TD*%
%TA.AperFunction,ViaPad*%
%ADD37C,0.900000*%
%TD*%
%TA.AperFunction,Conductor*%
%ADD38C,0.300000*%
%TD*%
%TA.AperFunction,Conductor*%
%ADD39C,0.200000*%
%TD*%
%TA.AperFunction,Conductor*%
%ADD40C,0.500000*%
%TD*%
G04 APERTURE END LIST*
D10*
%TO.P,R4,1*%
%TO.N,Net-(C1-Pad2)*%
X30000000Y-37912500D03*
%TO.P,R4,2*%
%TO.N,Net-(J4-Pin_5)*%
X31825000Y-37912500D03*
%TD*%
D11*
%TO.P,U4,1,GND*%
%TO.N,GND*%
X52500000Y-38500000D03*
%TO.P,U4,2,VDD*%
%TO.N,+3.3V*%
X52500000Y-39770000D03*
%TO.P,U4,3,EN*%
%TO.N,Net-(J4-Pin_5)*%
X52500000Y-41040000D03*
%TO.P,U4,4,SENSOR_VP*%
%TO.N,unconnected-(U4-SENSOR_VP-Pad4)*%
X52500000Y-42310000D03*
%TO.P,U4,5,SENSOR_VN*%
%TO.N,unconnected-(U4-SENSOR_VN-Pad5)*%
X52500000Y-43580000D03*
%TO.P,U4,6,IO34*%
%TO.N,unconnected-(U4-IO34-Pad6)*%
X52500000Y-44850000D03*
%TO.P,U4,7,IO35*%
%TO.N,unconnected-(U4-IO35-Pad7)*%
X52500000Y-46120000D03*
%TO.P,U4,8,IO32*%
%TO.N,unconnected-(U4-IO32-Pad8)*%
X52500000Y-47390000D03*
%TO.P,U4,9,IO33*%
%TO.N,unconnected-(U4-IO33-Pad9)*%
X52500000Y-48660000D03*
%TO.P,U4,10,IO25*%
%TO.N,unconnected-(U4-IO25-Pad10)*%
X52500000Y-49930000D03*
%TO.P,U4,11,IO26*%
%TO.N,Net-(U3-DIO0)*%
X52500000Y-51200000D03*
%TO.P,U4,12,IO27*%
%TO.N,Net-(U3-RESET)*%
X52500000Y-52470000D03*
%TO.P,U4,13,IO14*%
%TO.N,unconnected-(U4-IO14-Pad13)*%
X52500000Y-53740000D03*
%TO.P,U4,14,IO12*%
%TO.N,unconnected-(U4-IO12-Pad14)*%
X52500000Y-55010000D03*
D12*
%TO.P,U4,15,GND*%
%TO.N,GND*%
X55535000Y-56260000D03*
%TO.P,U4,16,IO13*%
%TO.N,unconnected-(U4-IO13-Pad16)*%
X56805000Y-56260000D03*
%TO.P,U4,17,NC*%
%TO.N,unconnected-(U4-NC-Pad17)*%
X58075000Y-56260000D03*
%TO.P,U4,18,NC*%
%TO.N,unconnected-(U4-NC-Pad18)*%
X59345000Y-56260000D03*
%TO.P,U4,19,NC*%
%TO.N,unconnected-(U4-NC-Pad19)*%
X60615000Y-56260000D03*
%TO.P,U4,20,NC*%
%TO.N,unconnected-(U4-NC-Pad20)*%
X61885000Y-56260000D03*
%TO.P,U4,21,NC*%
%TO.N,unconnected-(U4-NC-Pad21)*%
X63155000Y-56260000D03*
%TO.P,U4,22,NC*%
%TO.N,unconnected-(U4-NC-Pad22)*%
X64425000Y-56260000D03*
%TO.P,U4,23,IO15*%
%TO.N,unconnected-(U4-IO15-Pad23)*%
X65695000Y-56260000D03*
%TO.P,U4,24,IO2*%
%TO.N,unconnected-(U4-IO2-Pad24)*%
X66965000Y-56260000D03*
D11*
%TO.P,U4,25,IO0*%
%TO.N,Net-(J3-Pin_2)*%
X70000000Y-55010000D03*
%TO.P,U4,26,IO4*%
%TO.N,Net-(J2-Pin_2)*%
X70000000Y-53740000D03*
%TO.P,U4,27,IO16*%
%TO.N,unconnected-(U4-IO16-Pad27)*%
X70000000Y-52470000D03*
%TO.P,U4,28,IO17*%
%TO.N,unconnected-(U4-IO17-Pad28)*%
X70000000Y-51200000D03*
%TO.P,U4,29,IO5*%
%TO.N,Net-(U3-NSS)*%
X70000000Y-49930000D03*
%TO.P,U4,30,IO18*%
%TO.N,Net-(U3-SCK)*%
X70000000Y-48660000D03*
%TO.P,U4,31,IO19*%
%TO.N,Net-(U3-MISO)*%
X70000000Y-47390000D03*
%TO.P,U4,32,NC*%
%TO.N,unconnected-(U4-NC-Pad32)*%
X70000000Y-46120000D03*
%TO.P,U4,33,IO21*%
%TO.N,unconnected-(U4-IO21-Pad33)*%
X70000000Y-44850000D03*
%TO.P,U4,34,RXD0/IO3*%
%TO.N,Net-(J4-Pin_3)*%
X70000000Y-43580000D03*
%TO.P,U4,35,TXD0/IO1*%
%TO.N,Net-(J4-Pin_4)*%
X70000000Y-42310000D03*
%TO.P,U4,36,IO22*%
%TO.N,unconnected-(U4-IO22-Pad36)*%
X70000000Y-41040000D03*
%TO.P,U4,37,IO23*%
%TO.N,Net-(U3-MOSI)*%
X70000000Y-39770000D03*
%TO.P,U4,38,GND*%
%TO.N,GND*%
X70000000Y-38500000D03*
D13*
%TO.P,U4,39,GND*%
X58350000Y-44440000D03*
D14*
X58350000Y-45140000D03*
D13*
X58350000Y-45840000D03*
D14*
X58350000Y-46540000D03*
D13*
X58350000Y-47240000D03*
D14*
X59050000Y-44440000D03*
X59050000Y-45840000D03*
X59050000Y-47240000D03*
D13*
X59750000Y-44440000D03*
D14*
X59750000Y-45140000D03*
D13*
X59750000Y-45840000D03*
D15*
X59750000Y-45840000D03*
D14*
X59750000Y-46540000D03*
D13*
X59750000Y-47240000D03*
D14*
X60450000Y-44440000D03*
X60450000Y-45840000D03*
X60450000Y-47240000D03*
D13*
X61150000Y-44440000D03*
D14*
X61150000Y-45140000D03*
D13*
X61150000Y-45840000D03*
D14*
X61150000Y-46540000D03*
D13*
X61150000Y-47240000D03*
%TD*%
D16*
%TO.P,D1,1,K*%
%TO.N,GND*%
X39525000Y-43000000D03*
%TO.P,D1,2,A*%
%TO.N,Net-(D1-A)*%
X37475000Y-43000000D03*
%TD*%
D17*
%TO.P,C7,1*%
%TO.N,+3.3V*%
X47510000Y-50590000D03*
%TO.P,C7,2*%
%TO.N,GND*%
X45610000Y-50590000D03*
%TD*%
D18*
%TO.P,R3,1*%
%TO.N,+3.3V*%
X47202500Y-54950000D03*
%TO.P,R3,2*%
%TO.N,Net-(J2-Pin_2)*%
X45377500Y-54950000D03*
%TD*%
D19*
%TO.P,J1,2,Pin_2*%
%TO.N,Net-(J1-Pin_2)*%
X30500000Y-48500000D03*
D20*
%TO.P,J1,1,Pin_1*%
%TO.N,GND*%
X30500000Y-43420000D03*
%TD*%
D21*
%TO.P,J3,1,Pin_1*%
%TO.N,GND*%
X77885345Y-56775496D03*
D22*
%TO.P,J3,2,Pin_2*%
%TO.N,Net-(J3-Pin_2)*%
X75345345Y-56775496D03*
%TD*%
D23*
%TO.P,J5,1,GND*%
%TO.N,GND*%
X86945345Y-33905496D03*
%TO.P,J5,2,GND*%
X89895345Y-33905496D03*
D24*
%TO.P,J5,3,SIG*%
%TO.N,Net-(J5-SIG)*%
X88420345Y-35455496D03*
%TD*%
D17*
%TO.P,C6,1*%
%TO.N,+3.3V*%
X47510000Y-52810000D03*
%TO.P,C6,2*%
%TO.N,GND*%
X45610000Y-52810000D03*
%TD*%
D25*
%TO.P,U2,1,GND*%
%TO.N,GND*%
X40997500Y-51450000D03*
%TO.P,U2,2,VO*%
%TO.N,+3.3V*%
X38717500Y-51450000D03*
D26*
X40242500Y-56075000D03*
X37192500Y-56075000D03*
D27*
X38717500Y-57750000D03*
D26*
X40242500Y-59425000D03*
X37192500Y-59425000D03*
D25*
%TO.P,U2,3,VI*%
%TO.N,Net-(J1-Pin_2)*%
X36437500Y-51450000D03*
%TD*%
D17*
%TO.P,C1,1*%
%TO.N,GND*%
X43950000Y-32000000D03*
%TO.P,C1,2*%
%TO.N,Net-(C1-Pad2)*%
X42050000Y-32000000D03*
%TD*%
D28*
%TO.P,J4,5,Pin_5*%
%TO.N,Net-(J4-Pin_5)*%
X46880000Y-42490000D03*
D22*
%TO.P,J4,4,Pin_4*%
%TO.N,Net-(J4-Pin_4)*%
X46880000Y-39950000D03*
%TO.P,J4,3,Pin_3*%
%TO.N,Net-(J4-Pin_3)*%
X46880000Y-37410000D03*
%TO.P,J4,2,Pin_2*%
%TO.N,+3.3V*%
X46880000Y-34870000D03*
D21*
%TO.P,J4,1,Pin_1*%
%TO.N,GND*%
X46880000Y-32330000D03*
%TD*%
D17*
%TO.P,C5,1*%
%TO.N,+3.3V*%
X47480000Y-46300000D03*
%TO.P,C5,2*%
%TO.N,GND*%
X45580000Y-46300000D03*
%TD*%
D29*
%TO.P,U3,1,GND*%
%TO.N,GND*%
X90200345Y-53125496D03*
%TO.P,U3,2,MISO*%
%TO.N,Net-(U3-MISO)*%
X90200345Y-51125496D03*
%TO.P,U3,3,MOSI*%
%TO.N,Net-(U3-MOSI)*%
X90200345Y-49125496D03*
%TO.P,U3,4,SCK*%
%TO.N,Net-(U3-SCK)*%
X90200345Y-47125496D03*
%TO.P,U3,5,NSS*%
%TO.N,Net-(U3-NSS)*%
X90200345Y-45125496D03*
%TO.P,U3,6,RESET*%
%TO.N,Net-(U3-RESET)*%
X90200345Y-43125496D03*
%TO.P,U3,7,DIO5*%
%TO.N,unconnected-(U3-DIO5-Pad7)*%
X90200345Y-41125496D03*
%TO.P,U3,8,GND*%
%TO.N,GND*%
X90200345Y-39125496D03*
%TO.P,U3,9,ANT*%
%TO.N,Net-(J5-SIG)*%
X75150345Y-39125496D03*
%TO.P,U3,10,GND*%
%TO.N,GND*%
X75150345Y-41125496D03*
%TO.P,U3,11,DIO3*%
%TO.N,unconnected-(U3-DIO3-Pad11)*%
X75150345Y-43125496D03*
%TO.P,U3,12,DIO4*%
%TO.N,unconnected-(U3-DIO4-Pad12)*%
X75150345Y-45125496D03*
%TO.P,U3,13,3.3V*%
%TO.N,+3.3V*%
X75150345Y-47125496D03*
%TO.P,U3,14,DIO0*%
%TO.N,Net-(U3-DIO0)*%
X75150345Y-49125496D03*
%TO.P,U3,15,DIO1*%
%TO.N,unconnected-(U3-DIO1-Pad15)*%
X75150345Y-51125496D03*
%TO.P,U3,16,DIO2*%
%TO.N,unconnected-(U3-DIO2-Pad16)*%
X75150345Y-53125496D03*
%TD*%
D30*
%TO.P,R1,1*%
%TO.N,+3.3V*%
X42640000Y-39182500D03*
%TO.P,R1,2*%
%TO.N,Net-(J4-Pin_5)*%
X42640000Y-37357500D03*
%TD*%
D31*
%TO.P,C8,1*%
%TO.N,GND*%
X43300000Y-52790000D03*
%TO.P,C8,2*%
%TO.N,Net-(J2-Pin_2)*%
X43300000Y-54690000D03*
%TD*%
D32*
%TO.P,C3,1*%
%TO.N,Net-(J1-Pin_2)*%
X38155000Y-48610000D03*
%TO.P,C3,2*%
%TO.N,GND*%
X38155000Y-46710000D03*
%TD*%
D33*
%TO.P,R2,1*%
%TO.N,+3.3V*%
X40500000Y-48000000D03*
%TO.P,R2,2*%
%TO.N,Net-(D1-A)*%
X40500000Y-46000000D03*
%TD*%
D20*
%TO.P,J2,1,Pin_1*%
%TO.N,GND*%
X80500000Y-33500000D03*
D19*
%TO.P,J2,2,Pin_2*%
%TO.N,Net-(J2-Pin_2)*%
X75420000Y-33500000D03*
%TD*%
D17*
%TO.P,C4,1*%
%TO.N,+3.3V*%
X47490000Y-48440000D03*
%TO.P,C4,2*%
%TO.N,GND*%
X45590000Y-48440000D03*
%TD*%
D32*
%TO.P,C2,1*%
%TO.N,Net-(J1-Pin_2)*%
X35955000Y-48500000D03*
%TO.P,C2,2*%
%TO.N,GND*%
X35955000Y-46600000D03*
%TD*%
D34*
%TO.P,SW1,1,1*%
%TO.N,GND*%
X35000000Y-38500000D03*
D35*
%TO.P,SW1,2,2*%
%TO.N,Net-(C1-Pad2)*%
X35000000Y-31999999D03*
%TO.P,SW1,3*%
%TO.N,N/C*%
X39500001Y-38500000D03*
%TO.P,SW1,4*%
X39500001Y-31999999D03*
%TD*%
D36*
%TO.N,Net-(J4-Pin_5)*%
X41500000Y-35500000D03*
%TO.N,GND*%
X50500000Y-60500000D03*
X49340000Y-31260000D03*
D37*
%TO.N,+3.3V*%
X72910000Y-44890000D03*
X50560000Y-39610000D03*
%TO.N,Net-(J4-Pin_4)*%
X72040000Y-41690000D03*
%TO.N,Net-(U3-MISO)*%
X84880345Y-51215496D03*
X71850000Y-47090000D03*
%TO.N,Net-(U3-NSS)*%
X71975357Y-49593272D03*
X86950345Y-47630000D03*
%TO.N,Net-(U3-MOSI)*%
X71870000Y-38880000D03*
X88020345Y-49675496D03*
%TO.N,Net-(U3-DIO0)*%
X73060345Y-55345496D03*
X50040000Y-51880000D03*
%TO.N,Net-(U3-RESET)*%
X50810000Y-53308502D03*
X87687425Y-44222575D03*
%TO.N,Net-(U3-SCK)*%
X85630345Y-50200000D03*
X71940000Y-48380000D03*
%TO.N,Net-(J4-Pin_3)*%
X72030000Y-42810000D03*
%TO.N,Net-(J2-Pin_2)*%
X44070000Y-55830000D03*
X72017921Y-52877921D03*
%TD*%
D38*
%TO.N,GND*%
X89382477Y-32605496D02*
X89895345Y-33118364D01*
X89895345Y-33118364D02*
X89895345Y-33905496D01*
X87455149Y-32605496D02*
X89382477Y-32605496D01*
X86945345Y-33115300D02*
X87455149Y-32605496D01*
X86945345Y-33186010D02*
X86945345Y-33115300D01*
X90655496Y-33905496D02*
X91500000Y-34750000D01*
X91500000Y-37825841D02*
X90200345Y-39125496D01*
X89895345Y-33905496D02*
X90655496Y-33905496D01*
X91500000Y-34750000D02*
X91500000Y-37825841D01*
%TO.N,Net-(J1-Pin_2)*%
X38045000Y-48500000D02*
X30500000Y-48500000D01*
%TO.N,Net-(J4-Pin_5)*%
X49000000Y-41000000D02*
X52566302Y-41000000D01*
X46880000Y-42490000D02*
X47510000Y-42490000D01*
X47510000Y-42490000D02*
X49000000Y-41000000D01*
%TO.N,Net-(D1-A)*%
X37475000Y-43475000D02*
X40000000Y-46000000D01*
D39*
X37475000Y-43000000D02*
X37475000Y-43475000D01*
X40000000Y-46000000D02*
X40500000Y-46000000D01*
D38*
%TO.N,GND*%
X35000000Y-41000000D02*
X35000000Y-38500000D01*
X32580000Y-43420000D02*
X35000000Y-41000000D01*
X30500000Y-43420000D02*
X32580000Y-43420000D01*
%TO.N,Net-(J4-Pin_5)*%
X40500000Y-36500000D02*
X41500000Y-35500000D01*
X33825000Y-36500000D02*
X40500000Y-36500000D01*
X32412500Y-37912500D02*
X33825000Y-36500000D01*
X31825000Y-37912500D02*
X32412500Y-37912500D01*
%TO.N,Net-(C1-Pad2)*%
X35000000Y-33059669D02*
X35000000Y-31999999D01*
X31559669Y-36500000D02*
X35000000Y-33059669D01*
X30500000Y-36500000D02*
X31559669Y-36500000D01*
X30000000Y-37000000D02*
X30500000Y-36500000D01*
X30000000Y-37912500D02*
X30000000Y-37000000D01*
D39*
X30000000Y-37912500D02*
X30087500Y-37912500D01*
D38*
%TO.N,Net-(J4-Pin_5)*%
X42640000Y-36640000D02*
X41500000Y-35500000D01*
X42640000Y-37357500D02*
X42640000Y-36640000D01*
D39*
%TO.N,Net-(C1-Pad2)*%
X41880000Y-32120000D02*
X41880000Y-32000000D01*
%TO.N,GND*%
X41550000Y-51450000D02*
X40997500Y-51450000D01*
X43010000Y-49990000D02*
X41550000Y-51450000D01*
X43010000Y-47990000D02*
X43010000Y-49990000D01*
X45580000Y-46300000D02*
X44700000Y-46300000D01*
X44700000Y-46300000D02*
X43010000Y-47990000D01*
%TO.N,Net-(J1-Pin_2)*%
X36437500Y-48982500D02*
X35955000Y-48500000D01*
X36437500Y-51450000D02*
X36437500Y-48982500D01*
D38*
%TO.N,GND*%
X33680000Y-46600000D02*
X30500000Y-43420000D01*
X35955000Y-46600000D02*
X33680000Y-46600000D01*
D39*
X36065000Y-46710000D02*
X35955000Y-46600000D01*
D38*
X38155000Y-46710000D02*
X36065000Y-46710000D01*
%TO.N,+3.3V*%
X38717500Y-50282500D02*
X40500000Y-48500000D01*
X38717500Y-51450000D02*
X38717500Y-50282500D01*
%TO.N,Net-(U3-MOSI)*%
X71250000Y-39500000D02*
X71870000Y-38880000D01*
X70500000Y-39500000D02*
X71250000Y-39500000D01*
D40*
%TO.N,Net-(J3-Pin_2)*%
X70775496Y-56775496D02*
X75345345Y-56775496D01*
X69779291Y-55779291D02*
X70775496Y-56775496D01*
X69779291Y-55000000D02*
X69779291Y-55779291D01*
D38*
%TO.N,GND*%
X68616701Y-38206303D02*
X69820001Y-38206303D01*
X62383004Y-44440000D02*
X68616701Y-38206303D01*
X61150000Y-44440000D02*
X62383004Y-44440000D01*
X58350000Y-42533004D02*
X58350000Y-44440000D01*
X54023299Y-38206303D02*
X58350000Y-42533004D01*
X52819999Y-38206303D02*
X54023299Y-38206303D01*
%TO.N,Net-(U3-RESET)*%
X51648502Y-52470000D02*
X52500000Y-52470000D01*
X50810000Y-53308502D02*
X51648502Y-52470000D01*
%TO.N,Net-(U3-DIO0)*%
X50720000Y-51200000D02*
X52500000Y-51200000D01*
X50040000Y-51880000D02*
X50720000Y-51200000D01*
%TO.N,Net-(U3-NSS)*%
X70911023Y-49930000D02*
X70000000Y-49930000D01*
X71200000Y-49641023D02*
X70911023Y-49930000D01*
X71927606Y-49641023D02*
X71200000Y-49641023D01*
X71975357Y-49593272D02*
X71927606Y-49641023D01*
%TO.N,Net-(U3-SCK)*%
X71940000Y-48380000D02*
X71660000Y-48660000D01*
X71660000Y-48660000D02*
X70113698Y-48660000D01*
%TO.N,Net-(U3-MISO)*%
X71550000Y-47390000D02*
X70113698Y-47390000D01*
X70113698Y-47390000D02*
X69820001Y-47096303D01*
X71850000Y-47090000D02*
X71550000Y-47390000D01*
%TO.N,Net-(J4-Pin_3)*%
X71260000Y-43580000D02*
X70113698Y-43580000D01*
X72030000Y-42810000D02*
X71260000Y-43580000D01*
X70113698Y-43580000D02*
X69820001Y-43286303D01*
%TO.N,Net-(J4-Pin_4)*%
X70113698Y-42310000D02*
X69820001Y-42016303D01*
X70690000Y-42310000D02*
X70113698Y-42310000D01*
X71429884Y-41570116D02*
X70690000Y-42310000D01*
X71920116Y-41570116D02*
X71429884Y-41570116D01*
%TO.N,+3.3V*%
X50560000Y-39610000D02*
X52686302Y-39610000D01*
%TO.N,Net-(J2-Pin_2)*%
X73045345Y-35274655D02*
X75320000Y-33000000D01*
X73045345Y-43311840D02*
X73045345Y-35274655D01*
X72850000Y-46206622D02*
X72110000Y-45466622D01*
X72850000Y-49850000D02*
X72850000Y-46206622D01*
X72420000Y-50280000D02*
X72850000Y-49850000D01*
X72420000Y-52465841D02*
X72420000Y-50280000D01*
X72110000Y-45466622D02*
X72110000Y-44247185D01*
X72110000Y-44247185D02*
X73045345Y-43311840D01*
X72017921Y-52867920D02*
X72420000Y-52465841D01*
D39*
X75320000Y-33000000D02*
X75320000Y-34315840D01*
D38*
%TO.N,GND*%
X44180000Y-32090000D02*
X46640000Y-32090000D01*
D39*
X86945345Y-33186010D02*
X86945345Y-33905496D01*
X86735345Y-33695496D02*
X86945345Y-33905496D01*
X42357500Y-52810000D02*
X45610000Y-52810000D01*
X46640000Y-32090000D02*
X46880000Y-32330000D01*
D38*
X54842501Y-56157499D02*
X50500000Y-60500000D01*
D39*
X40997500Y-51450000D02*
X42357500Y-52810000D01*
X45580000Y-46300000D02*
X45580000Y-52780000D01*
X46880000Y-32330000D02*
X47550000Y-33000000D01*
X45580000Y-52780000D02*
X45610000Y-52810000D01*
X89300345Y-53125496D02*
X90200345Y-53125496D01*
D38*
X55605000Y-56157499D02*
X54842501Y-56157499D01*
X80340345Y-33695496D02*
X86735345Y-33695496D01*
%TO.N,+3.3V*%
X74580345Y-47125496D02*
X74750345Y-47125496D01*
D39*
X38680000Y-51412500D02*
X38717500Y-51450000D01*
X47480000Y-54672500D02*
X47202500Y-54950000D01*
X45240000Y-43240000D02*
X47480000Y-45480000D01*
D38*
X46500000Y-60000000D02*
X47202500Y-59297500D01*
D39*
X47480000Y-46300000D02*
X47480000Y-54672500D01*
D38*
X45130000Y-36620000D02*
X45130000Y-38450000D01*
D39*
X38717500Y-57750000D02*
X40967500Y-60000000D01*
D38*
X72910000Y-44890000D02*
X72910000Y-45455151D01*
X44397500Y-39182500D02*
X42640000Y-39182500D01*
X40967500Y-60000000D02*
X46500000Y-60000000D01*
X47202500Y-59297500D02*
X47202500Y-54950000D01*
X45130000Y-38450000D02*
X44397500Y-39182500D01*
X42640000Y-39182500D02*
X42640000Y-41640000D01*
D39*
X44240000Y-43240000D02*
X45240000Y-43240000D01*
X47480000Y-45480000D02*
X47480000Y-46300000D01*
D38*
X46880000Y-34870000D02*
X45130000Y-36620000D01*
X72910000Y-45455151D02*
X74580345Y-47125496D01*
X38717500Y-57750000D02*
X38717500Y-51450000D01*
X42640000Y-41640000D02*
X44240000Y-43240000D01*
D39*
X74750345Y-47125496D02*
X75150345Y-47125496D01*
%TO.N,Net-(J1-Pin_2)*%
X38045000Y-48500000D02*
X38155000Y-48610000D01*
X35955000Y-48500000D02*
X38045000Y-48500000D01*
%TO.N,Net-(J4-Pin_4)*%
X72040000Y-41690000D02*
X71920116Y-41570116D01*
X69852888Y-42094620D02*
X69779291Y-42021023D01*
D38*
%TO.N,Net-(U3-MISO)*%
X84970345Y-51125496D02*
X90200345Y-51125496D01*
X84880345Y-51215496D02*
X84970345Y-51125496D01*
%TO.N,Net-(U3-NSS)*%
X86950345Y-47630000D02*
X86950345Y-46085496D01*
X87910345Y-45125496D02*
X90200345Y-45125496D01*
X86950345Y-46085496D02*
X87910345Y-45125496D01*
%TO.N,Net-(U3-MOSI)*%
X88020345Y-49675496D02*
X88570345Y-49125496D01*
X88570345Y-49125496D02*
X90200345Y-49125496D01*
X71870000Y-38880000D02*
X72154849Y-38880000D01*
%TO.N,Net-(U3-DIO0)*%
X73190345Y-50469655D02*
X74534504Y-49125496D01*
X74534504Y-49125496D02*
X75150345Y-49125496D01*
X73060345Y-55345496D02*
X73190345Y-55215496D01*
X73190345Y-55215496D02*
X73190345Y-50469655D01*
%TO.N,Net-(U3-RESET)*%
X88080345Y-43125496D02*
X90200345Y-43125496D01*
X87687425Y-43518416D02*
X88080345Y-43125496D01*
X87687425Y-44222575D02*
X87687425Y-43518416D01*
%TO.N,Net-(U3-SCK)*%
X85630345Y-50200000D02*
X85680000Y-50200000D01*
X85680000Y-50200000D02*
X88754504Y-47125496D01*
X88754504Y-47125496D02*
X90200345Y-47125496D01*
D39*
%TO.N,Net-(J2-Pin_2)*%
X69790314Y-53440000D02*
X69779291Y-53451023D01*
X45117500Y-54690000D02*
X45377500Y-54950000D01*
X72017921Y-52877921D02*
X72017921Y-52867920D01*
D38*
X72017921Y-52877921D02*
X71449539Y-53446303D01*
X71449539Y-53446303D02*
X69820001Y-53446303D01*
D39*
X43300000Y-54690000D02*
X45117500Y-54690000D01*
D40*
%TO.N,Net-(J5-SIG)*%
X75170345Y-39105496D02*
X82690345Y-39105496D01*
X82690345Y-39105496D02*
X84770345Y-39105496D01*
X84770345Y-39105496D02*
X88420345Y-35455496D01*
X82690345Y-39105496D02*
X82690345Y-39095496D01*
X75150345Y-39125496D02*
X75170345Y-39105496D01*
D38*
%TO.N,Net-(C1-Pad2)*%
X40000000Y-34000000D02*
X41880000Y-32120000D01*
X37000001Y-34000000D02*
X40000000Y-34000000D01*
X35000000Y-31999999D02*
X37000001Y-34000000D01*
%TD*%
%TA.AperFunction,Conductor*%
%TO.N,GND*%
G36*
X92425007Y-30523919D02*
G01*
X92479752Y-30578248D01*
X92499999Y-30652671D01*
X92500000Y-30653240D01*
X92500000Y-34351000D01*
X92480038Y-34425500D01*
X92425500Y-34480038D01*
X92351000Y-34500000D01*
X89469345Y-34500000D01*
X89394845Y-34480038D01*
X89340307Y-34425500D01*
X89320345Y-34351000D01*
X89320345Y-32755496D01*
X87517281Y-32755496D01*
X87517281Y-34351000D01*
X87497319Y-34425500D01*
X87442781Y-34480038D01*
X87368281Y-34500000D01*
X80641479Y-34500000D01*
X80566979Y-34480038D01*
X80512441Y-34425500D01*
X80492679Y-34358710D01*
X80492280Y-34351000D01*
X80400384Y-32577429D01*
X80400359Y-32562567D01*
X80490785Y-30690747D01*
X80514317Y-30617301D01*
X80571423Y-30565459D01*
X80639038Y-30548942D01*
X92350436Y-30504242D01*
X92425007Y-30523919D01*
G37*
%TD.AperFunction*%
%TD*%
%TA.AperFunction,Conductor*%
%TO.N,+3.3V*%
G36*
X48923742Y-33840999D02*
G01*
X48979015Y-33894791D01*
X48999986Y-33969014D01*
X49000000Y-33971036D01*
X49000000Y-39000000D01*
X50097458Y-39000000D01*
X50116907Y-39001275D01*
X50149000Y-39005500D01*
X50861000Y-39005500D01*
X50935500Y-39025462D01*
X50990038Y-39080000D01*
X51010000Y-39154500D01*
X51010000Y-40124370D01*
X51029534Y-40154445D01*
X51033576Y-40231467D01*
X50998566Y-40300192D01*
X50933885Y-40342204D01*
X50887830Y-40349500D01*
X48935927Y-40349500D01*
X48810256Y-40374498D01*
X48810254Y-40374499D01*
X48691880Y-40423531D01*
X48691873Y-40423535D01*
X48585327Y-40494727D01*
X48303640Y-40776414D01*
X48236845Y-40814978D01*
X48159717Y-40814978D01*
X48092922Y-40776414D01*
X48054358Y-40709619D01*
X48054358Y-40632491D01*
X48063234Y-40608100D01*
X48153903Y-40413663D01*
X48215063Y-40185408D01*
X48235659Y-39950000D01*
X48215063Y-39714592D01*
X48153903Y-39486337D01*
X48054035Y-39272171D01*
X47918495Y-39078599D01*
X47751401Y-38911505D01*
X47595086Y-38802052D01*
X47545511Y-38742970D01*
X47532118Y-38667014D01*
X47558497Y-38594537D01*
X47595085Y-38557948D01*
X47751401Y-38448495D01*
X47918495Y-38281401D01*
X48054035Y-38087830D01*
X48153903Y-37873663D01*
X48215063Y-37645408D01*
X48235659Y-37410000D01*
X48215063Y-37174592D01*
X48153903Y-36946337D01*
X48054035Y-36732171D01*
X47918495Y-36538599D01*
X47751401Y-36371505D01*
X47557830Y-36235965D01*
X47343663Y-36136097D01*
X47343661Y-36136096D01*
X47115409Y-36074937D01*
X46880000Y-36054341D01*
X46644590Y-36074937D01*
X46416340Y-36136096D01*
X46416339Y-36136096D01*
X46416337Y-36136097D01*
X46202171Y-36235965D01*
X46202168Y-36235966D01*
X46202168Y-36235967D01*
X46008596Y-36371507D01*
X45841507Y-36538596D01*
X45735673Y-36689744D01*
X45705965Y-36732171D01*
X45615201Y-36926814D01*
X45606096Y-36946340D01*
X45544937Y-37174590D01*
X45524341Y-37410000D01*
X45544937Y-37645409D01*
X45594997Y-37832240D01*
X45606097Y-37873663D01*
X45705965Y-38087830D01*
X45841505Y-38281401D01*
X46008599Y-38448495D01*
X46164913Y-38557947D01*
X46214489Y-38617030D01*
X46227882Y-38692986D01*
X46201503Y-38765463D01*
X46164912Y-38802054D01*
X46008597Y-38911506D01*
X45841507Y-39078596D01*
X45841505Y-39078599D01*
X45705965Y-39272171D01*
X45606097Y-39486337D01*
X45606096Y-39486340D01*
X45544937Y-39714590D01*
X45524341Y-39950000D01*
X45544937Y-40185409D01*
X45606095Y-40413659D01*
X45606097Y-40413663D01*
X45705965Y-40627830D01*
X45841505Y-40821401D01*
X46008599Y-40988495D01*
X46164913Y-41097947D01*
X46214489Y-41157030D01*
X46227882Y-41232986D01*
X46201503Y-41305463D01*
X46164912Y-41342054D01*
X46008597Y-41451506D01*
X45841507Y-41618596D01*
X45767003Y-41725000D01*
X45705965Y-41812171D01*
X45615814Y-42005500D01*
X45606096Y-42026340D01*
X45544937Y-42254590D01*
X45524341Y-42490000D01*
X45544937Y-42725409D01*
X45606095Y-42953659D01*
X45606097Y-42953663D01*
X45705965Y-43167830D01*
X45841505Y-43361401D01*
X46008599Y-43528495D01*
X46202170Y-43664035D01*
X46416337Y-43763903D01*
X46644592Y-43825063D01*
X46880000Y-43845659D01*
X47115408Y-43825063D01*
X47343663Y-43763903D01*
X47557830Y-43664035D01*
X47751401Y-43528495D01*
X47918495Y-43361401D01*
X48054035Y-43167830D01*
X48153903Y-42953663D01*
X48212243Y-42735930D01*
X48250803Y-42669140D01*
X49225804Y-41694141D01*
X49292599Y-41655577D01*
X49331163Y-41650500D01*
X51067387Y-41650500D01*
X51141887Y-41670462D01*
X51196425Y-41725000D01*
X51216380Y-41798071D01*
X51249493Y-45251114D01*
X51249500Y-45252541D01*
X51249500Y-45347876D01*
X51249501Y-45347878D01*
X51249736Y-45350067D01*
X51250580Y-45364540D01*
X51252676Y-45583092D01*
X51251830Y-45600439D01*
X51249500Y-45622124D01*
X51249500Y-46617863D01*
X51249502Y-46617888D01*
X51255908Y-46677478D01*
X51258053Y-46686555D01*
X51256801Y-46686850D01*
X51263614Y-46723615D01*
X51264174Y-46782026D01*
X51256954Y-46823183D01*
X51258052Y-46823443D01*
X51255909Y-46832512D01*
X51249500Y-46892116D01*
X51249500Y-47887863D01*
X51249502Y-47887888D01*
X51255908Y-47947483D01*
X51255909Y-47947484D01*
X51265400Y-47972933D01*
X51272729Y-48049712D01*
X51265401Y-48077062D01*
X51255908Y-48102515D01*
X51249500Y-48162114D01*
X51249500Y-49157863D01*
X51249502Y-49157888D01*
X51255908Y-49217481D01*
X51265401Y-49242934D01*
X51272730Y-49319713D01*
X51265401Y-49347066D01*
X51255909Y-49372515D01*
X51255907Y-49372523D01*
X51249500Y-49432114D01*
X51249500Y-49432132D01*
X51249501Y-50400500D01*
X51229539Y-50475000D01*
X51175001Y-50529538D01*
X51100501Y-50549500D01*
X50655927Y-50549500D01*
X50530256Y-50574498D01*
X50530254Y-50574499D01*
X50411880Y-50623531D01*
X50411873Y-50623535D01*
X50383465Y-50642517D01*
X50305327Y-50694727D01*
X50305321Y-50694732D01*
X50116690Y-50883362D01*
X50049895Y-50921926D01*
X50025937Y-50926285D01*
X49853671Y-50943252D01*
X49674499Y-50997604D01*
X49674494Y-50997606D01*
X49509381Y-51085860D01*
X49509378Y-51085862D01*
X49509376Y-51085863D01*
X49509375Y-51085864D01*
X49473862Y-51115009D01*
X49364643Y-51204643D01*
X49245862Y-51349378D01*
X49245860Y-51349381D01*
X49157606Y-51514494D01*
X49157604Y-51514499D01*
X49103253Y-51693666D01*
X49084901Y-51880000D01*
X49103253Y-52066333D01*
X49138403Y-52182203D01*
X49157604Y-52245501D01*
X49245864Y-52410625D01*
X49364643Y-52555357D01*
X49509375Y-52674136D01*
X49674499Y-52762396D01*
X49813861Y-52804671D01*
X49879358Y-52845400D01*
X49915716Y-52913421D01*
X49913192Y-52990507D01*
X49873254Y-53122166D01*
X49873253Y-53122168D01*
X49873253Y-53122171D01*
X49861438Y-53242128D01*
X49854901Y-53308502D01*
X49873253Y-53494835D01*
X49877446Y-53508656D01*
X49915078Y-53632712D01*
X49927604Y-53674002D01*
X49927606Y-53674007D01*
X49998656Y-53806934D01*
X50015864Y-53839127D01*
X50134643Y-53983859D01*
X50279375Y-54102638D01*
X50444499Y-54190898D01*
X50623669Y-54245249D01*
X50810000Y-54263601D01*
X50996331Y-54245249D01*
X51078082Y-54220449D01*
X51155165Y-54217926D01*
X51223186Y-54254283D01*
X51260939Y-54310971D01*
X51265404Y-54322941D01*
X51272729Y-54399720D01*
X51265401Y-54427066D01*
X51255909Y-54452515D01*
X51255907Y-54452523D01*
X51249500Y-54512114D01*
X51249500Y-55507863D01*
X51249502Y-55507888D01*
X51255908Y-55567478D01*
X51255909Y-55567484D01*
X51306202Y-55702329D01*
X51306204Y-55702332D01*
X51321038Y-55722148D01*
X51349703Y-55793752D01*
X51350750Y-55810011D01*
X51377880Y-58639018D01*
X51358633Y-58713706D01*
X51334246Y-58745806D01*
X51264384Y-58815668D01*
X51197589Y-58854232D01*
X51158560Y-58859308D01*
X35497504Y-58810460D01*
X35423067Y-58790266D01*
X35368699Y-58735558D01*
X35348973Y-58662498D01*
X35337027Y-56946256D01*
X35321044Y-54650035D01*
X35340487Y-54575400D01*
X35394644Y-54520484D01*
X35469003Y-54500004D01*
X35470040Y-54500000D01*
X36991432Y-54500000D01*
X37008510Y-54500981D01*
X37520000Y-54560000D01*
X39790000Y-54550000D01*
X40494774Y-54500367D01*
X40505241Y-54500000D01*
X41362795Y-54500000D01*
X41437295Y-54519962D01*
X41491833Y-54574500D01*
X41511290Y-54636739D01*
X41680000Y-56680000D01*
X42170947Y-56680000D01*
X42245447Y-56699962D01*
X42281091Y-56728654D01*
X42327170Y-56779233D01*
X42425739Y-56860438D01*
X42438216Y-56870717D01*
X42570541Y-56927212D01*
X42638049Y-56945222D01*
X42638051Y-56945222D01*
X42638061Y-56945223D01*
X42645242Y-56946165D01*
X42646779Y-56946256D01*
X42658900Y-56947691D01*
X42780932Y-56962147D01*
X44740501Y-56913360D01*
X44945872Y-56908248D01*
X44976632Y-56904634D01*
X45038160Y-56897407D01*
X45082568Y-56887989D01*
X45171310Y-56860438D01*
X45295023Y-56786976D01*
X45304625Y-56779233D01*
X45349407Y-56743118D01*
X45349411Y-56743115D01*
X45363932Y-56727506D01*
X45429293Y-56686561D01*
X45473020Y-56680000D01*
X48500000Y-56680000D01*
X48500000Y-44630000D01*
X45085288Y-44503167D01*
X45011581Y-44480454D01*
X44959586Y-44424830D01*
X44517763Y-43603040D01*
X44500000Y-43532485D01*
X44500000Y-38541270D01*
X44519962Y-38466770D01*
X44521234Y-38464610D01*
X44589999Y-38350001D01*
X44590000Y-38350000D01*
X44580329Y-34027316D01*
X44600125Y-33952775D01*
X44654541Y-33898115D01*
X44727305Y-33878000D01*
X48848978Y-33822050D01*
X48923742Y-33840999D01*
G37*
%TD.AperFunction*%
%TD*%
%TA.AperFunction,Conductor*%
%TO.N,GND*%
G36*
X50425500Y-31019962D02*
G01*
X50480038Y-31074500D01*
X50500000Y-31149000D01*
X50500000Y-38000000D01*
X69851000Y-38000000D01*
X69925500Y-38019962D01*
X69980038Y-38074500D01*
X70000000Y-38149000D01*
X70000000Y-38351000D01*
X69980038Y-38425500D01*
X69925500Y-38480038D01*
X69851000Y-38500000D01*
X63000000Y-38500000D01*
X63000000Y-47851000D01*
X62980038Y-47925500D01*
X62925500Y-47980038D01*
X62851000Y-48000000D01*
X57149000Y-48000000D01*
X57074500Y-47980038D01*
X57019962Y-47925500D01*
X57000000Y-47851000D01*
X57000000Y-38500000D01*
X50149000Y-38500000D01*
X50074500Y-38480038D01*
X50019962Y-38425500D01*
X50000000Y-38351000D01*
X50000000Y-32500000D01*
X47149000Y-32500000D01*
X47074500Y-32480038D01*
X47019962Y-32425500D01*
X47000000Y-32351000D01*
X47000000Y-31149000D01*
X47019962Y-31074500D01*
X47074500Y-31019962D01*
X47149000Y-31000000D01*
X50351000Y-31000000D01*
X50425500Y-31019962D01*
G37*
%TD.AperFunction*%
%TD*%
%TA.AperFunction,Conductor*%
%TO.N,GND*%
G36*
X38183394Y-38519962D02*
G01*
X38237932Y-38574500D01*
X38257327Y-38636014D01*
X38264487Y-38717855D01*
X38305251Y-38869991D01*
X38321087Y-38929090D01*
X38413508Y-39127287D01*
X38538942Y-39306425D01*
X38693576Y-39461059D01*
X38872714Y-39586493D01*
X39070911Y-39678914D01*
X39282147Y-39735514D01*
X39479112Y-39752746D01*
X39500000Y-39754574D01*
X39500001Y-39754574D01*
X39500002Y-39754574D01*
X39519062Y-39752906D01*
X39717855Y-39735514D01*
X39929091Y-39678914D01*
X40127288Y-39586493D01*
X40306426Y-39461059D01*
X40461060Y-39306425D01*
X40586494Y-39127287D01*
X40678915Y-38929090D01*
X40707077Y-38823986D01*
X40745641Y-38757192D01*
X40812436Y-38718628D01*
X40889564Y-38718628D01*
X40956359Y-38757192D01*
X40994923Y-38823987D01*
X41000000Y-38862551D01*
X41000000Y-43500000D01*
X43353737Y-43500000D01*
X43428237Y-43519962D01*
X43482775Y-43574500D01*
X43502711Y-43646239D01*
X43540268Y-45672568D01*
X43540269Y-45672569D01*
X44299422Y-45664226D01*
X44374134Y-45683368D01*
X44429268Y-45737303D01*
X44450048Y-45811580D01*
X44450057Y-45813426D01*
X44440506Y-52623082D01*
X44420439Y-52697554D01*
X44365825Y-52752015D01*
X44291297Y-52771873D01*
X44272209Y-52770618D01*
X42200271Y-52500000D01*
X42200269Y-52500000D01*
X40649000Y-52500000D01*
X40574500Y-52480038D01*
X40519962Y-52425500D01*
X40500000Y-52351000D01*
X40500000Y-50149000D01*
X40519962Y-50074500D01*
X40574500Y-50019962D01*
X40649000Y-50000000D01*
X42860269Y-50000000D01*
X42860269Y-44500000D01*
X39649000Y-44500000D01*
X39574500Y-44480038D01*
X39519962Y-44425500D01*
X39500000Y-44351000D01*
X39500000Y-41500000D01*
X36000000Y-41500000D01*
X36105401Y-44991349D01*
X36087696Y-45066417D01*
X36034829Y-45122576D01*
X35960965Y-45144777D01*
X35949169Y-45144666D01*
X33141700Y-45006950D01*
X33068267Y-44983362D01*
X33016467Y-44926217D01*
X33000000Y-44858129D01*
X33000000Y-38649000D01*
X33019962Y-38574500D01*
X33074500Y-38519962D01*
X33149000Y-38500000D01*
X38108894Y-38500000D01*
X38183394Y-38519962D01*
G37*
%TD.AperFunction*%
%TD*%
%TA.AperFunction,Conductor*%
%TO.N,GND*%
G36*
X84925500Y-40519962D02*
G01*
X84980038Y-40574500D01*
X85000000Y-40649000D01*
X85000000Y-49417913D01*
X84980038Y-49492413D01*
X84956359Y-49523272D01*
X84954991Y-49524639D01*
X84836207Y-49669378D01*
X84836205Y-49669381D01*
X84747951Y-49834494D01*
X84747949Y-49834499D01*
X84693597Y-50013671D01*
X84676430Y-50187963D01*
X84649262Y-50260148D01*
X84589641Y-50309077D01*
X84571404Y-50315941D01*
X84514843Y-50333099D01*
X84349726Y-50421356D01*
X84349723Y-50421358D01*
X84349721Y-50421359D01*
X84349720Y-50421360D01*
X84290901Y-50469632D01*
X84204988Y-50540139D01*
X84086207Y-50684874D01*
X84086205Y-50684877D01*
X83997951Y-50849990D01*
X83997949Y-50849995D01*
X83943598Y-51029162D01*
X83925246Y-51215496D01*
X83943598Y-51401829D01*
X83970022Y-51488934D01*
X83997949Y-51580997D01*
X84086209Y-51746121D01*
X84204988Y-51890853D01*
X84349720Y-52009632D01*
X84514844Y-52097892D01*
X84694014Y-52152243D01*
X84865608Y-52169143D01*
X84937789Y-52196311D01*
X84986718Y-52255931D01*
X85000000Y-52317425D01*
X85000000Y-53000000D01*
X90351000Y-53000000D01*
X90425500Y-53019962D01*
X90480038Y-53074500D01*
X90500000Y-53149000D01*
X90500000Y-56022889D01*
X90480038Y-56097389D01*
X90425500Y-56151927D01*
X90351000Y-56171889D01*
X90298931Y-56162495D01*
X90124372Y-56097389D01*
X90064664Y-56075119D01*
X90064661Y-56075118D01*
X90064658Y-56075117D01*
X89784974Y-56014276D01*
X89784958Y-56014274D01*
X89499473Y-55993856D01*
X89499463Y-55993856D01*
X89213977Y-56014274D01*
X89213961Y-56014276D01*
X88934277Y-56075117D01*
X88666081Y-56175148D01*
X88414866Y-56312322D01*
X88185725Y-56483855D01*
X87983323Y-56686257D01*
X87811790Y-56915398D01*
X87674616Y-57166613D01*
X87574585Y-57434809D01*
X87513744Y-57714493D01*
X87513742Y-57714509D01*
X87493324Y-57999994D01*
X87493324Y-58000005D01*
X87513742Y-58285490D01*
X87513744Y-58285506D01*
X87574585Y-58565190D01*
X87674616Y-58833386D01*
X87811790Y-59084601D01*
X87983323Y-59313742D01*
X88185725Y-59516144D01*
X88414866Y-59687677D01*
X88474475Y-59720226D01*
X88530295Y-59773450D01*
X88552025Y-59847454D01*
X88533841Y-59922408D01*
X88480617Y-59978228D01*
X88406613Y-59999958D01*
X88403067Y-60000000D01*
X77649000Y-60000000D01*
X77574500Y-59980038D01*
X77519962Y-59925500D01*
X77500000Y-59851000D01*
X77500000Y-41500000D01*
X75649000Y-41500000D01*
X75574500Y-41480038D01*
X75519962Y-41425500D01*
X75500000Y-41351000D01*
X75500000Y-40649000D01*
X75519962Y-40574500D01*
X75574500Y-40519962D01*
X75649000Y-40500000D01*
X84851000Y-40500000D01*
X84925500Y-40519962D01*
G37*
%TD.AperFunction*%
%TD*%
%TA.AperFunction,Conductor*%
%TO.N,Net-(J2-Pin_2)*%
G36*
X45057690Y-54440191D02*
G01*
X45103873Y-54492621D01*
X45115424Y-54549429D01*
X45054124Y-56283324D01*
X45032083Y-56349626D01*
X44977695Y-56393487D01*
X44933287Y-56402905D01*
X42768351Y-56456804D01*
X42700843Y-56438794D01*
X42653788Y-56387145D01*
X42641271Y-56331614D01*
X42658794Y-54561777D01*
X42679141Y-54494936D01*
X42732396Y-54449706D01*
X42781775Y-54439009D01*
X44990496Y-54421052D01*
X45057690Y-54440191D01*
G37*
%TD.AperFunction*%
%TD*%
M02*
