%TF.GenerationSoftware,KiCad,Pcbnew,8.0.3*%
%TF.CreationDate,2025-09-25T14:22:09+05:30*%
%TF.ProjectId,reciever-,72656369-6576-4657-922d-2e6b69636164,rev?*%
%TF.SameCoordinates,Original*%
%TF.FileFunction,Copper,L1,Top*%
%TF.FilePolarity,Positive*%
%FSLAX46Y46*%
G04 Gerber Fmt 4.6, Leading zero omitted, Abs format (unit mm)*
G04 Created by KiCad (PCBNEW 8.0.3) date 2025-09-25 14:22:09*
%MOMM*%
%LPD*%
G01*
G04 APERTURE LIST*
G04 Aperture macros list*
%AMRoundRect*
0 Rectangle with rounded corners*
0 $1 Rounding radius*
0 $2 $3 $4 $5 $6 $7 $8 $9 X,Y pos of 4 corners*
0 Add a 4 corners polygon primitive as box body*
4,1,4,$2,$3,$4,$5,$6,$7,$8,$9,$2,$3,0*
0 Add four circle primitives for the rounded corners*
1,1,$1+$1,$2,$3*
1,1,$1+$1,$4,$5*
1,1,$1+$1,$6,$7*
1,1,$1+$1,$8,$9*
0 Add four rect primitives between the rounded corners*
20,1,$1+$1,$2,$3,$4,$5,0*
20,1,$1+$1,$4,$5,$6,$7,0*
20,1,$1+$1,$6,$7,$8,$9,0*
20,1,$1+$1,$8,$9,$2,$3,0*%
G04 Aperture macros list end*
%TA.AperFunction,Conductor*%
%ADD10C,0.100000*%
%TD*%
%TA.AperFunction,ComponentPad*%
%ADD11O,1.700000X1.700000*%
%TD*%
%TA.AperFunction,ComponentPad*%
%ADD12R,1.700000X1.700000*%
%TD*%
%TA.AperFunction,SMDPad,CuDef*%
%ADD13RoundRect,0.237500X0.237500X-0.300000X0.237500X0.300000X-0.237500X0.300000X-0.237500X-0.300000X0*%
%TD*%
%TA.AperFunction,ComponentPad*%
%ADD14O,1.900000X3.200000*%
%TD*%
%TA.AperFunction,SMDPad,CuDef*%
%ADD15RoundRect,0.237500X-0.237500X0.300000X-0.237500X-0.300000X0.237500X-0.300000X0.237500X0.300000X0*%
%TD*%
%TA.AperFunction,SMDPad,CuDef*%
%ADD16RoundRect,0.237500X0.300000X0.237500X-0.300000X0.237500X-0.300000X-0.237500X0.300000X-0.237500X0*%
%TD*%
%TA.AperFunction,ComponentPad*%
%ADD17C,7.000000*%
%TD*%
%TA.AperFunction,SMDPad,CuDef*%
%ADD18RoundRect,0.250000X0.450000X-0.350000X0.450000X0.350000X-0.450000X0.350000X-0.450000X-0.350000X0*%
%TD*%
%TA.AperFunction,SMDPad,CuDef*%
%ADD19R,1.500000X2.000000*%
%TD*%
%TA.AperFunction,SMDPad,CuDef*%
%ADD20RoundRect,0.237500X-0.300000X-0.237500X0.300000X-0.237500X0.300000X0.237500X-0.300000X0.237500X0*%
%TD*%
%TA.AperFunction,SMDPad,CuDef*%
%ADD21RoundRect,0.250000X-0.850000X-0.350000X0.850000X-0.350000X0.850000X0.350000X-0.850000X0.350000X0*%
%TD*%
%TA.AperFunction,SMDPad,CuDef*%
%ADD22RoundRect,0.250000X-1.275000X-1.125000X1.275000X-1.125000X1.275000X1.125000X-1.275000X1.125000X0*%
%TD*%
%TA.AperFunction,SMDPad,CuDef*%
%ADD23RoundRect,0.249997X-2.950003X-2.650003X2.950003X-2.650003X2.950003X2.650003X-2.950003X2.650003X0*%
%TD*%
%TA.AperFunction,SMDPad,CuDef*%
%ADD24RoundRect,0.250000X-0.475000X0.337500X-0.475000X-0.337500X0.475000X-0.337500X0.475000X0.337500X0*%
%TD*%
%TA.AperFunction,SMDPad,CuDef*%
%ADD25R,0.812800X1.498600*%
%TD*%
%TA.AperFunction,SMDPad,CuDef*%
%ADD26R,1.498600X0.812800*%
%TD*%
%TA.AperFunction,SMDPad,CuDef*%
%ADD27R,0.889000X0.889000*%
%TD*%
%TA.AperFunction,SMDPad,CuDef*%
%ADD28R,1.100000X1.050000*%
%TD*%
%TA.AperFunction,SMDPad,CuDef*%
%ADD29R,2.250000X1.100000*%
%TD*%
%TA.AperFunction,SMDPad,CuDef*%
%ADD30RoundRect,0.250000X-0.450000X0.350000X-0.450000X-0.350000X0.450000X-0.350000X0.450000X0.350000X0*%
%TD*%
%TA.AperFunction,SMDPad,CuDef*%
%ADD31RoundRect,0.250000X0.475000X-0.337500X0.475000X0.337500X-0.475000X0.337500X-0.475000X-0.337500X0*%
%TD*%
%TA.AperFunction,SMDPad,CuDef*%
%ADD32RoundRect,0.250000X0.450000X-0.325000X0.450000X0.325000X-0.450000X0.325000X-0.450000X-0.325000X0*%
%TD*%
%TA.AperFunction,ComponentPad*%
%ADD33C,2.000000*%
%TD*%
%TA.AperFunction,ComponentPad*%
%ADD34R,3.000000X3.000000*%
%TD*%
%TA.AperFunction,ComponentPad*%
%ADD35C,3.000000*%
%TD*%
%TA.AperFunction,ComponentPad*%
%ADD36R,1.600000X1.500000*%
%TD*%
%TA.AperFunction,ComponentPad*%
%ADD37C,1.600000*%
%TD*%
%TA.AperFunction,ViaPad*%
%ADD38C,0.900000*%
%TD*%
%TA.AperFunction,Conductor*%
%ADD39C,0.300000*%
%TD*%
%TA.AperFunction,Conductor*%
%ADD40C,0.400000*%
%TD*%
%TA.AperFunction,Conductor*%
%ADD41C,0.200000*%
%TD*%
%TA.AperFunction,Conductor*%
%ADD42C,0.500000*%
%TD*%
G04 APERTURE END LIST*
D10*
%TO.N,+3.3V*%
X91092244Y-76556870D02*
G75*
G02*
X90092016Y-76556870I-500114J0D01*
G01*
X90092016Y-76556870D02*
G75*
G02*
X91092244Y-76556870I500114J0D01*
G01*
%TO.N,GND*%
X91092244Y-84176870D02*
G75*
G02*
X90092016Y-84176870I-500114J0D01*
G01*
X90092016Y-84176870D02*
G75*
G02*
X91092244Y-84176870I500114J0D01*
G01*
%TD*%
D11*
%TO.P,J5,4,Pin_4*%
%TO.N,GND*%
X90592130Y-84186870D03*
%TO.P,J5,3,Pin_3*%
%TO.N,Net-(J5-Pin_3)*%
X90592130Y-81646870D03*
%TO.P,J5,2,Pin_2*%
%TO.N,Net-(J5-Pin_2)*%
X90592130Y-79106870D03*
D12*
%TO.P,J5,1,Pin_1*%
%TO.N,+3.3V*%
X90592130Y-76566870D03*
%TD*%
D13*
%TO.P,C4,1*%
%TO.N,GND*%
X51151869Y-117773131D03*
%TO.P,C4,2*%
%TO.N,Net-(C4-Pad2)*%
X51151869Y-116048131D03*
%TD*%
D14*
%TO.P,SW6,1,1*%
%TO.N,GND*%
X105601869Y-152023131D03*
X105601869Y-139523131D03*
%TO.P,SW6,2,2*%
%TO.N,IO6*%
X110601869Y-152023131D03*
X110601869Y-139523131D03*
%TD*%
D15*
%TO.P,C8,1*%
%TO.N,+3.3V*%
X74151869Y-121185631D03*
%TO.P,C8,2*%
%TO.N,GND*%
X74151869Y-122910631D03*
%TD*%
D16*
%TO.P,C11,1*%
%TO.N,GND*%
X176362500Y-136000000D03*
%TO.P,C11,2*%
%TO.N,IO18*%
X174637500Y-136000000D03*
%TD*%
D17*
%TO.P,,1*%
%TO.N,N/C*%
X53101869Y-157973131D03*
%TD*%
%TO.P,H3,1*%
%TO.N,N/C*%
X165712884Y-126361532D03*
%TD*%
D14*
%TO.P,SW7,1,1*%
%TO.N,GND*%
X64151869Y-139623131D03*
X64151869Y-152123131D03*
%TO.P,SW7,2,2*%
%TO.N,IO4*%
X59151869Y-139623131D03*
X59151869Y-152123131D03*
%TD*%
%TO.P,SW2,1,1*%
%TO.N,GND*%
X87476869Y-139598131D03*
X87476869Y-152098131D03*
%TO.P,SW2,2,2*%
%TO.N,IO5*%
X82476869Y-139598131D03*
X82476869Y-152098131D03*
%TD*%
D17*
%TO.P,H4,1*%
%TO.N,N/C*%
X165711363Y-71362057D03*
%TD*%
%TO.P,,1*%
%TO.N,N/C*%
X184576869Y-52023131D03*
%TD*%
D18*
%TO.P,R2,1*%
%TO.N,Net-(C4-Pad2)*%
X63651869Y-117135631D03*
%TO.P,R2,2*%
%TO.N,Net-(U1-EN)*%
X63651869Y-115135631D03*
%TD*%
D19*
%TO.P,U2,16,DIO2*%
%TO.N,unconnected-(U2-DIO2-Pad16)*%
X72872130Y-87036870D03*
%TO.P,U2,15,DIO1*%
%TO.N,unconnected-(U2-DIO1-Pad15)*%
X70872130Y-87036870D03*
%TO.P,U2,14,DIO0*%
%TO.N,Net-(U1-IO47)*%
X68872130Y-87036870D03*
%TO.P,U2,13,3.3V*%
%TO.N,+3.3V*%
X66872130Y-87036870D03*
%TO.P,U2,12,DIO4*%
%TO.N,unconnected-(U2-DIO4-Pad12)*%
X64872130Y-87036870D03*
%TO.P,U2,11,DIO3*%
%TO.N,unconnected-(U2-DIO3-Pad11)*%
X62872130Y-87036870D03*
%TO.P,U2,10,GND*%
%TO.N,GND*%
X60872130Y-87036870D03*
%TO.P,U2,9,ANT*%
%TO.N,Net-(J2-SIG)*%
X58872130Y-87036870D03*
%TO.P,U2,8,GND*%
%TO.N,GND*%
X58872130Y-71036870D03*
%TO.P,U2,7,DIO5*%
%TO.N,unconnected-(U2-DIO5-Pad7)*%
X60872130Y-71036870D03*
%TO.P,U2,6,RESET*%
%TO.N,Net-(U1-IO16)*%
X62872130Y-71036870D03*
%TO.P,U2,5,NSS*%
%TO.N,Net-(U1-IO39)*%
X64872130Y-71036870D03*
%TO.P,U2,4,SCK*%
%TO.N,Net-(U1-IO36)*%
X66872130Y-71036870D03*
%TO.P,U2,3,MOSI*%
%TO.N,Net-(U1-IO35)*%
X68872130Y-71036870D03*
%TO.P,U2,2,MISO*%
%TO.N,Net-(U1-IO37)*%
X70872130Y-71036870D03*
%TO.P,U2,1,GND*%
%TO.N,GND*%
X72872130Y-71036870D03*
%TD*%
D20*
%TO.P,C13,1*%
%TO.N,GND*%
X109151869Y-136048131D03*
%TO.P,C13,2*%
%TO.N,IO6*%
X110876869Y-136048131D03*
%TD*%
D17*
%TO.P,H2,1*%
%TO.N,N/C*%
X83712884Y-126861532D03*
%TD*%
D14*
%TO.P,SW3,1,1*%
%TO.N,GND*%
X133601869Y-139523131D03*
X133601869Y-152023131D03*
%TO.P,SW3,2,2*%
%TO.N,IO7*%
X128601869Y-139523131D03*
X128601869Y-152023131D03*
%TD*%
D21*
%TO.P,U3,1,GND*%
%TO.N,GND*%
X66651869Y-125768131D03*
%TO.P,U3,2,VO*%
%TO.N,+3.3V*%
X66651869Y-128048131D03*
D22*
X71276869Y-126523131D03*
X71276869Y-129573131D03*
D23*
X72951869Y-128048131D03*
D22*
X74626869Y-126523131D03*
X74626869Y-129573131D03*
D21*
%TO.P,U3,3,VI*%
%TO.N,+5V*%
X66651869Y-130328131D03*
%TD*%
D18*
%TO.P,R3,1*%
%TO.N,+3.3V*%
X61500000Y-125000000D03*
%TO.P,R3,2*%
%TO.N,Net-(D1-A)*%
X61500000Y-123000000D03*
%TD*%
D20*
%TO.P,C12,1*%
%TO.N,GND*%
X153789369Y-136048131D03*
%TO.P,C12,2*%
%TO.N,IO17*%
X155514369Y-136048131D03*
%TD*%
D24*
%TO.P,C7,1*%
%TO.N,+3.3V*%
X76651869Y-121010631D03*
%TO.P,C7,2*%
%TO.N,GND*%
X76651869Y-123085631D03*
%TD*%
D25*
%TO.P,U1,1,GND*%
%TO.N,GND*%
X59240000Y-110750000D03*
%TO.P,U1,2,3V3*%
%TO.N,+3.3V*%
X60510000Y-110750000D03*
%TO.P,U1,3,EN*%
%TO.N,Net-(U1-EN)*%
X61780000Y-110750000D03*
%TO.P,U1,4,IO4*%
%TO.N,IO4*%
X63050000Y-110750000D03*
%TO.P,U1,5,IO5*%
%TO.N,IO5*%
X64320000Y-110750000D03*
%TO.P,U1,6,IO6*%
%TO.N,IO6*%
X65590000Y-110750000D03*
%TO.P,U1,7,IO7*%
%TO.N,IO7*%
X66860000Y-110750000D03*
%TO.P,U1,8,IO15*%
%TO.N,unconnected-(U1-IO15-Pad8)*%
X68130000Y-110750000D03*
%TO.P,U1,9,IO16*%
%TO.N,Net-(U1-IO16)*%
X69400000Y-110750000D03*
%TO.P,U1,10,IO17*%
%TO.N,IO17*%
X70670000Y-110750000D03*
%TO.P,U1,11,IO18*%
%TO.N,IO18*%
X71940000Y-110750000D03*
%TO.P,U1,12,IO8*%
%TO.N,unconnected-(U1-IO8-Pad12)*%
X73210000Y-110750000D03*
%TO.P,U1,13,IO19*%
%TO.N,D-*%
X74480000Y-110750000D03*
%TO.P,U1,14,IO20*%
%TO.N,D+*%
X75750000Y-110750000D03*
D26*
%TO.P,U1,15,IO3*%
%TO.N,unconnected-(U1-IO3-Pad15)*%
X77000000Y-108985000D03*
%TO.P,U1,16,IO46*%
%TO.N,unconnected-(U1-IO46-Pad16)*%
X77000000Y-107715000D03*
%TO.P,U1,17,IO9*%
%TO.N,BUZZER*%
X77000000Y-106445000D03*
%TO.P,U1,18,IO10*%
%TO.N,FLASHER*%
X77000000Y-105175000D03*
%TO.P,U1,19,IO11*%
%TO.N,Net-(J5-Pin_2)*%
X77000000Y-103905000D03*
%TO.P,U1,20,IO12*%
%TO.N,Net-(J5-Pin_3)*%
X77000000Y-102635000D03*
%TO.P,U1,21,IO13*%
%TO.N,unconnected-(U1-IO13-Pad21)*%
X77000000Y-101365000D03*
%TO.P,U1,22,IO14*%
%TO.N,unconnected-(U1-IO14-Pad22)*%
X77000000Y-100095000D03*
%TO.P,U1,23,IO21*%
%TO.N,unconnected-(U1-IO21-Pad23)*%
X77000000Y-98825000D03*
%TO.P,U1,24,IO47*%
%TO.N,Net-(U1-IO47)*%
X77000000Y-97555000D03*
%TO.P,U1,25,IO48*%
%TO.N,unconnected-(U1-IO48-Pad25)*%
X77000000Y-96285000D03*
%TO.P,U1,26,IO45*%
%TO.N,unconnected-(U1-IO45-Pad26)*%
X77000000Y-95015000D03*
D25*
%TO.P,U1,27,IO0*%
%TO.N,Net-(J4-Pin_2)*%
X75750000Y-93250000D03*
%TO.P,U1,28,IO35*%
%TO.N,Net-(U1-IO35)*%
X74480000Y-93250000D03*
%TO.P,U1,29,IO36*%
%TO.N,Net-(U1-IO36)*%
X73210000Y-93250000D03*
%TO.P,U1,30,IO37*%
%TO.N,Net-(U1-IO37)*%
X71940000Y-93250000D03*
%TO.P,U1,31,IO38*%
%TO.N,unconnected-(U1-IO38-Pad31)*%
X70670000Y-93250000D03*
%TO.P,U1,32,IO39*%
%TO.N,Net-(U1-IO39)*%
X69400000Y-93250000D03*
%TO.P,U1,33,IO40*%
%TO.N,unconnected-(U1-IO40-Pad33)*%
X68130000Y-93250000D03*
%TO.P,U1,34,IO41*%
%TO.N,unconnected-(U1-IO41-Pad34)*%
X66860000Y-93250000D03*
%TO.P,U1,35,IO42*%
%TO.N,unconnected-(U1-IO42-Pad35)*%
X65590000Y-93250000D03*
%TO.P,U1,36,RXD0*%
%TO.N,Net-(J8-Pin_2)*%
X64320000Y-93250000D03*
%TO.P,U1,37,TXD0*%
%TO.N,Net-(J8-Pin_3)*%
X63050000Y-93250000D03*
%TO.P,U1,38,IO2*%
%TO.N,unconnected-(U1-IO2-Pad38)*%
X61780000Y-93250000D03*
%TO.P,U1,39,IO1*%
%TO.N,unconnected-(U1-IO1-Pad39)*%
X60510000Y-93250000D03*
%TO.P,U1,40,GND*%
%TO.N,GND*%
X59240000Y-93250000D03*
D27*
%TO.P,U1,41,GND*%
X66960000Y-103500000D03*
%TO.P,U1,42*%
%TO.N,N/C*%
X65560000Y-104900000D03*
%TO.P,U1,43*%
X66960000Y-104900000D03*
%TO.P,U1,44*%
X68360000Y-104900000D03*
%TO.P,U1,45*%
X68360000Y-103500000D03*
%TO.P,U1,46,GND*%
%TO.N,GND*%
X68360000Y-102100000D03*
%TO.P,U1,47,GND*%
X66960000Y-102100000D03*
%TO.P,U1,48,GND*%
X65560000Y-102100000D03*
%TO.P,U1,49,GND*%
X65560000Y-103500000D03*
%TD*%
D17*
%TO.P,H1,1*%
%TO.N,N/C*%
X83712884Y-71861532D03*
%TD*%
%TO.P,,1*%
%TO.N,N/C*%
X52834775Y-52066549D03*
%TD*%
D28*
%TO.P,J2,3,SIG*%
%TO.N,Net-(J2-SIG)*%
X53401869Y-73898131D03*
D29*
%TO.P,J2,2,GND*%
%TO.N,GND*%
X51851869Y-72423131D03*
%TO.P,J2,1,GND*%
X51851869Y-75373131D03*
%TD*%
D14*
%TO.P,SW5,1,1*%
%TO.N,GND*%
X151501869Y-151998131D03*
X151501869Y-139498131D03*
%TO.P,SW5,2,2*%
%TO.N,IO17*%
X156501869Y-151998131D03*
X156501869Y-139498131D03*
%TD*%
D16*
%TO.P,C10,1*%
%TO.N,GND*%
X130500000Y-135923131D03*
%TO.P,C10,2*%
%TO.N,IO7*%
X128775000Y-135923131D03*
%TD*%
D30*
%TO.P,R1,1*%
%TO.N,+3.3V*%
X66651869Y-119048131D03*
%TO.P,R1,2*%
%TO.N,Net-(U1-EN)*%
X66651869Y-121048131D03*
%TD*%
D14*
%TO.P,SW4,2,2*%
%TO.N,IO18*%
X174376869Y-151998131D03*
X174376869Y-139498131D03*
%TO.P,SW4,1,1*%
%TO.N,GND*%
X179376869Y-151998131D03*
X179376869Y-139498131D03*
%TD*%
D31*
%TO.P,C5,1*%
%TO.N,+5V*%
X60001869Y-129310631D03*
%TO.P,C5,2*%
%TO.N,GND*%
X60001869Y-127235631D03*
%TD*%
D13*
%TO.P,C6,1*%
%TO.N,+5V*%
X63382130Y-129139370D03*
%TO.P,C6,2*%
%TO.N,GND*%
X63382130Y-127414370D03*
%TD*%
D16*
%TO.P,C9,1*%
%TO.N,GND*%
X86976869Y-136548131D03*
%TO.P,C9,2*%
%TO.N,IO5*%
X85251869Y-136548131D03*
%TD*%
D11*
%TO.P,J4,2,Pin_2*%
%TO.N,Net-(J4-Pin_2)*%
X78462130Y-87736870D03*
D12*
%TO.P,J4,1,Pin_1*%
%TO.N,GND*%
X78462130Y-85196870D03*
%TD*%
D17*
%TO.P,,1*%
%TO.N,N/C*%
X184526869Y-157898131D03*
%TD*%
D16*
%TO.P,C14,1*%
%TO.N,GND*%
X63514369Y-136048131D03*
%TO.P,C14,2*%
%TO.N,IO4*%
X61789369Y-136048131D03*
%TD*%
D32*
%TO.P,D1,1,K*%
%TO.N,GND*%
X59151869Y-125073131D03*
%TO.P,D1,2,A*%
%TO.N,Net-(D1-A)*%
X59151869Y-123023131D03*
%TD*%
D15*
%TO.P,C2,1*%
%TO.N,+3.3V*%
X69151869Y-121185631D03*
%TO.P,C2,2*%
%TO.N,GND*%
X69151869Y-122910631D03*
%TD*%
D13*
%TO.P,C3,1*%
%TO.N,GND*%
X64500000Y-122362500D03*
%TO.P,C3,2*%
%TO.N,Net-(U1-EN)*%
X64500000Y-120637500D03*
%TD*%
D33*
%TO.P,SW1,1,1*%
%TO.N,GND*%
X60592130Y-119726870D03*
X54092130Y-119726870D03*
%TO.P,SW1,2,2*%
%TO.N,Net-(C4-Pad2)*%
X60592130Y-115226870D03*
X54092130Y-115226870D03*
%TD*%
D24*
%TO.P,C1,1*%
%TO.N,+3.3V*%
X71651869Y-121010631D03*
%TO.P,C1,2*%
%TO.N,GND*%
X71651869Y-123085631D03*
%TD*%
D34*
%TO.P,J6,1,Pin_1*%
%TO.N,GND*%
X121946869Y-52598131D03*
D35*
%TO.P,J6,2,Pin_2*%
%TO.N,BUZZER*%
X127026869Y-52598131D03*
%TD*%
D11*
%TO.P,J8,4,Pin_4*%
%TO.N,+3.3V*%
X53622130Y-89126870D03*
%TO.P,J8,3,Pin_3*%
%TO.N,Net-(J8-Pin_3)*%
X53622130Y-86586870D03*
%TO.P,J8,2,Pin_2*%
%TO.N,Net-(J8-Pin_2)*%
X53622130Y-84046870D03*
D12*
%TO.P,J8,1,Pin_1*%
%TO.N,GND*%
X53622130Y-81506870D03*
%TD*%
D36*
%TO.P,J1,1,VBUS*%
%TO.N,+5v*%
X143201869Y-61558131D03*
D37*
%TO.P,J1,2,D-*%
%TO.N,D-*%
X145701869Y-61558131D03*
%TO.P,J1,3,D+*%
%TO.N,D+*%
X147701869Y-61558131D03*
%TO.P,J1,4,GND*%
%TO.N,GND*%
X150201869Y-61558131D03*
D35*
%TO.P,J1,5*%
%TO.N,N/C*%
X140131869Y-58848131D03*
X153271869Y-58848131D03*
%TD*%
D34*
%TO.P,J3,1,Pin_1*%
%TO.N,GND*%
X53651869Y-127008131D03*
D35*
%TO.P,J3,2,Pin_2*%
%TO.N,+5V*%
X53651869Y-132088131D03*
%TD*%
%TO.P,J7,2,Pin_2*%
%TO.N,FLASHER*%
X113941869Y-52573131D03*
D34*
%TO.P,J7,1,Pin_1*%
%TO.N,GND*%
X108861869Y-52573131D03*
%TD*%
D38*
%TO.N,GND*%
X73500000Y-74000000D03*
X59000000Y-83000000D03*
%TO.N,+3.3V*%
X60537130Y-113136870D03*
X66296089Y-117048131D03*
%TO.N,D-*%
X145701869Y-104598131D03*
%TO.N,Net-(U1-IO16)*%
X70312130Y-114011870D03*
X63432130Y-67616870D03*
%TO.N,+5v*%
X64151869Y-132048131D03*
%TO.N,Net-(U1-IO47)*%
X80382130Y-94306870D03*
X68999865Y-90679135D03*
%TO.N,Net-(J8-Pin_2)*%
X57750000Y-90250000D03*
%TO.N,Net-(U1-IO36)*%
X73562130Y-90661870D03*
X67372130Y-68586870D03*
%TO.N,Net-(U1-IO37)*%
X71000000Y-73500000D03*
X71952130Y-89896870D03*
%TO.N,Net-(U1-IO39)*%
X65651869Y-84548131D03*
X67151869Y-91048131D03*
%TO.N,Net-(U1-IO35)*%
X75787130Y-69761870D03*
X79112130Y-79186870D03*
%TO.N,Net-(J8-Pin_3)*%
X62500000Y-91500000D03*
%TD*%
D39*
%TO.N,Net-(U1-IO35)*%
X74500000Y-93409000D02*
X74492130Y-93416870D01*
X74500000Y-91000000D02*
X74500000Y-93409000D01*
X76282130Y-83341870D02*
X76282130Y-89217870D01*
X76282130Y-89217870D02*
X74500000Y-91000000D01*
X79112130Y-80511870D02*
X76282130Y-83341870D01*
X79112130Y-79186870D02*
X79112130Y-80511870D01*
D40*
%TO.N,GND*%
X64151869Y-154848131D02*
X64151869Y-152123131D01*
X58000000Y-156500000D02*
X62500000Y-156500000D01*
X51000000Y-149500000D02*
X58000000Y-156500000D01*
X51000000Y-129660000D02*
X51000000Y-149500000D01*
X53651869Y-127008131D02*
X51000000Y-129660000D01*
X62500000Y-156500000D02*
X64151869Y-154848131D01*
%TO.N,D+*%
X136500000Y-110500000D02*
X76179000Y-110500000D01*
X76179000Y-110500000D02*
X75762130Y-110916870D01*
X147701869Y-99298131D02*
X136500000Y-110500000D01*
X147701869Y-61558131D02*
X147701869Y-99298131D01*
%TO.N,D-*%
X74492130Y-111946870D02*
X74492130Y-111546870D01*
X74832130Y-112286870D02*
X74492130Y-111946870D01*
X138113130Y-112286870D02*
X74832130Y-112286870D01*
X145701869Y-104698131D02*
X138113130Y-112286870D01*
X145701869Y-104598131D02*
X145701869Y-104698131D01*
D39*
%TO.N,Net-(J8-Pin_2)*%
X64332130Y-90832130D02*
X64332130Y-93416870D01*
X63750000Y-90250000D02*
X64332130Y-90832130D01*
X57750000Y-90250000D02*
X63750000Y-90250000D01*
%TO.N,+3.3V*%
X53749000Y-89000000D02*
X53622130Y-89126870D01*
X65359000Y-89000000D02*
X53749000Y-89000000D01*
X66872130Y-87486870D02*
X65359000Y-89000000D01*
%TO.N,GND*%
X72872130Y-73372130D02*
X73500000Y-74000000D01*
X72872130Y-71036870D02*
X72872130Y-73372130D01*
X60872130Y-84872130D02*
X59000000Y-83000000D01*
X60872130Y-87036870D02*
X60872130Y-84872130D01*
%TO.N,Net-(U1-IO37)*%
X70872130Y-73372130D02*
X70872130Y-71036870D01*
X71000000Y-73500000D02*
X70872130Y-73372130D01*
D41*
%TO.N,GND*%
X63227760Y-122362500D02*
X64500000Y-122362500D01*
X60592130Y-119726870D02*
X63227760Y-122362500D01*
D40*
%TO.N,+3.3V*%
X69751869Y-128048131D02*
X71276869Y-126523131D01*
X66651869Y-128048131D02*
X69751869Y-128048131D01*
X61651869Y-125048131D02*
X63548131Y-125048131D01*
X63548131Y-125048131D02*
X66548131Y-128048131D01*
D41*
%TO.N,GND*%
X65560000Y-100055700D02*
X65560000Y-102100000D01*
X59240000Y-93735700D02*
X65560000Y-100055700D01*
X59240000Y-93250000D02*
X59240000Y-93735700D01*
X65500000Y-103500000D02*
X65560000Y-103500000D01*
X59240000Y-109760000D02*
X65500000Y-103500000D01*
X59240000Y-110750000D02*
X59240000Y-109760000D01*
X64651869Y-123768131D02*
X66651869Y-125768131D01*
X64651869Y-122362500D02*
X64651869Y-123768131D01*
D39*
%TO.N,+3.3V*%
X69151869Y-121010631D02*
X71651869Y-121010631D01*
X67189369Y-119048131D02*
X69151869Y-121010631D01*
X66651869Y-119048131D02*
X67189369Y-119048131D01*
%TO.N,Net-(U1-EN)*%
X66603738Y-121000000D02*
X66651869Y-121048131D01*
X64503738Y-121000000D02*
X66603738Y-121000000D01*
X64151869Y-120648131D02*
X64503738Y-121000000D01*
X65151869Y-116635631D02*
X65151869Y-119648131D01*
X65151869Y-119648131D02*
X64151869Y-120648131D01*
X63651869Y-115135631D02*
X65151869Y-116635631D01*
D41*
%TO.N,+3.3V*%
X74151869Y-121108131D02*
X74141869Y-121098131D01*
D39*
X60522130Y-113121870D02*
X60522130Y-110916870D01*
D41*
X60537130Y-112721870D02*
X60537130Y-113136870D01*
D39*
X66872130Y-86385970D02*
X66872130Y-85735170D01*
X66296089Y-118692351D02*
X66651869Y-119048131D01*
X66651869Y-119048131D02*
X66651869Y-117403911D01*
X74151869Y-121010631D02*
X76651869Y-121010631D01*
X76040430Y-76566870D02*
X66872130Y-85735170D01*
X66651869Y-117403911D02*
X66296089Y-117048131D01*
D41*
X74161869Y-121098131D02*
X74151869Y-121108131D01*
D39*
X90592130Y-76566870D02*
X76040430Y-76566870D01*
D40*
X60537130Y-113136870D02*
X60522130Y-113121870D01*
D39*
X71651869Y-121010631D02*
X74151869Y-121010631D01*
D41*
%TO.N,GND*%
X67630830Y-103666870D02*
X67018330Y-103666870D01*
X74161869Y-122998131D02*
X74151869Y-123008131D01*
D39*
X53651869Y-120167131D02*
X54092130Y-119726870D01*
D41*
X60005608Y-127239370D02*
X60001869Y-127235631D01*
X66972130Y-103666870D02*
X65572130Y-103666870D01*
D40*
X54691869Y-127008131D02*
X56626869Y-125073131D01*
D41*
X68372130Y-105066870D02*
X66972130Y-105066870D01*
X66972130Y-102266870D02*
X66972130Y-102920670D01*
X67018330Y-103666870D02*
X66972130Y-103666870D01*
X59151869Y-125073131D02*
X59151869Y-126385631D01*
D40*
X53651869Y-127008131D02*
X53651869Y-120167131D01*
D41*
X67672130Y-102266870D02*
X67630830Y-102266870D01*
X54092130Y-119726870D02*
X60592130Y-119726870D01*
X59252130Y-111341470D02*
X59252130Y-110916870D01*
X67630830Y-102266870D02*
X67018330Y-102266870D01*
D39*
X51151869Y-117773131D02*
X52138391Y-117773131D01*
D41*
X71651869Y-123085631D02*
X69151869Y-123085631D01*
D42*
X105626869Y-139573131D02*
X105626869Y-152073131D01*
D41*
X69151869Y-123085631D02*
X69151869Y-123268131D01*
X66972130Y-105066870D02*
X66972130Y-104320670D01*
X76651869Y-123085631D02*
X74151869Y-123085631D01*
X67018330Y-102266870D02*
X66972130Y-102266870D01*
D40*
X56626869Y-125073131D02*
X59151869Y-125073131D01*
D41*
X66972130Y-103666870D02*
X66972130Y-104320670D01*
X71651869Y-123085631D02*
X74151869Y-123085631D01*
D39*
X52138391Y-117773131D02*
X54092130Y-119726870D01*
D41*
X67672130Y-103666870D02*
X67630830Y-103666870D01*
X66972130Y-103666870D02*
X66972130Y-102920670D01*
X66972130Y-102266870D02*
X65572130Y-102266870D01*
X53651869Y-127008131D02*
X54691869Y-127008131D01*
X63362130Y-127306870D02*
X63382130Y-127326870D01*
X59151869Y-126385631D02*
X60001869Y-127235631D01*
X68372130Y-102266870D02*
X67672130Y-102266870D01*
X69151869Y-123268131D02*
X66651869Y-125768131D01*
X63382130Y-127239370D02*
X60005608Y-127239370D01*
X65572130Y-105066870D02*
X66972130Y-105066870D01*
X68372130Y-103666870D02*
X67672130Y-103666870D01*
D39*
%TO.N,Net-(U1-EN)*%
X61792130Y-110916870D02*
X61792130Y-112688392D01*
X61792130Y-112688392D02*
X63651869Y-114548131D01*
D41*
X61792130Y-110916870D02*
X61802130Y-110926870D01*
D40*
X63651869Y-114548131D02*
X63651869Y-115135631D01*
D39*
%TO.N,Net-(C4-Pad2)*%
X60592130Y-115226870D02*
X61743108Y-115226870D01*
X53242130Y-115226870D02*
X54092130Y-115226870D01*
X61743108Y-115226870D02*
X63651869Y-117135631D01*
X53270869Y-116048131D02*
X54092130Y-115226870D01*
X51151869Y-116048131D02*
X53270869Y-116048131D01*
X60592130Y-115226870D02*
X54092130Y-115226870D01*
D40*
%TO.N,+5V*%
X60001869Y-129310631D02*
X63378391Y-129310631D01*
X56429369Y-129310631D02*
X60001869Y-129310631D01*
X63572130Y-129256870D02*
X63492130Y-129336870D01*
X66651869Y-130328131D02*
X64395891Y-130328131D01*
X63353391Y-129198131D02*
X63362130Y-129206870D01*
X53651869Y-132088131D02*
X56429369Y-129310631D01*
D41*
X63378391Y-129310631D02*
X63382130Y-129314370D01*
X63362130Y-129206870D02*
X63382130Y-129226870D01*
X63492130Y-129336870D02*
X63382130Y-129226870D01*
D40*
X64395891Y-130328131D02*
X63382130Y-129314370D01*
D41*
%TO.N,Net-(D1-A)*%
X61651869Y-123048131D02*
X59176869Y-123048131D01*
X59176869Y-123048131D02*
X59151869Y-123023131D01*
%TO.N,D-*%
X74492130Y-110916870D02*
X74492130Y-111546870D01*
D42*
%TO.N,BUZZER*%
X127111869Y-80388131D02*
X127026869Y-80303131D01*
X100888130Y-106611870D02*
X127111869Y-80388131D01*
X77012130Y-106611870D02*
X100888130Y-106611870D01*
X127026869Y-80303131D02*
X127026869Y-52598131D01*
%TO.N,FLASHER*%
X77012130Y-105341870D02*
X97259652Y-105341870D01*
D39*
X77157130Y-105196870D02*
X77012130Y-105341870D01*
D42*
X114071869Y-88529653D02*
X113966869Y-88424653D01*
X113966869Y-88424653D02*
X113966869Y-52523131D01*
X97259652Y-105341870D02*
X114071869Y-88529653D01*
D39*
%TO.N,Net-(U1-IO16)*%
X62872130Y-68176870D02*
X62872130Y-71036870D01*
D40*
X69372130Y-113071870D02*
X69372130Y-110956870D01*
X70312130Y-114011870D02*
X69372130Y-113071870D01*
D41*
X69372130Y-110956870D02*
X69412130Y-110916870D01*
D39*
X63432130Y-67616870D02*
X62872130Y-68176870D01*
D42*
%TO.N,Net-(J2-SIG)*%
X56126869Y-84291609D02*
X56126869Y-75223131D01*
X54801869Y-73898131D02*
X53401869Y-73898131D01*
X56126869Y-75223131D02*
X54801869Y-73898131D01*
X58872130Y-87036870D02*
X56126869Y-84291609D01*
D40*
%TO.N,IO5*%
X89576869Y-121023131D02*
X85410608Y-116856870D01*
X89576869Y-132103253D02*
X89576869Y-121023131D01*
X85410608Y-116856870D02*
X69221130Y-116856870D01*
X84844369Y-137048131D02*
X84844369Y-137230631D01*
X69221130Y-116856870D02*
X64332130Y-111967870D01*
X84844369Y-136835753D02*
X84844369Y-137048131D01*
D42*
X82476869Y-139598131D02*
X82476869Y-152098131D01*
D40*
X84844369Y-137230631D02*
X82476869Y-139598131D01*
X89576869Y-132103253D02*
X84844369Y-136835753D01*
X64332130Y-111967870D02*
X64332130Y-110916870D01*
X89576869Y-131548131D02*
X89576869Y-132103253D01*
X82626869Y-139598131D02*
X82476869Y-139598131D01*
%TO.N,IO7*%
X66872130Y-111967870D02*
X66872130Y-110916870D01*
X128559369Y-139480631D02*
X128559369Y-135074109D01*
D41*
X128601869Y-138206609D02*
X128601869Y-139523131D01*
D40*
X69881130Y-114976870D02*
X66872130Y-111967870D01*
D42*
X128601869Y-139548131D02*
X128601869Y-152048131D01*
D40*
X108462130Y-114976870D02*
X69881130Y-114976870D01*
X128559369Y-135074109D02*
X108462130Y-114976870D01*
X128601869Y-139523131D02*
X128559369Y-139480631D01*
%TO.N,IO18*%
X73372830Y-113286870D02*
X165090608Y-113286870D01*
X71952130Y-111866170D02*
X73372830Y-113286870D01*
X165090608Y-113286870D02*
X174326869Y-122523131D01*
X174326869Y-122523131D02*
X174326869Y-139448131D01*
X174326869Y-139448131D02*
X174376869Y-139498131D01*
X71952130Y-110916870D02*
X71952130Y-111866170D01*
D42*
X174401869Y-139548131D02*
X174401869Y-152048131D01*
D40*
%TO.N,IO17*%
X133441774Y-114136870D02*
X155353035Y-136048131D01*
X156501869Y-139498131D02*
X156501869Y-136860631D01*
D42*
X156476869Y-139120631D02*
X156476869Y-151998131D01*
D40*
X155353035Y-136048131D02*
X155689369Y-136048131D01*
X72952830Y-114136870D02*
X133441774Y-114136870D01*
X70682130Y-111866170D02*
X72952830Y-114136870D01*
X156501869Y-136860631D02*
X155689369Y-136048131D01*
X70682130Y-110916870D02*
X70682130Y-111866170D01*
%TO.N,IO6*%
X69643130Y-115977870D02*
X92281608Y-115977870D01*
X65602130Y-110916870D02*
X65602130Y-111936870D01*
X92281608Y-115977870D02*
X110601869Y-134298131D01*
X65602130Y-111936870D02*
X69643130Y-115977870D01*
D42*
X110626869Y-139548131D02*
X110626869Y-152048131D01*
D40*
X110601869Y-134298131D02*
X110601869Y-139523131D01*
%TO.N,IO4*%
X68942391Y-117848131D02*
X63062130Y-111967870D01*
X76151869Y-134048131D02*
X78826869Y-131373131D01*
X59151869Y-139623131D02*
X61614369Y-137160631D01*
X63614369Y-134048131D02*
X76151869Y-134048131D01*
D42*
X59151869Y-139623131D02*
X59151869Y-152123131D01*
D40*
X63062130Y-111967870D02*
X63062130Y-110916870D01*
X61614369Y-136048131D02*
X63614369Y-134048131D01*
X77751869Y-117848131D02*
X68942391Y-117848131D01*
X78826869Y-118923131D02*
X77751869Y-117848131D01*
X78826869Y-131373131D02*
X78826869Y-118923131D01*
X61614369Y-137160631D02*
X61614369Y-136048131D01*
X59151869Y-139623131D02*
X59151869Y-139165631D01*
D41*
%TO.N,+5v*%
X143201869Y-61558131D02*
X143141869Y-61558131D01*
D39*
%TO.N,Net-(U1-IO47)*%
X80382130Y-94306870D02*
X80382130Y-96946870D01*
D41*
X68869866Y-90549136D02*
X68999865Y-90679135D01*
X68999865Y-90679135D02*
X68872130Y-90551400D01*
D39*
X79607130Y-97721870D02*
X77012130Y-97721870D01*
X68872130Y-90551400D02*
X68872130Y-87036870D01*
X80382130Y-96946870D02*
X79607130Y-97721870D01*
D41*
%TO.N,unconnected-(U1-IO48-Pad25)*%
X77077130Y-96386870D02*
X77012130Y-96451870D01*
D39*
%TO.N,Net-(J4-Pin_2)*%
X78462130Y-88276870D02*
X78462130Y-87736870D01*
%TO.N,Net-(U1-IO36)*%
X67372130Y-68586870D02*
X66872130Y-69086870D01*
X66872130Y-69086870D02*
X66872130Y-71036870D01*
%TO.N,Net-(U1-IO39)*%
X64872130Y-83768392D02*
X65651869Y-84548131D01*
X64872130Y-71036870D02*
X64872130Y-83768392D01*
%TO.N,Net-(U1-IO35)*%
X68872130Y-69735170D02*
X68872130Y-71036870D01*
X75787130Y-69761870D02*
X75787130Y-69361870D01*
X75487130Y-69061870D02*
X69545430Y-69061870D01*
X69545430Y-69061870D02*
X68872130Y-69735170D01*
X75787130Y-69361870D02*
X75487130Y-69061870D01*
D42*
%TO.N,Net-(J5-Pin_2)*%
X82208430Y-104071870D02*
X77012130Y-104071870D01*
X94462130Y-82336870D02*
X94462130Y-91818170D01*
X91232130Y-79106870D02*
X94462130Y-82336870D01*
X94462130Y-91818170D02*
X82208430Y-104071870D01*
X90592130Y-79106870D02*
X91232130Y-79106870D01*
%TO.N,Net-(J5-Pin_3)*%
X92987130Y-83261870D02*
X92987130Y-90886870D01*
X91372130Y-81646870D02*
X92987130Y-83261870D01*
X90592130Y-81646870D02*
X91372130Y-81646870D01*
X92987130Y-90886870D02*
X81072130Y-102801870D01*
X81072130Y-102801870D02*
X77012130Y-102801870D01*
D39*
%TO.N,Net-(J4-Pin_2)*%
X75762130Y-90976870D02*
X78462130Y-88276870D01*
%TO.N,Net-(U1-IO39)*%
X67151869Y-91048131D02*
X67992691Y-91048131D01*
%TO.N,Net-(J4-Pin_2)*%
X75762130Y-93416870D02*
X75762130Y-90976870D01*
%TO.N,Net-(U1-IO36)*%
X73562130Y-90661870D02*
X73222130Y-91001870D01*
X73222130Y-91001870D02*
X73222130Y-93416870D01*
%TO.N,Net-(U1-IO37)*%
X71952130Y-89896870D02*
X71952130Y-93416870D01*
%TO.N,Net-(U1-IO39)*%
X69412130Y-92467570D02*
X69412130Y-93416870D01*
X67992691Y-91048131D02*
X69412130Y-92467570D01*
D41*
%TO.N,Net-(J8-Pin_3)*%
X63050000Y-92050000D02*
X63050000Y-93250000D01*
X62500000Y-91500000D02*
X63050000Y-92050000D01*
%TD*%
%TA.AperFunction,Conductor*%
%TO.N,+3.3V*%
G36*
X68872407Y-118548631D02*
G01*
X68873397Y-118548631D01*
X68873398Y-118548631D01*
X76123597Y-118548631D01*
X76179051Y-118561722D01*
X78057823Y-119501108D01*
X78108982Y-119548695D01*
X78126369Y-119612017D01*
X78126369Y-130924131D01*
X78106684Y-130991170D01*
X78053880Y-131036925D01*
X78002369Y-131048131D01*
X76747716Y-131048131D01*
X76680677Y-131028446D01*
X76634922Y-130975642D01*
X76624978Y-130906484D01*
X76630010Y-130885127D01*
X76641374Y-130850829D01*
X76651868Y-130748119D01*
X76651869Y-130748106D01*
X76651869Y-129823131D01*
X71150869Y-129823131D01*
X71083830Y-129803446D01*
X71038075Y-129750642D01*
X71026869Y-129699131D01*
X71026869Y-129323131D01*
X71526869Y-129323131D01*
X74376869Y-129323131D01*
X74876869Y-129323131D01*
X76651868Y-129323131D01*
X76651868Y-128298131D01*
X74876869Y-128298131D01*
X74876869Y-129323131D01*
X74376869Y-129323131D01*
X74376869Y-128298131D01*
X72825869Y-128298131D01*
X72758830Y-128278446D01*
X72713075Y-128225642D01*
X72701869Y-128174131D01*
X72701869Y-127922131D01*
X72721554Y-127855092D01*
X72774358Y-127809337D01*
X72825869Y-127798131D01*
X74376869Y-127798131D01*
X74876869Y-127798131D01*
X76651868Y-127798131D01*
X76651868Y-127704244D01*
X76651869Y-127704223D01*
X76651869Y-126773131D01*
X74876869Y-126773131D01*
X74876869Y-127798131D01*
X74376869Y-127798131D01*
X74376869Y-126773131D01*
X71526869Y-126773131D01*
X71526869Y-129323131D01*
X71026869Y-129323131D01*
X71026869Y-126397131D01*
X71046554Y-126330092D01*
X71099358Y-126284337D01*
X71150869Y-126273131D01*
X76651868Y-126273131D01*
X76651868Y-125348159D01*
X76651867Y-125348144D01*
X76642017Y-125251720D01*
X76641845Y-125248350D01*
X76641373Y-125245428D01*
X76630010Y-125211134D01*
X76627609Y-125141306D01*
X76663341Y-125081264D01*
X76725861Y-125050072D01*
X76747716Y-125048131D01*
X77651869Y-125048131D01*
X77651869Y-124010861D01*
X77671554Y-123943822D01*
X77688188Y-123923180D01*
X77719581Y-123891787D01*
X77811683Y-123742465D01*
X77866868Y-123575928D01*
X77877369Y-123473140D01*
X77877368Y-122698123D01*
X77866868Y-122595334D01*
X77811683Y-122428797D01*
X77719581Y-122279475D01*
X77688188Y-122248082D01*
X77654703Y-122186759D01*
X77651869Y-122160401D01*
X77651869Y-121935154D01*
X77671554Y-121868115D01*
X77688188Y-121847473D01*
X77719184Y-121816476D01*
X77811225Y-121667255D01*
X77811227Y-121667250D01*
X77866374Y-121500828D01*
X77866375Y-121500821D01*
X77876868Y-121398117D01*
X77876869Y-121398104D01*
X77876869Y-121260631D01*
X77651869Y-121260631D01*
X77651869Y-121048131D01*
X75383869Y-121048131D01*
X75250868Y-121048131D01*
X75183829Y-121028446D01*
X75138074Y-120975642D01*
X75126868Y-120924131D01*
X75126868Y-120836491D01*
X75126867Y-120836476D01*
X75116549Y-120735478D01*
X75079326Y-120623144D01*
X75426869Y-120623144D01*
X75426869Y-120760631D01*
X76401869Y-120760631D01*
X76901869Y-120760631D01*
X77876868Y-120760631D01*
X77876868Y-120623159D01*
X77876867Y-120623144D01*
X77866374Y-120520433D01*
X77811227Y-120354011D01*
X77811225Y-120354006D01*
X77719184Y-120204785D01*
X77595214Y-120080815D01*
X77445993Y-119988774D01*
X77445988Y-119988772D01*
X77279566Y-119933625D01*
X77279559Y-119933624D01*
X77176855Y-119923131D01*
X76901869Y-119923131D01*
X76901869Y-120760631D01*
X76401869Y-120760631D01*
X76401869Y-119923131D01*
X76126898Y-119923131D01*
X76126881Y-119923132D01*
X76024171Y-119933625D01*
X75857749Y-119988772D01*
X75857744Y-119988774D01*
X75708523Y-120080815D01*
X75584553Y-120204785D01*
X75492512Y-120354006D01*
X75492510Y-120354011D01*
X75437363Y-120520433D01*
X75437362Y-120520440D01*
X75426869Y-120623144D01*
X75079326Y-120623144D01*
X75062322Y-120571830D01*
X75062317Y-120571819D01*
X74971816Y-120425096D01*
X74971813Y-120425092D01*
X74849907Y-120303186D01*
X74849903Y-120303183D01*
X74703180Y-120212682D01*
X74703169Y-120212677D01*
X74539521Y-120158450D01*
X74438523Y-120148131D01*
X74401869Y-120148131D01*
X74401869Y-121048131D01*
X73901869Y-121048131D01*
X73901869Y-120148131D01*
X73865230Y-120148131D01*
X73865212Y-120148132D01*
X73764216Y-120158450D01*
X73600568Y-120212677D01*
X73600557Y-120212682D01*
X73453834Y-120303183D01*
X73453830Y-120303186D01*
X73331924Y-120425092D01*
X73331921Y-120425096D01*
X73241420Y-120571819D01*
X73241415Y-120571830D01*
X73187188Y-120735478D01*
X73176869Y-120836476D01*
X73176869Y-120924131D01*
X73157184Y-120991170D01*
X73104380Y-121036925D01*
X73052869Y-121048131D01*
X72919869Y-121048131D01*
X70383869Y-121048131D01*
X70250868Y-121048131D01*
X70183829Y-121028446D01*
X70138074Y-120975642D01*
X70126868Y-120924131D01*
X70126868Y-120836491D01*
X70126867Y-120836476D01*
X70116549Y-120735478D01*
X70079326Y-120623144D01*
X70426869Y-120623144D01*
X70426869Y-120760631D01*
X71401869Y-120760631D01*
X71901869Y-120760631D01*
X72876868Y-120760631D01*
X72876868Y-120623159D01*
X72876867Y-120623144D01*
X72866374Y-120520433D01*
X72811227Y-120354011D01*
X72811225Y-120354006D01*
X72719184Y-120204785D01*
X72595214Y-120080815D01*
X72445993Y-119988774D01*
X72445988Y-119988772D01*
X72279566Y-119933625D01*
X72279559Y-119933624D01*
X72176855Y-119923131D01*
X71901869Y-119923131D01*
X71901869Y-120760631D01*
X71401869Y-120760631D01*
X71401869Y-119923131D01*
X71126898Y-119923131D01*
X71126881Y-119923132D01*
X71024171Y-119933625D01*
X70857749Y-119988772D01*
X70857744Y-119988774D01*
X70708523Y-120080815D01*
X70584553Y-120204785D01*
X70492512Y-120354006D01*
X70492510Y-120354011D01*
X70437363Y-120520433D01*
X70437362Y-120520440D01*
X70426869Y-120623144D01*
X70079326Y-120623144D01*
X70062322Y-120571830D01*
X70062317Y-120571819D01*
X69971816Y-120425096D01*
X69971813Y-120425092D01*
X69849907Y-120303186D01*
X69849903Y-120303183D01*
X69703180Y-120212682D01*
X69703169Y-120212677D01*
X69539521Y-120158450D01*
X69438523Y-120148131D01*
X69401869Y-120148131D01*
X69401869Y-121048131D01*
X68901869Y-121048131D01*
X68901869Y-120148131D01*
X68865230Y-120148131D01*
X68865212Y-120148132D01*
X68764216Y-120158450D01*
X68600568Y-120212677D01*
X68600557Y-120212682D01*
X68453834Y-120303183D01*
X68453830Y-120303186D01*
X68363550Y-120393467D01*
X68302227Y-120426952D01*
X68232535Y-120421968D01*
X68176602Y-120380096D01*
X68152185Y-120314632D01*
X68151869Y-120305786D01*
X68151869Y-118672131D01*
X68171554Y-118605092D01*
X68224358Y-118559337D01*
X68275869Y-118548131D01*
X68862229Y-118548131D01*
X68872407Y-118548631D01*
G37*
%TD.AperFunction*%
%TD*%
%TA.AperFunction,Conductor*%
%TO.N,+5v*%
G36*
X68594908Y-129567816D02*
G01*
X68640663Y-129620620D01*
X68651869Y-129672131D01*
X68651869Y-132424131D01*
X68632184Y-132491170D01*
X68579380Y-132536925D01*
X68527869Y-132548131D01*
X58275869Y-132548131D01*
X58208830Y-132528446D01*
X58163075Y-132475642D01*
X58151869Y-132424131D01*
X58151869Y-130135131D01*
X58171554Y-130068092D01*
X58224358Y-130022337D01*
X58275869Y-130011131D01*
X58799781Y-130011131D01*
X58866820Y-130030816D01*
X58905318Y-130070032D01*
X58934157Y-130116787D01*
X59058213Y-130240843D01*
X59207535Y-130332945D01*
X59374072Y-130388130D01*
X59476860Y-130398631D01*
X60526877Y-130398630D01*
X60526885Y-130398629D01*
X60526888Y-130398629D01*
X60583171Y-130392879D01*
X60629666Y-130388130D01*
X60796203Y-130332945D01*
X60945525Y-130240843D01*
X61069581Y-130116787D01*
X61098418Y-130070033D01*
X61150366Y-130023310D01*
X61203957Y-130011131D01*
X62630652Y-130011131D01*
X62695747Y-130029591D01*
X62830614Y-130112778D01*
X62994377Y-130167044D01*
X63095453Y-130177370D01*
X63203110Y-130177369D01*
X63270149Y-130197053D01*
X63290791Y-130213688D01*
X63949344Y-130872242D01*
X63949345Y-130872243D01*
X64064083Y-130948908D01*
X64181305Y-130997462D01*
X64191563Y-131001711D01*
X64191567Y-131001711D01*
X64191568Y-131001712D01*
X64326894Y-131028631D01*
X64326897Y-131028631D01*
X64326898Y-131028631D01*
X65067071Y-131028631D01*
X65134110Y-131048316D01*
X65172608Y-131087532D01*
X65209157Y-131146787D01*
X65333213Y-131270843D01*
X65482535Y-131362945D01*
X65649072Y-131418130D01*
X65751860Y-131428631D01*
X67551877Y-131428630D01*
X67654666Y-131418130D01*
X67821203Y-131362945D01*
X67970525Y-131270843D01*
X68094581Y-131146787D01*
X68186683Y-130997465D01*
X68241868Y-130830928D01*
X68252369Y-130728140D01*
X68252368Y-129928123D01*
X68241868Y-129825334D01*
X68204025Y-129711134D01*
X68201624Y-129641307D01*
X68237356Y-129581265D01*
X68299876Y-129550072D01*
X68321732Y-129548131D01*
X68527869Y-129548131D01*
X68594908Y-129567816D01*
G37*
%TD.AperFunction*%
%TD*%
%TA.AperFunction,Conductor*%
%TO.N,GND*%
G36*
X59443039Y-110019685D02*
G01*
X59488794Y-110072489D01*
X59500000Y-110124000D01*
X59500000Y-112876000D01*
X59480315Y-112943039D01*
X59427511Y-112988794D01*
X59376000Y-113000000D01*
X50000000Y-113000000D01*
X50000000Y-117500000D01*
X61376000Y-117500000D01*
X61443039Y-117519685D01*
X61488794Y-117572489D01*
X61500000Y-117624000D01*
X61500000Y-120376000D01*
X61480315Y-120443039D01*
X61427511Y-120488794D01*
X61376000Y-120500000D01*
X49624000Y-120500000D01*
X49556961Y-120480315D01*
X49511206Y-120427511D01*
X49500000Y-120376000D01*
X49500000Y-112624000D01*
X49519685Y-112556961D01*
X49572489Y-112511206D01*
X49624000Y-112500000D01*
X58500000Y-112500000D01*
X58500000Y-112493976D01*
X58519685Y-112426937D01*
X58572489Y-112381182D01*
X58591901Y-112374202D01*
X58670055Y-112353262D01*
X58784183Y-112287370D01*
X58877369Y-112194184D01*
X58943261Y-112080056D01*
X58977369Y-111952762D01*
X58977369Y-110124000D01*
X58997054Y-110056961D01*
X59049858Y-110011206D01*
X59101369Y-110000000D01*
X59376000Y-110000000D01*
X59443039Y-110019685D01*
G37*
%TD.AperFunction*%
%TD*%
%TA.AperFunction,Conductor*%
%TO.N,GND*%
G36*
X188000000Y-155322246D02*
G01*
X187980315Y-155389285D01*
X187927511Y-155435040D01*
X187858353Y-155444984D01*
X187794797Y-155415959D01*
X187776402Y-155396113D01*
X187771338Y-155389285D01*
X187700421Y-155293664D01*
X187562641Y-155141647D01*
X187429857Y-154995142D01*
X187131341Y-154724583D01*
X186908857Y-154559578D01*
X186807732Y-154484578D01*
X186807729Y-154484576D01*
X186462165Y-154277453D01*
X186097955Y-154105194D01*
X186097935Y-154105186D01*
X185718627Y-153969468D01*
X185718621Y-153969466D01*
X185718617Y-153969465D01*
X185524742Y-153920901D01*
X185327808Y-153871572D01*
X185327803Y-153871571D01*
X185327802Y-153871571D01*
X185180059Y-153849655D01*
X184929281Y-153812456D01*
X184929279Y-153812455D01*
X184929273Y-153812455D01*
X184526869Y-153792686D01*
X184124465Y-153812455D01*
X184124459Y-153812455D01*
X184124456Y-153812456D01*
X183725929Y-153871572D01*
X183489536Y-153930786D01*
X183335121Y-153969465D01*
X183335118Y-153969465D01*
X183335110Y-153969468D01*
X182955802Y-154105186D01*
X182955782Y-154105194D01*
X182591572Y-154277453D01*
X182246008Y-154484576D01*
X181922396Y-154724583D01*
X181623880Y-154995142D01*
X181353321Y-155293658D01*
X181113314Y-155617270D01*
X180906191Y-155962834D01*
X180733932Y-156327044D01*
X180733924Y-156327064D01*
X180598206Y-156706372D01*
X180598203Y-156706380D01*
X180598203Y-156706383D01*
X180574209Y-156802170D01*
X180500310Y-157097191D01*
X180500309Y-157097198D01*
X180441193Y-157495727D01*
X180421424Y-157898131D01*
X180441193Y-158300535D01*
X180441193Y-158300541D01*
X180441194Y-158300543D01*
X180500310Y-158699070D01*
X180598206Y-159089889D01*
X180733924Y-159469197D01*
X180733932Y-159469217D01*
X180906191Y-159833427D01*
X181113314Y-160178991D01*
X181113316Y-160178994D01*
X181332118Y-160474015D01*
X181353321Y-160502603D01*
X181623880Y-160801119D01*
X181922396Y-161071678D01*
X181922402Y-161071683D01*
X182023528Y-161146683D01*
X182198434Y-161276402D01*
X182240554Y-161332149D01*
X182245850Y-161401817D01*
X182212639Y-161463289D01*
X182151465Y-161497047D01*
X182124567Y-161500000D01*
X55605296Y-161500000D01*
X55538257Y-161480315D01*
X55492502Y-161427511D01*
X55482558Y-161358353D01*
X55511583Y-161294797D01*
X55531424Y-161276406D01*
X55706336Y-161146683D01*
X56004857Y-160876119D01*
X56275421Y-160577598D01*
X56515422Y-160253994D01*
X56722548Y-159908424D01*
X56894806Y-159544217D01*
X57030535Y-159164879D01*
X57128429Y-158774064D01*
X57187545Y-158375535D01*
X57207314Y-157973131D01*
X57187545Y-157570727D01*
X57128429Y-157172198D01*
X57030535Y-156781383D01*
X56894806Y-156402045D01*
X56722548Y-156037838D01*
X56677592Y-155962834D01*
X56515423Y-155692270D01*
X56515306Y-155692112D01*
X56275421Y-155368664D01*
X56275416Y-155368658D01*
X56129145Y-155207273D01*
X56098709Y-155144381D01*
X56107107Y-155075018D01*
X56151673Y-155021206D01*
X56218257Y-155000031D01*
X56221023Y-155000000D01*
X63500000Y-155000000D01*
X63500000Y-136124000D01*
X63519685Y-136056961D01*
X63572489Y-136011206D01*
X63624000Y-136000000D01*
X66376000Y-136000000D01*
X66443039Y-136019685D01*
X66488794Y-136072489D01*
X66500000Y-136124000D01*
X66500000Y-136500000D01*
X71376000Y-136500000D01*
X71443039Y-136519685D01*
X71488794Y-136572489D01*
X71500000Y-136624000D01*
X71500000Y-156500000D01*
X87000000Y-156500000D01*
X87000000Y-135863561D01*
X87019685Y-135796522D01*
X87036319Y-135775880D01*
X87775880Y-135036319D01*
X87837203Y-135002834D01*
X87863561Y-135000000D01*
X108876000Y-135000000D01*
X108943039Y-135019685D01*
X108988794Y-135072489D01*
X109000000Y-135124000D01*
X109000000Y-136876000D01*
X108980315Y-136943039D01*
X108927511Y-136988794D01*
X108876000Y-137000000D01*
X105500000Y-137000000D01*
X105500000Y-157500000D01*
X133500000Y-157500000D01*
X133500000Y-137000000D01*
X130624000Y-137000000D01*
X130556961Y-136980315D01*
X130511206Y-136927511D01*
X130500000Y-136876000D01*
X130500000Y-133124000D01*
X130519685Y-133056961D01*
X130572489Y-133011206D01*
X130624000Y-133000000D01*
X151121464Y-133000000D01*
X151188503Y-133019685D01*
X151209145Y-133036319D01*
X153963681Y-135790855D01*
X153997166Y-135852178D01*
X154000000Y-135878536D01*
X154000000Y-157000000D01*
X179500000Y-157000000D01*
X179500000Y-137500000D01*
X176624000Y-137500000D01*
X176556961Y-137480315D01*
X176511206Y-137427511D01*
X176500000Y-137376000D01*
X176500000Y-78500000D01*
X188000000Y-78500000D01*
X188000000Y-155322246D01*
G37*
%TD.AperFunction*%
%TD*%
%TA.AperFunction,Conductor*%
%TO.N,GND*%
G36*
X84943039Y-77337055D02*
G01*
X84988794Y-77389859D01*
X85000000Y-77441370D01*
X85000000Y-83000000D01*
X90045764Y-83000000D01*
X90086027Y-83006719D01*
X90234829Y-83057803D01*
X90234831Y-83057803D01*
X90234833Y-83057804D01*
X90471938Y-83097370D01*
X90471939Y-83097370D01*
X90712321Y-83097370D01*
X90712322Y-83097370D01*
X90949427Y-83057804D01*
X91098233Y-83006718D01*
X91138496Y-83000000D01*
X91471109Y-83000000D01*
X91538148Y-83019685D01*
X91558790Y-83036319D01*
X91963681Y-83441210D01*
X91997166Y-83502533D01*
X92000000Y-83528891D01*
X92000000Y-85376000D01*
X91980315Y-85443039D01*
X91927511Y-85488794D01*
X91876000Y-85500000D01*
X77156630Y-85500000D01*
X77089591Y-85480315D01*
X77043836Y-85427511D01*
X77032630Y-85376000D01*
X77032630Y-83704099D01*
X77052315Y-83637060D01*
X77068949Y-83616418D01*
X79695078Y-80990289D01*
X79695081Y-80990286D01*
X79777214Y-80867365D01*
X79833788Y-80730783D01*
X79862630Y-80585788D01*
X79862630Y-80437953D01*
X79862630Y-79972663D01*
X79882315Y-79905624D01*
X79890772Y-79894003D01*
X79989815Y-79773320D01*
X80087362Y-79590824D01*
X80147430Y-79392804D01*
X80167713Y-79186870D01*
X80147430Y-78980936D01*
X80087362Y-78782916D01*
X79989815Y-78600420D01*
X79891248Y-78480315D01*
X79858540Y-78440459D01*
X79698582Y-78309187D01*
X79698583Y-78309187D01*
X79698580Y-78309185D01*
X79516084Y-78211638D01*
X79318064Y-78151570D01*
X79318062Y-78151569D01*
X79318064Y-78151569D01*
X79112130Y-78131287D01*
X78906197Y-78151569D01*
X78708173Y-78211639D01*
X78598028Y-78270513D01*
X78525680Y-78309185D01*
X78525678Y-78309186D01*
X78525677Y-78309187D01*
X78365719Y-78440459D01*
X78234447Y-78600417D01*
X78234445Y-78600420D01*
X78195773Y-78672768D01*
X78136899Y-78782913D01*
X78076829Y-78980937D01*
X78056547Y-79186870D01*
X78076829Y-79392802D01*
X78136899Y-79590826D01*
X78234447Y-79773323D01*
X78280716Y-79829701D01*
X78333483Y-79893999D01*
X78360796Y-79958308D01*
X78361630Y-79972663D01*
X78361630Y-80149639D01*
X78341945Y-80216678D01*
X78325311Y-80237320D01*
X75699180Y-82863450D01*
X75699174Y-82863458D01*
X75649942Y-82937138D01*
X75649943Y-82937139D01*
X75617051Y-82986366D01*
X75617044Y-82986378D01*
X75560472Y-83122956D01*
X75560470Y-83122962D01*
X75531630Y-83267949D01*
X75531630Y-84376000D01*
X75511945Y-84443039D01*
X75459141Y-84488794D01*
X75407630Y-84500000D01*
X72624000Y-84500000D01*
X72556961Y-84480315D01*
X72511206Y-84427511D01*
X72500000Y-84376000D01*
X72500000Y-81220028D01*
X72519685Y-81152989D01*
X72536316Y-81132349D01*
X76314978Y-77353689D01*
X76376301Y-77320204D01*
X76402659Y-77317370D01*
X84876000Y-77317370D01*
X84943039Y-77337055D01*
G37*
%TD.AperFunction*%
%TA.AperFunction,Conductor*%
G36*
X182135440Y-48519685D02*
G01*
X182181195Y-48572489D01*
X182191139Y-48641647D01*
X182162114Y-48705203D01*
X182142268Y-48723597D01*
X182112313Y-48745814D01*
X181972396Y-48849583D01*
X181673880Y-49120142D01*
X181403321Y-49418658D01*
X181163314Y-49742270D01*
X180956191Y-50087834D01*
X180783932Y-50452044D01*
X180783924Y-50452064D01*
X180648206Y-50831372D01*
X180550310Y-51222191D01*
X180543869Y-51265616D01*
X180491193Y-51620727D01*
X180471424Y-52023131D01*
X180491193Y-52425535D01*
X180491193Y-52425541D01*
X180491194Y-52425543D01*
X180550310Y-52824070D01*
X180599639Y-53021004D01*
X180636000Y-53166163D01*
X180648206Y-53214889D01*
X180783924Y-53594197D01*
X180783932Y-53594217D01*
X180956191Y-53958427D01*
X181156838Y-54293186D01*
X181163316Y-54303994D01*
X181346096Y-54550445D01*
X181403321Y-54627603D01*
X181673880Y-54926119D01*
X181972396Y-55196678D01*
X181972402Y-55196683D01*
X182296006Y-55436684D01*
X182411196Y-55505726D01*
X182641572Y-55643808D01*
X182641575Y-55643809D01*
X182641576Y-55643810D01*
X183005783Y-55816068D01*
X183005797Y-55816073D01*
X183005802Y-55816075D01*
X183127128Y-55859486D01*
X183385121Y-55951797D01*
X183775936Y-56049691D01*
X184174465Y-56108807D01*
X184576869Y-56128576D01*
X184979273Y-56108807D01*
X185377802Y-56049691D01*
X185768617Y-55951797D01*
X186147955Y-55816068D01*
X186512162Y-55643810D01*
X186857732Y-55436684D01*
X187181336Y-55196683D01*
X187479857Y-54926119D01*
X187750421Y-54627598D01*
X187776403Y-54592565D01*
X187832147Y-54550445D01*
X187901816Y-54545149D01*
X187963288Y-54578359D01*
X187997047Y-54639532D01*
X188000000Y-54666432D01*
X188000000Y-78500000D01*
X149624000Y-78500000D01*
X149556961Y-78480315D01*
X149511206Y-78427511D01*
X149500000Y-78376000D01*
X149500000Y-71362057D01*
X161605918Y-71362057D01*
X161625687Y-71764461D01*
X161625687Y-71764467D01*
X161625688Y-71764469D01*
X161684804Y-72162996D01*
X161782700Y-72553815D01*
X161918418Y-72933123D01*
X161918426Y-72933143D01*
X162090685Y-73297353D01*
X162171748Y-73432598D01*
X162297810Y-73642920D01*
X162344544Y-73705934D01*
X162537815Y-73966529D01*
X162808374Y-74265045D01*
X163040280Y-74475232D01*
X163106896Y-74535609D01*
X163430500Y-74775610D01*
X163430502Y-74775611D01*
X163776066Y-74982734D01*
X163776069Y-74982735D01*
X163776070Y-74982736D01*
X164140277Y-75154994D01*
X164140291Y-75154999D01*
X164140296Y-75155001D01*
X164428083Y-75257972D01*
X164519615Y-75290723D01*
X164910430Y-75388617D01*
X165308959Y-75447733D01*
X165711363Y-75467502D01*
X166113767Y-75447733D01*
X166512296Y-75388617D01*
X166903111Y-75290723D01*
X167282449Y-75154994D01*
X167646656Y-74982736D01*
X167992226Y-74775610D01*
X168315830Y-74535609D01*
X168614351Y-74265045D01*
X168884915Y-73966524D01*
X169124916Y-73642920D01*
X169332042Y-73297350D01*
X169504300Y-72933143D01*
X169640029Y-72553805D01*
X169737923Y-72162990D01*
X169797039Y-71764461D01*
X169816808Y-71362057D01*
X169797039Y-70959653D01*
X169737923Y-70561124D01*
X169640029Y-70170309D01*
X169567571Y-69967802D01*
X169504307Y-69790990D01*
X169504305Y-69790985D01*
X169504300Y-69790971D01*
X169332042Y-69426764D01*
X169290776Y-69357916D01*
X169124917Y-69081196D01*
X169076164Y-69015460D01*
X168884915Y-68757590D01*
X168884910Y-68757584D01*
X168614351Y-68459068D01*
X168315835Y-68188509D01*
X168314299Y-68187370D01*
X167992226Y-67948504D01*
X167992223Y-67948502D01*
X167646659Y-67741379D01*
X167282449Y-67569120D01*
X167282429Y-67569112D01*
X166903121Y-67433394D01*
X166903115Y-67433392D01*
X166903111Y-67433391D01*
X166709236Y-67384827D01*
X166512302Y-67335498D01*
X166512297Y-67335497D01*
X166512296Y-67335497D01*
X166364553Y-67313581D01*
X166113775Y-67276382D01*
X166113773Y-67276381D01*
X166113767Y-67276381D01*
X165711363Y-67256612D01*
X165308959Y-67276381D01*
X165308953Y-67276381D01*
X165308950Y-67276382D01*
X164910423Y-67335498D01*
X164615402Y-67409397D01*
X164519615Y-67433391D01*
X164519612Y-67433391D01*
X164519604Y-67433394D01*
X164140296Y-67569112D01*
X164140276Y-67569120D01*
X163776066Y-67741379D01*
X163430502Y-67948502D01*
X163106890Y-68188509D01*
X162808374Y-68459068D01*
X162537815Y-68757584D01*
X162297808Y-69081196D01*
X162090685Y-69426760D01*
X161918426Y-69790970D01*
X161918418Y-69790990D01*
X161782700Y-70170298D01*
X161684804Y-70561117D01*
X161658700Y-70737100D01*
X161625687Y-70959653D01*
X161605918Y-71362057D01*
X149500000Y-71362057D01*
X149500000Y-58848131D01*
X151166461Y-58848131D01*
X151186070Y-59134811D01*
X151244535Y-59416165D01*
X151244536Y-59416168D01*
X151340763Y-59686924D01*
X151340762Y-59686924D01*
X151472967Y-59942066D01*
X151638681Y-60176831D01*
X151681882Y-60223087D01*
X151834816Y-60386839D01*
X152057722Y-60568186D01*
X152266221Y-60694978D01*
X152303251Y-60717496D01*
X152490106Y-60798657D01*
X152566811Y-60831975D01*
X152843511Y-60909502D01*
X153093789Y-60943902D01*
X153128190Y-60948631D01*
X153128191Y-60948631D01*
X153415548Y-60948631D01*
X153446239Y-60944412D01*
X153700227Y-60909502D01*
X153976927Y-60831975D01*
X154122440Y-60768770D01*
X154240486Y-60717496D01*
X154240489Y-60717494D01*
X154240494Y-60717492D01*
X154486016Y-60568186D01*
X154708922Y-60386839D01*
X154905058Y-60176829D01*
X155070770Y-59942067D01*
X155202973Y-59686928D01*
X155299203Y-59416163D01*
X155357667Y-59134817D01*
X155377277Y-58848131D01*
X155357667Y-58561445D01*
X155299203Y-58280099D01*
X155202974Y-58009337D01*
X155202975Y-58009337D01*
X155070770Y-57754195D01*
X154905056Y-57519430D01*
X154826423Y-57435236D01*
X154708922Y-57309423D01*
X154486016Y-57128076D01*
X154486015Y-57128075D01*
X154240486Y-56978765D01*
X153976932Y-56864289D01*
X153976930Y-56864288D01*
X153976927Y-56864287D01*
X153847447Y-56828008D01*
X153700233Y-56786761D01*
X153700228Y-56786760D01*
X153700227Y-56786760D01*
X153557887Y-56767195D01*
X153415548Y-56747631D01*
X153415547Y-56747631D01*
X153128191Y-56747631D01*
X153128190Y-56747631D01*
X152843511Y-56786760D01*
X152843504Y-56786761D01*
X152635730Y-56844976D01*
X152566811Y-56864287D01*
X152566808Y-56864287D01*
X152566805Y-56864289D01*
X152566804Y-56864289D01*
X152303251Y-56978765D01*
X152057722Y-57128075D01*
X151834819Y-57309420D01*
X151638681Y-57519430D01*
X151472967Y-57754195D01*
X151340763Y-58009337D01*
X151244536Y-58280093D01*
X151244535Y-58280096D01*
X151186070Y-58561450D01*
X151166461Y-58848131D01*
X149500000Y-58848131D01*
X149500000Y-50500000D01*
X127196265Y-50500000D01*
X127179380Y-50498845D01*
X127170547Y-50497631D01*
X126883191Y-50497631D01*
X126874357Y-50498845D01*
X126857473Y-50500000D01*
X123000000Y-50500000D01*
X123000000Y-64376000D01*
X122980315Y-64443039D01*
X122927511Y-64488794D01*
X122876000Y-64500000D01*
X117624000Y-64500000D01*
X117556961Y-64480315D01*
X117511206Y-64427511D01*
X117500000Y-64376000D01*
X117500000Y-50500000D01*
X114293150Y-50500000D01*
X114276265Y-50498845D01*
X114085548Y-50472631D01*
X114085547Y-50472631D01*
X113798191Y-50472631D01*
X113798190Y-50472631D01*
X113607473Y-50498845D01*
X113590588Y-50500000D01*
X109000000Y-50500000D01*
X109000000Y-63876000D01*
X108980315Y-63943039D01*
X108927511Y-63988794D01*
X108876000Y-64000000D01*
X85000000Y-64000000D01*
X85000000Y-67797863D01*
X84980315Y-67864902D01*
X84927511Y-67910657D01*
X84858353Y-67920601D01*
X84845870Y-67918147D01*
X84815968Y-67910657D01*
X84788279Y-67903721D01*
X84513823Y-67834973D01*
X84513818Y-67834972D01*
X84513817Y-67834972D01*
X84263648Y-67797863D01*
X84115296Y-67775857D01*
X84115294Y-67775856D01*
X84115288Y-67775856D01*
X83712884Y-67756087D01*
X83310480Y-67775856D01*
X83310474Y-67775856D01*
X83310471Y-67775857D01*
X82911944Y-67834973D01*
X82616923Y-67908872D01*
X82521136Y-67932866D01*
X82521133Y-67932866D01*
X82521125Y-67932869D01*
X82141817Y-68068587D01*
X82141797Y-68068595D01*
X81777587Y-68240854D01*
X81432023Y-68447977D01*
X81108411Y-68687984D01*
X80809895Y-68958543D01*
X80539336Y-69257059D01*
X80299329Y-69580671D01*
X80092206Y-69926235D01*
X79919947Y-70290445D01*
X79919939Y-70290465D01*
X79784221Y-70669773D01*
X79686325Y-71060592D01*
X79686324Y-71060599D01*
X79627208Y-71459128D01*
X79607439Y-71861532D01*
X79627208Y-72263936D01*
X79627208Y-72263942D01*
X79627209Y-72263944D01*
X79686325Y-72662471D01*
X79732947Y-72848595D01*
X79765941Y-72980315D01*
X79784221Y-73053290D01*
X79919939Y-73432598D01*
X79919947Y-73432618D01*
X80092206Y-73796828D01*
X80156415Y-73903954D01*
X80299331Y-74142395D01*
X80390294Y-74265045D01*
X80539336Y-74466004D01*
X80809895Y-74764520D01*
X81108411Y-75035079D01*
X81108417Y-75035084D01*
X81432021Y-75275085D01*
X81458105Y-75290719D01*
X81777587Y-75482209D01*
X81777590Y-75482210D01*
X81777591Y-75482211D01*
X81984931Y-75580276D01*
X82037117Y-75626733D01*
X82055902Y-75694030D01*
X82035322Y-75760800D01*
X81981910Y-75805844D01*
X81931913Y-75816370D01*
X75966510Y-75816370D01*
X75821522Y-75845210D01*
X75821512Y-75845213D01*
X75684941Y-75901782D01*
X75684928Y-75901789D01*
X75562014Y-75983918D01*
X75562010Y-75983921D01*
X72711681Y-78834251D01*
X72650358Y-78867736D01*
X72580666Y-78862752D01*
X72524733Y-78820880D01*
X72500316Y-78755416D01*
X72500000Y-78746570D01*
X72500000Y-69936370D01*
X72519685Y-69869331D01*
X72572489Y-69823576D01*
X72624000Y-69812370D01*
X74624134Y-69812370D01*
X74691173Y-69832055D01*
X74736928Y-69884859D01*
X74747537Y-69924216D01*
X74751829Y-69967802D01*
X74751830Y-69967804D01*
X74811898Y-70165824D01*
X74909445Y-70348320D01*
X74909447Y-70348322D01*
X75040719Y-70508280D01*
X75105102Y-70561117D01*
X75200680Y-70639555D01*
X75383176Y-70737102D01*
X75581196Y-70797170D01*
X75581195Y-70797170D01*
X75599659Y-70798988D01*
X75787130Y-70817453D01*
X75993064Y-70797170D01*
X76191084Y-70737102D01*
X76373580Y-70639555D01*
X76533540Y-70508280D01*
X76664815Y-70348320D01*
X76762362Y-70165824D01*
X76822430Y-69967804D01*
X76842713Y-69761870D01*
X76822430Y-69555936D01*
X76762362Y-69357916D01*
X76664815Y-69175420D01*
X76587486Y-69081194D01*
X76533540Y-69015459D01*
X76368873Y-68880322D01*
X76369008Y-68880157D01*
X76356603Y-68869975D01*
X75965551Y-68478922D01*
X75965550Y-68478921D01*
X75935837Y-68459068D01*
X75880040Y-68421786D01*
X75880039Y-68421785D01*
X75842630Y-68396789D01*
X75842618Y-68396782D01*
X75706047Y-68340213D01*
X75706037Y-68340210D01*
X75561050Y-68311370D01*
X75561048Y-68311370D01*
X72624000Y-68311370D01*
X72556961Y-68291685D01*
X72511206Y-68238881D01*
X72500000Y-68187370D01*
X72500000Y-65000000D01*
X59500000Y-65000000D01*
X59500000Y-72876000D01*
X59480315Y-72943039D01*
X59427511Y-72988794D01*
X59376000Y-73000000D01*
X56124000Y-73000000D01*
X56056961Y-72980315D01*
X56011206Y-72927511D01*
X56000000Y-72876000D01*
X56000000Y-71000000D01*
X52000000Y-71000000D01*
X52000000Y-72874131D01*
X51980315Y-72941170D01*
X51927511Y-72986925D01*
X51876000Y-72998131D01*
X50701869Y-72998131D01*
X50701869Y-74801195D01*
X51876000Y-74801195D01*
X51943039Y-74820880D01*
X51988794Y-74873684D01*
X52000000Y-74925195D01*
X52000000Y-80000000D01*
X54876000Y-80000000D01*
X54943039Y-80019685D01*
X54988794Y-80072489D01*
X55000000Y-80124000D01*
X55000000Y-81876000D01*
X54980315Y-81943039D01*
X54927511Y-81988794D01*
X54876000Y-82000000D01*
X53500000Y-82000000D01*
X51500000Y-82000000D01*
X50000000Y-82000000D01*
X50000000Y-80500000D01*
X49127097Y-80500000D01*
X49127097Y-54304771D01*
X49146782Y-54237732D01*
X49199586Y-54191977D01*
X49268744Y-54182033D01*
X49332300Y-54211058D01*
X49357452Y-54241019D01*
X49421222Y-54347412D01*
X49657823Y-54666432D01*
X49661227Y-54671021D01*
X49931786Y-54969537D01*
X50230302Y-55240096D01*
X50230308Y-55240101D01*
X50553912Y-55480102D01*
X50553914Y-55480103D01*
X50899478Y-55687226D01*
X50899481Y-55687227D01*
X50899482Y-55687228D01*
X51263689Y-55859486D01*
X51263703Y-55859491D01*
X51263708Y-55859493D01*
X51551495Y-55962464D01*
X51643027Y-55995215D01*
X52033842Y-56093109D01*
X52432371Y-56152225D01*
X52834775Y-56171994D01*
X53237179Y-56152225D01*
X53635708Y-56093109D01*
X54026523Y-55995215D01*
X54405861Y-55859486D01*
X54770068Y-55687228D01*
X55115638Y-55480102D01*
X55439242Y-55240101D01*
X55737763Y-54969537D01*
X56008327Y-54671016D01*
X56248328Y-54347412D01*
X56455454Y-54001842D01*
X56627712Y-53637635D01*
X56763441Y-53258297D01*
X56861335Y-52867482D01*
X56920451Y-52468953D01*
X56940220Y-52066549D01*
X56920451Y-51664145D01*
X56861335Y-51265616D01*
X56763441Y-50874801D01*
X56633543Y-50511760D01*
X56627719Y-50495482D01*
X56627717Y-50495477D01*
X56627712Y-50495463D01*
X56455454Y-50131256D01*
X56429430Y-50087838D01*
X56248329Y-49785688D01*
X56248328Y-49785686D01*
X56008327Y-49462082D01*
X56008322Y-49462076D01*
X55737763Y-49163560D01*
X55439247Y-48893001D01*
X55380705Y-48849583D01*
X55240787Y-48745812D01*
X55198668Y-48690068D01*
X55193372Y-48620399D01*
X55226583Y-48558927D01*
X55287757Y-48525169D01*
X55314627Y-48522216D01*
X179861589Y-48500000D01*
X182068401Y-48500000D01*
X182135440Y-48519685D01*
G37*
%TD.AperFunction*%
%TD*%
%TA.AperFunction,Conductor*%
%TO.N,GND*%
G36*
X50000000Y-91000000D02*
G01*
X56963596Y-91000000D01*
X57030635Y-91019685D01*
X57042260Y-91028146D01*
X57096902Y-91072989D01*
X57163550Y-91127685D01*
X57346046Y-91225232D01*
X57544066Y-91285300D01*
X57544065Y-91285300D01*
X57562529Y-91287118D01*
X57750000Y-91305583D01*
X57955934Y-91285300D01*
X58153954Y-91225232D01*
X58336450Y-91127685D01*
X58457129Y-91028647D01*
X58521439Y-91001334D01*
X58535794Y-91000500D01*
X59376000Y-91000500D01*
X59443039Y-91020185D01*
X59488794Y-91072989D01*
X59500000Y-91124500D01*
X59500000Y-92876000D01*
X59480315Y-92943039D01*
X59427511Y-92988794D01*
X59376000Y-93000000D01*
X59124000Y-93000000D01*
X59056961Y-92980315D01*
X59011206Y-92927511D01*
X59000000Y-92876000D01*
X59000000Y-92000000D01*
X58878869Y-92000000D01*
X58811830Y-91980315D01*
X58791188Y-91963681D01*
X58784185Y-91956678D01*
X58784183Y-91956676D01*
X58727119Y-91923730D01*
X58670056Y-91890784D01*
X58606408Y-91873730D01*
X58542761Y-91856676D01*
X58410977Y-91856676D01*
X58410976Y-91856676D01*
X49251097Y-91856677D01*
X49184058Y-91836992D01*
X49138303Y-91784188D01*
X49127097Y-91732677D01*
X49127097Y-80500000D01*
X50000000Y-80500000D01*
X50000000Y-91000000D01*
G37*
%TD.AperFunction*%
%TD*%
M02*
