%TF.GenerationSoftware,KiCad,Pcbnew,8.0.3*%
%TF.CreationDate,2025-09-25T14:22:10+05:30*%
%TF.ProjectId,reciever-,72656369-6576-4657-922d-2e6b69636164,rev?*%
%TF.SameCoordinates,Original*%
%TF.FileFunction,Copper,L2,Bot*%
%TF.FilePolarity,Positive*%
%FSLAX46Y46*%
G04 Gerber Fmt 4.6, Leading zero omitted, Abs format (unit mm)*
G04 Created by KiCad (PCBNEW 8.0.3) date 2025-09-25 14:22:10*
%MOMM*%
%LPD*%
G01*
G04 APERTURE LIST*
%TA.AperFunction,ComponentPad*%
%ADD10O,1.700000X1.700000*%
%TD*%
%TA.AperFunction,ComponentPad*%
%ADD11R,1.700000X1.700000*%
%TD*%
%TA.AperFunction,ComponentPad*%
%ADD12O,1.900000X3.200000*%
%TD*%
%TA.AperFunction,ComponentPad*%
%ADD13C,7.000000*%
%TD*%
%TA.AperFunction,ComponentPad*%
%ADD14C,2.000000*%
%TD*%
%TA.AperFunction,ComponentPad*%
%ADD15R,3.000000X3.000000*%
%TD*%
%TA.AperFunction,ComponentPad*%
%ADD16C,3.000000*%
%TD*%
%TA.AperFunction,ComponentPad*%
%ADD17R,1.600000X1.500000*%
%TD*%
%TA.AperFunction,ComponentPad*%
%ADD18C,1.600000*%
%TD*%
%TA.AperFunction,ViaPad*%
%ADD19C,0.900000*%
%TD*%
%TA.AperFunction,Conductor*%
%ADD20C,0.300000*%
%TD*%
%TA.AperFunction,Conductor*%
%ADD21C,0.200000*%
%TD*%
%TA.AperFunction,Conductor*%
%ADD22C,0.400000*%
%TD*%
G04 APERTURE END LIST*
D10*
%TO.P,J5,4,Pin_4*%
%TO.N,GND*%
X90592130Y-84186870D03*
%TO.P,J5,3,Pin_3*%
%TO.N,Net-(J5-Pin_3)*%
X90592130Y-81646870D03*
%TO.P,J5,2,Pin_2*%
%TO.N,Net-(J5-Pin_2)*%
X90592130Y-79106870D03*
D11*
%TO.P,J5,1,Pin_1*%
%TO.N,+3.3V*%
X90592130Y-76566870D03*
%TD*%
D12*
%TO.P,SW6,1,1*%
%TO.N,GND*%
X105601869Y-152023131D03*
X105601869Y-139523131D03*
%TO.P,SW6,2,2*%
%TO.N,IO6*%
X110601869Y-152023131D03*
X110601869Y-139523131D03*
%TD*%
D13*
%TO.P,,1*%
%TO.N,N/C*%
X53101869Y-157973131D03*
%TD*%
%TO.P,H3,1*%
%TO.N,N/C*%
X165712884Y-126361532D03*
%TD*%
D12*
%TO.P,SW7,1,1*%
%TO.N,GND*%
X64151869Y-139623131D03*
X64151869Y-152123131D03*
%TO.P,SW7,2,2*%
%TO.N,IO4*%
X59151869Y-139623131D03*
X59151869Y-152123131D03*
%TD*%
%TO.P,SW2,1,1*%
%TO.N,GND*%
X87476869Y-139598131D03*
X87476869Y-152098131D03*
%TO.P,SW2,2,2*%
%TO.N,IO5*%
X82476869Y-139598131D03*
X82476869Y-152098131D03*
%TD*%
D13*
%TO.P,H4,1*%
%TO.N,N/C*%
X165711363Y-71362057D03*
%TD*%
%TO.P,,1*%
%TO.N,N/C*%
X184576869Y-52023131D03*
%TD*%
%TO.P,H2,1*%
%TO.N,N/C*%
X83712884Y-126861532D03*
%TD*%
D12*
%TO.P,SW3,1,1*%
%TO.N,GND*%
X133601869Y-139523131D03*
X133601869Y-152023131D03*
%TO.P,SW3,2,2*%
%TO.N,IO7*%
X128601869Y-139523131D03*
X128601869Y-152023131D03*
%TD*%
D13*
%TO.P,H1,1*%
%TO.N,N/C*%
X83712884Y-71861532D03*
%TD*%
%TO.P,,1*%
%TO.N,N/C*%
X52834775Y-52066549D03*
%TD*%
D12*
%TO.P,SW5,1,1*%
%TO.N,GND*%
X151501869Y-151998131D03*
X151501869Y-139498131D03*
%TO.P,SW5,2,2*%
%TO.N,IO17*%
X156501869Y-151998131D03*
X156501869Y-139498131D03*
%TD*%
%TO.P,SW4,2,2*%
%TO.N,IO18*%
X174376869Y-151998131D03*
X174376869Y-139498131D03*
%TO.P,SW4,1,1*%
%TO.N,GND*%
X179376869Y-151998131D03*
X179376869Y-139498131D03*
%TD*%
D10*
%TO.P,J4,2,Pin_2*%
%TO.N,Net-(J4-Pin_2)*%
X78462130Y-87736870D03*
D11*
%TO.P,J4,1,Pin_1*%
%TO.N,GND*%
X78462130Y-85196870D03*
%TD*%
D13*
%TO.P,,1*%
%TO.N,N/C*%
X184526869Y-157898131D03*
%TD*%
D14*
%TO.P,SW1,1,1*%
%TO.N,GND*%
X60592130Y-119726870D03*
X54092130Y-119726870D03*
%TO.P,SW1,2,2*%
%TO.N,Net-(C4-Pad2)*%
X60592130Y-115226870D03*
X54092130Y-115226870D03*
%TD*%
D15*
%TO.P,J6,1,Pin_1*%
%TO.N,GND*%
X121946869Y-52598131D03*
D16*
%TO.P,J6,2,Pin_2*%
%TO.N,BUZZER*%
X127026869Y-52598131D03*
%TD*%
D10*
%TO.P,J8,4,Pin_4*%
%TO.N,+3.3V*%
X53622130Y-89126870D03*
%TO.P,J8,3,Pin_3*%
%TO.N,Net-(J8-Pin_3)*%
X53622130Y-86586870D03*
%TO.P,J8,2,Pin_2*%
%TO.N,Net-(J8-Pin_2)*%
X53622130Y-84046870D03*
D11*
%TO.P,J8,1,Pin_1*%
%TO.N,GND*%
X53622130Y-81506870D03*
%TD*%
D17*
%TO.P,J1,1,VBUS*%
%TO.N,+5v*%
X143201869Y-61558131D03*
D18*
%TO.P,J1,2,D-*%
%TO.N,D-*%
X145701869Y-61558131D03*
%TO.P,J1,3,D+*%
%TO.N,D+*%
X147701869Y-61558131D03*
%TO.P,J1,4,GND*%
%TO.N,GND*%
X150201869Y-61558131D03*
D16*
%TO.P,J1,5*%
%TO.N,N/C*%
X140131869Y-58848131D03*
X153271869Y-58848131D03*
%TD*%
D15*
%TO.P,J3,1,Pin_1*%
%TO.N,GND*%
X53651869Y-127008131D03*
D16*
%TO.P,J3,2,Pin_2*%
%TO.N,+5V*%
X53651869Y-132088131D03*
%TD*%
%TO.P,J7,2,Pin_2*%
%TO.N,FLASHER*%
X113941869Y-52573131D03*
D15*
%TO.P,J7,1,Pin_1*%
%TO.N,GND*%
X108861869Y-52573131D03*
%TD*%
D19*
%TO.N,GND*%
X73500000Y-74000000D03*
X59000000Y-83000000D03*
%TO.N,+3.3V*%
X60537130Y-113136870D03*
X66296089Y-117048131D03*
%TO.N,D-*%
X145701869Y-104598131D03*
%TO.N,Net-(U1-IO16)*%
X70312130Y-114011870D03*
X63432130Y-67616870D03*
%TO.N,+5v*%
X64151869Y-132048131D03*
%TO.N,Net-(U1-IO47)*%
X80382130Y-94306870D03*
X68999865Y-90679135D03*
%TO.N,Net-(J8-Pin_2)*%
X57750000Y-90250000D03*
%TO.N,Net-(U1-IO36)*%
X73562130Y-90661870D03*
X67372130Y-68586870D03*
%TO.N,Net-(U1-IO37)*%
X71000000Y-73500000D03*
X71952130Y-89896870D03*
%TO.N,Net-(U1-IO39)*%
X65651869Y-84548131D03*
X67151869Y-91048131D03*
%TO.N,Net-(U1-IO35)*%
X75787130Y-69761870D03*
X79112130Y-79186870D03*
%TO.N,Net-(J8-Pin_3)*%
X62500000Y-91500000D03*
%TD*%
D20*
%TO.N,Net-(J8-Pin_2)*%
X56000000Y-86424740D02*
X53622130Y-84046870D01*
X56000000Y-88500000D02*
X56000000Y-86424740D01*
X57750000Y-90250000D02*
X56000000Y-88500000D01*
%TO.N,GND*%
X78462130Y-82962130D02*
X78462130Y-85196870D01*
X76000000Y-80500000D02*
X78462130Y-82962130D01*
X76000000Y-76500000D02*
X76000000Y-80500000D01*
X73500000Y-74000000D02*
X76000000Y-76500000D01*
X57506870Y-81506870D02*
X53622130Y-81506870D01*
X59000000Y-83000000D02*
X57506870Y-81506870D01*
D21*
%TO.N,Net-(U1-IO37)*%
X71269000Y-73500000D02*
X71000000Y-73500000D01*
D20*
%TO.N,+5v*%
X143201869Y-100498131D02*
X143201869Y-61558131D01*
X115151869Y-128548131D02*
X143201869Y-100498131D01*
X90951869Y-128548131D02*
X115151869Y-128548131D01*
X84451869Y-135048131D02*
X90951869Y-128548131D01*
X67151869Y-135048131D02*
X84451869Y-135048131D01*
X64151869Y-132048131D02*
X67151869Y-135048131D01*
%TO.N,+3.3V*%
X71437130Y-113711870D02*
X80412130Y-113711870D01*
X93342130Y-76566870D02*
X90592130Y-76566870D01*
X80412130Y-113711870D02*
X96262130Y-97861870D01*
X66296089Y-117048131D02*
X66296089Y-117000829D01*
X62357130Y-113061870D02*
X60612130Y-113061870D01*
X66296089Y-117048131D02*
X66296089Y-115552911D01*
X69012130Y-112836870D02*
X70562130Y-112836870D01*
X66296089Y-117000829D02*
X62357130Y-113061870D01*
X96262130Y-97861870D02*
X96262130Y-79486870D01*
X70562130Y-112836870D02*
X71437130Y-113711870D01*
X96262130Y-79486870D02*
X93342130Y-76566870D01*
X60612130Y-113061870D02*
X60537130Y-113136870D01*
X66296089Y-115552911D02*
X69012130Y-112836870D01*
D21*
%TO.N,GND*%
X53622130Y-81770670D02*
X53622130Y-80906870D01*
D22*
%TO.N,D-*%
X145701869Y-104598131D02*
X145701869Y-61558131D01*
D21*
%TO.N,Net-(J5-Pin_3)*%
X90592130Y-81716870D02*
X90592130Y-81646870D01*
D20*
%TO.N,Net-(U1-IO16)*%
X64702130Y-66306870D02*
X63432130Y-67576870D01*
X80437130Y-115461870D02*
X97272130Y-98626870D01*
X97272130Y-98626870D02*
X97272130Y-74776870D01*
X97272130Y-74776870D02*
X88802130Y-66306870D01*
X88802130Y-66306870D02*
X64702130Y-66306870D01*
X63432130Y-67576870D02*
X63432130Y-67616870D01*
X71762130Y-115461870D02*
X80437130Y-115461870D01*
X70312130Y-114011870D02*
X71762130Y-115461870D01*
D21*
%TO.N,Net-(U1-IO47)*%
X68999866Y-90679135D02*
X68999865Y-90679135D01*
D20*
%TO.N,Net-(U1-IO39)*%
X65651869Y-84548131D02*
X65651869Y-89548131D01*
X65651869Y-89548131D02*
X67151869Y-91048131D01*
%TO.N,Net-(U1-IO35)*%
X77026869Y-71001609D02*
X77026869Y-77873131D01*
X75787130Y-69761870D02*
X77026869Y-71001609D01*
X77026869Y-77873131D02*
X78340608Y-79186870D01*
X78340608Y-79186870D02*
X79112130Y-79186870D01*
%TO.N,Net-(U1-IO47)*%
X80382130Y-94306870D02*
X80342130Y-94306870D01*
X80342130Y-94306870D02*
X77702130Y-91666870D01*
%TO.N,Net-(U1-IO37)*%
X75151869Y-87797131D02*
X75151869Y-77651869D01*
X73052130Y-89896870D02*
X75151869Y-87797131D01*
X75151869Y-77651869D02*
X71000000Y-73500000D01*
X71952130Y-89896870D02*
X73052130Y-89896870D01*
%TO.N,Net-(U1-IO36)*%
X67612130Y-68346870D02*
X67372130Y-68586870D01*
X76097130Y-68346870D02*
X67612130Y-68346870D01*
X77962130Y-70211870D02*
X76097130Y-68346870D01*
X77962130Y-74411870D02*
X77962130Y-70211870D01*
X82500000Y-78949740D02*
X77962130Y-74411870D01*
X81000000Y-90000000D02*
X82500000Y-88500000D01*
X73562130Y-90661870D02*
X74224000Y-90000000D01*
X74224000Y-90000000D02*
X81000000Y-90000000D01*
X82500000Y-88500000D02*
X82500000Y-78949740D01*
%TO.N,Net-(U1-IO47)*%
X69987601Y-91666870D02*
X68999866Y-90679135D01*
X77702130Y-91666870D02*
X69987601Y-91666870D01*
D21*
%TO.N,Net-(J8-Pin_3)*%
X51639727Y-86586870D02*
X53622130Y-86586870D01*
X49226597Y-89000000D02*
X51639727Y-86586870D01*
X50000000Y-91500000D02*
X49226597Y-90726597D01*
X49226597Y-90726597D02*
X49226597Y-89000000D01*
X62500000Y-91500000D02*
X50000000Y-91500000D01*
%TD*%
M02*
