%TF.GenerationSoftware,KiCad,Pcbnew,8.0.3*%
%TF.CreationDate,2025-09-25T14:22:10+05:30*%
%TF.ProjectId,reciever-,72656369-6576-4657-922d-2e6b69636164,rev?*%
%TF.SameCoordinates,Original*%
%TF.FileFunction,Soldermask,Top*%
%TF.FilePolarity,Negative*%
%FSLAX46Y46*%
G04 Gerber Fmt 4.6, Leading zero omitted, Abs format (unit mm)*
G04 Created by KiCad (PCBNEW 8.0.3) date 2025-09-25 14:22:10*
%MOMM*%
%LPD*%
G01*
G04 APERTURE LIST*
G04 Aperture macros list*
%AMRoundRect*
0 Rectangle with rounded corners*
0 $1 Rounding radius*
0 $2 $3 $4 $5 $6 $7 $8 $9 X,Y pos of 4 corners*
0 Add a 4 corners polygon primitive as box body*
4,1,4,$2,$3,$4,$5,$6,$7,$8,$9,$2,$3,0*
0 Add four circle primitives for the rounded corners*
1,1,$1+$1,$2,$3*
1,1,$1+$1,$4,$5*
1,1,$1+$1,$6,$7*
1,1,$1+$1,$8,$9*
0 Add four rect primitives between the rounded corners*
20,1,$1+$1,$2,$3,$4,$5,0*
20,1,$1+$1,$4,$5,$6,$7,0*
20,1,$1+$1,$6,$7,$8,$9,0*
20,1,$1+$1,$8,$9,$2,$3,0*%
G04 Aperture macros list end*
%ADD10O,1.700000X1.700000*%
%ADD11R,1.700000X1.700000*%
%ADD12RoundRect,0.237500X0.237500X-0.300000X0.237500X0.300000X-0.237500X0.300000X-0.237500X-0.300000X0*%
%ADD13O,1.900000X3.200000*%
%ADD14RoundRect,0.237500X-0.237500X0.300000X-0.237500X-0.300000X0.237500X-0.300000X0.237500X0.300000X0*%
%ADD15RoundRect,0.237500X0.300000X0.237500X-0.300000X0.237500X-0.300000X-0.237500X0.300000X-0.237500X0*%
%ADD16C,7.000000*%
%ADD17RoundRect,0.250000X0.450000X-0.350000X0.450000X0.350000X-0.450000X0.350000X-0.450000X-0.350000X0*%
%ADD18R,1.500000X2.000000*%
%ADD19RoundRect,0.237500X-0.300000X-0.237500X0.300000X-0.237500X0.300000X0.237500X-0.300000X0.237500X0*%
%ADD20RoundRect,0.250000X-0.850000X-0.350000X0.850000X-0.350000X0.850000X0.350000X-0.850000X0.350000X0*%
%ADD21RoundRect,0.249997X-2.950003X-2.650003X2.950003X-2.650003X2.950003X2.650003X-2.950003X2.650003X0*%
%ADD22RoundRect,0.250000X-0.475000X0.337500X-0.475000X-0.337500X0.475000X-0.337500X0.475000X0.337500X0*%
%ADD23R,0.812800X1.498600*%
%ADD24R,1.498600X0.812800*%
%ADD25R,0.889000X0.889000*%
%ADD26RoundRect,0.102000X0.550000X-0.525000X0.550000X0.525000X-0.550000X0.525000X-0.550000X-0.525000X0*%
%ADD27RoundRect,0.102000X1.125000X-0.550000X1.125000X0.550000X-1.125000X0.550000X-1.125000X-0.550000X0*%
%ADD28RoundRect,0.250000X-0.450000X0.350000X-0.450000X-0.350000X0.450000X-0.350000X0.450000X0.350000X0*%
%ADD29RoundRect,0.250000X0.475000X-0.337500X0.475000X0.337500X-0.475000X0.337500X-0.475000X-0.337500X0*%
%ADD30RoundRect,0.250000X0.450000X-0.325000X0.450000X0.325000X-0.450000X0.325000X-0.450000X-0.325000X0*%
%ADD31C,2.000000*%
%ADD32R,3.000000X3.000000*%
%ADD33C,3.000000*%
%ADD34R,1.600000X1.500000*%
%ADD35C,1.600000*%
G04 APERTURE END LIST*
D10*
%TO.C,J5*%
X90592130Y-84186870D03*
X90592130Y-81646870D03*
X90592130Y-79106870D03*
D11*
X90592130Y-76566870D03*
%TD*%
D12*
%TO.C,C4*%
X51151869Y-117773131D03*
X51151869Y-116048131D03*
%TD*%
D13*
%TO.C,SW6*%
X105601869Y-152023131D03*
X105601869Y-139523131D03*
X110601869Y-152023131D03*
X110601869Y-139523131D03*
%TD*%
D14*
%TO.C,C8*%
X74151869Y-121185631D03*
X74151869Y-122910631D03*
%TD*%
D15*
%TO.C,C11*%
X176362500Y-136000000D03*
X174637500Y-136000000D03*
%TD*%
D16*
%TO.C,*%
X53101869Y-157973131D03*
%TD*%
%TO.C,H3*%
X165712884Y-126361532D03*
%TD*%
D13*
%TO.C,SW7*%
X64151869Y-139623131D03*
X64151869Y-152123131D03*
X59151869Y-139623131D03*
X59151869Y-152123131D03*
%TD*%
%TO.C,SW2*%
X87476869Y-139598131D03*
X87476869Y-152098131D03*
X82476869Y-139598131D03*
X82476869Y-152098131D03*
%TD*%
D16*
%TO.C,H4*%
X165711363Y-71362057D03*
%TD*%
%TO.C,*%
X184576869Y-52023131D03*
%TD*%
D17*
%TO.C,R2*%
X63651869Y-117135631D03*
X63651869Y-115135631D03*
%TD*%
D18*
%TO.C,U2*%
X72872130Y-87036870D03*
X70872130Y-87036870D03*
X68872130Y-87036870D03*
X66872130Y-87036870D03*
X64872130Y-87036870D03*
X62872130Y-87036870D03*
X60872130Y-87036870D03*
X58872130Y-87036870D03*
X58872130Y-71036870D03*
X60872130Y-71036870D03*
X62872130Y-71036870D03*
X64872130Y-71036870D03*
X66872130Y-71036870D03*
X68872130Y-71036870D03*
X70872130Y-71036870D03*
X72872130Y-71036870D03*
%TD*%
D19*
%TO.C,C13*%
X109151869Y-136048131D03*
X110876869Y-136048131D03*
%TD*%
D16*
%TO.C,H2*%
X83712884Y-126861532D03*
%TD*%
D13*
%TO.C,SW3*%
X133601869Y-139523131D03*
X133601869Y-152023131D03*
X128601869Y-139523131D03*
X128601869Y-152023131D03*
%TD*%
D20*
%TO.C,U3*%
X66651869Y-125768131D03*
X66651869Y-128048131D03*
D21*
X72951869Y-128048131D03*
D20*
X66651869Y-130328131D03*
%TD*%
D17*
%TO.C,R3*%
X61500000Y-125000000D03*
X61500000Y-123000000D03*
%TD*%
D19*
%TO.C,C12*%
X153789369Y-136048131D03*
X155514369Y-136048131D03*
%TD*%
D22*
%TO.C,C7*%
X76651869Y-121010631D03*
X76651869Y-123085631D03*
%TD*%
D23*
%TO.C,U1*%
X59240000Y-110750000D03*
X60510000Y-110750000D03*
X61780000Y-110750000D03*
X63050000Y-110750000D03*
X64320000Y-110750000D03*
X65590000Y-110750000D03*
X66860000Y-110750000D03*
X68130000Y-110750000D03*
X69400000Y-110750000D03*
X70670000Y-110750000D03*
X71940000Y-110750000D03*
X73210000Y-110750000D03*
X74480000Y-110750000D03*
X75750000Y-110750000D03*
D24*
X77000000Y-108985000D03*
X77000000Y-107715000D03*
X77000000Y-106445000D03*
X77000000Y-105175000D03*
X77000000Y-103905000D03*
X77000000Y-102635000D03*
X77000000Y-101365000D03*
X77000000Y-100095000D03*
X77000000Y-98825000D03*
X77000000Y-97555000D03*
X77000000Y-96285000D03*
X77000000Y-95015000D03*
D23*
X75750000Y-93250000D03*
X74480000Y-93250000D03*
X73210000Y-93250000D03*
X71940000Y-93250000D03*
X70670000Y-93250000D03*
X69400000Y-93250000D03*
X68130000Y-93250000D03*
X66860000Y-93250000D03*
X65590000Y-93250000D03*
X64320000Y-93250000D03*
X63050000Y-93250000D03*
X61780000Y-93250000D03*
X60510000Y-93250000D03*
X59240000Y-93250000D03*
D25*
X66960000Y-103500000D03*
X65560000Y-104900000D03*
X66960000Y-104900000D03*
X68360000Y-104900000D03*
X68360000Y-103500000D03*
X68360000Y-102100000D03*
X66960000Y-102100000D03*
X65560000Y-102100000D03*
X65560000Y-103500000D03*
%TD*%
D16*
%TO.C,H1*%
X83712884Y-71861532D03*
%TD*%
%TO.C,*%
X52834775Y-52066549D03*
%TD*%
D26*
%TO.C,J2*%
X53401869Y-73898131D03*
D27*
X51851869Y-72423131D03*
X51851869Y-75373131D03*
%TD*%
D13*
%TO.C,SW5*%
X151501869Y-151998131D03*
X151501869Y-139498131D03*
X156501869Y-151998131D03*
X156501869Y-139498131D03*
%TD*%
D15*
%TO.C,C10*%
X130500000Y-135923131D03*
X128775000Y-135923131D03*
%TD*%
D28*
%TO.C,R1*%
X66651869Y-119048131D03*
X66651869Y-121048131D03*
%TD*%
D13*
%TO.C,SW4*%
X174376869Y-151998131D03*
X174376869Y-139498131D03*
X179376869Y-151998131D03*
X179376869Y-139498131D03*
%TD*%
D29*
%TO.C,C5*%
X60001869Y-129310631D03*
X60001869Y-127235631D03*
%TD*%
D12*
%TO.C,C6*%
X63382130Y-129139370D03*
X63382130Y-127414370D03*
%TD*%
D15*
%TO.C,C9*%
X86976869Y-136548131D03*
X85251869Y-136548131D03*
%TD*%
D10*
%TO.C,J4*%
X78462130Y-87736870D03*
D11*
X78462130Y-85196870D03*
%TD*%
D16*
%TO.C,*%
X184526869Y-157898131D03*
%TD*%
D15*
%TO.C,C14*%
X63514369Y-136048131D03*
X61789369Y-136048131D03*
%TD*%
D30*
%TO.C,D1*%
X59151869Y-125073131D03*
X59151869Y-123023131D03*
%TD*%
D14*
%TO.C,C2*%
X69151869Y-121185631D03*
X69151869Y-122910631D03*
%TD*%
D12*
%TO.C,C3*%
X64500000Y-122362500D03*
X64500000Y-120637500D03*
%TD*%
D31*
%TO.C,SW1*%
X60592130Y-119726870D03*
X54092130Y-119726870D03*
X60592130Y-115226870D03*
X54092130Y-115226870D03*
%TD*%
D22*
%TO.C,C1*%
X71651869Y-121010631D03*
X71651869Y-123085631D03*
%TD*%
D32*
%TO.C,J6*%
X121946869Y-52598131D03*
D33*
X127026869Y-52598131D03*
%TD*%
D10*
%TO.C,J8*%
X53622130Y-89126870D03*
X53622130Y-86586870D03*
X53622130Y-84046870D03*
D11*
X53622130Y-81506870D03*
%TD*%
D34*
%TO.C,J1*%
X143201869Y-61558131D03*
D35*
X145701869Y-61558131D03*
X147701869Y-61558131D03*
X150201869Y-61558131D03*
D33*
X140131869Y-58848131D03*
X153271869Y-58848131D03*
%TD*%
D32*
%TO.C,J3*%
X53651869Y-127008131D03*
D33*
X53651869Y-132088131D03*
%TD*%
%TO.C,J7*%
X113941869Y-52573131D03*
D32*
X108861869Y-52573131D03*
%TD*%
M02*
