%TF.GenerationSoftware,KiCad,Pcbnew,8.0.3*%
%TF.CreationDate,2025-09-25T14:22:11+05:30*%
%TF.ProjectId,reciever-,72656369-6576-4657-922d-2e6b69636164,rev?*%
%TF.SameCoordinates,Original*%
%TF.FileFunction,Soldermask,Bot*%
%TF.FilePolarity,Negative*%
%FSLAX46Y46*%
G04 Gerber Fmt 4.6, Leading zero omitted, Abs format (unit mm)*
G04 Created by KiCad (PCBNEW 8.0.3) date 2025-09-25 14:22:11*
%MOMM*%
%LPD*%
G01*
G04 APERTURE LIST*
%ADD10O,1.700000X1.700000*%
%ADD11R,1.700000X1.700000*%
%ADD12O,1.900000X3.200000*%
%ADD13C,7.000000*%
%ADD14C,2.000000*%
%ADD15R,3.000000X3.000000*%
%ADD16C,3.000000*%
%ADD17R,1.600000X1.500000*%
%ADD18C,1.600000*%
G04 APERTURE END LIST*
D10*
%TO.C,J5*%
X90592130Y-84186870D03*
X90592130Y-81646870D03*
X90592130Y-79106870D03*
D11*
X90592130Y-76566870D03*
%TD*%
D12*
%TO.C,SW6*%
X105601869Y-152023131D03*
X105601869Y-139523131D03*
X110601869Y-152023131D03*
X110601869Y-139523131D03*
%TD*%
D13*
%TO.C,*%
X53101869Y-157973131D03*
%TD*%
%TO.C,H3*%
X165712884Y-126361532D03*
%TD*%
D12*
%TO.C,SW7*%
X64151869Y-139623131D03*
X64151869Y-152123131D03*
X59151869Y-139623131D03*
X59151869Y-152123131D03*
%TD*%
%TO.C,SW2*%
X87476869Y-139598131D03*
X87476869Y-152098131D03*
X82476869Y-139598131D03*
X82476869Y-152098131D03*
%TD*%
D13*
%TO.C,H4*%
X165711363Y-71362057D03*
%TD*%
%TO.C,*%
X184576869Y-52023131D03*
%TD*%
%TO.C,H2*%
X83712884Y-126861532D03*
%TD*%
D12*
%TO.C,SW3*%
X133601869Y-139523131D03*
X133601869Y-152023131D03*
X128601869Y-139523131D03*
X128601869Y-152023131D03*
%TD*%
D13*
%TO.C,H1*%
X83712884Y-71861532D03*
%TD*%
%TO.C,*%
X52834775Y-52066549D03*
%TD*%
D12*
%TO.C,SW5*%
X151501869Y-151998131D03*
X151501869Y-139498131D03*
X156501869Y-151998131D03*
X156501869Y-139498131D03*
%TD*%
%TO.C,SW4*%
X174376869Y-151998131D03*
X174376869Y-139498131D03*
X179376869Y-151998131D03*
X179376869Y-139498131D03*
%TD*%
D10*
%TO.C,J4*%
X78462130Y-87736870D03*
D11*
X78462130Y-85196870D03*
%TD*%
D13*
%TO.C,*%
X184526869Y-157898131D03*
%TD*%
D14*
%TO.C,SW1*%
X60592130Y-119726870D03*
X54092130Y-119726870D03*
X60592130Y-115226870D03*
X54092130Y-115226870D03*
%TD*%
D15*
%TO.C,J6*%
X121946869Y-52598131D03*
D16*
X127026869Y-52598131D03*
%TD*%
D10*
%TO.C,J8*%
X53622130Y-89126870D03*
X53622130Y-86586870D03*
X53622130Y-84046870D03*
D11*
X53622130Y-81506870D03*
%TD*%
D17*
%TO.C,J1*%
X143201869Y-61558131D03*
D18*
X145701869Y-61558131D03*
X147701869Y-61558131D03*
X150201869Y-61558131D03*
D16*
X140131869Y-58848131D03*
X153271869Y-58848131D03*
%TD*%
D15*
%TO.C,J3*%
X53651869Y-127008131D03*
D16*
X53651869Y-132088131D03*
%TD*%
%TO.C,J7*%
X113941869Y-52573131D03*
D15*
X108861869Y-52573131D03*
%TD*%
M02*
