%TF.GenerationSoftware,KiCad,Pcbnew,8.0.3*%
%TF.CreationDate,2025-09-25T14:22:10+05:30*%
%TF.ProjectId,reciever-,72656369-6576-4657-922d-2e6b69636164,rev?*%
%TF.SameCoordinates,Original*%
%TF.FileFunction,Legend,Bot*%
%TF.FilePolarity,Positive*%
%FSLAX46Y46*%
G04 Gerber Fmt 4.6, Leading zero omitted, Abs format (unit mm)*
G04 Created by KiCad (PCBNEW 8.0.3) date 2025-09-25 14:22:10*
%MOMM*%
%LPD*%
G01*
G04 APERTURE LIST*
%ADD10C,0.300000*%
%ADD11C,0.100000*%
%ADD12C,0.150000*%
%ADD13C,0.120000*%
G04 APERTURE END LIST*
D10*
X75516917Y-52372257D02*
X74802632Y-52372257D01*
X75659774Y-52800828D02*
X75159774Y-51300828D01*
X75159774Y-51300828D02*
X74659774Y-52800828D01*
X73659775Y-52015114D02*
X73445489Y-52086542D01*
X73445489Y-52086542D02*
X73374060Y-52157971D01*
X73374060Y-52157971D02*
X73302632Y-52300828D01*
X73302632Y-52300828D02*
X73302632Y-52515114D01*
X73302632Y-52515114D02*
X73374060Y-52657971D01*
X73374060Y-52657971D02*
X73445489Y-52729400D01*
X73445489Y-52729400D02*
X73588346Y-52800828D01*
X73588346Y-52800828D02*
X74159775Y-52800828D01*
X74159775Y-52800828D02*
X74159775Y-51300828D01*
X74159775Y-51300828D02*
X73659775Y-51300828D01*
X73659775Y-51300828D02*
X73516918Y-51372257D01*
X73516918Y-51372257D02*
X73445489Y-51443685D01*
X73445489Y-51443685D02*
X73374060Y-51586542D01*
X73374060Y-51586542D02*
X73374060Y-51729400D01*
X73374060Y-51729400D02*
X73445489Y-51872257D01*
X73445489Y-51872257D02*
X73516918Y-51943685D01*
X73516918Y-51943685D02*
X73659775Y-52015114D01*
X73659775Y-52015114D02*
X74159775Y-52015114D01*
X72659775Y-52800828D02*
X72659775Y-51300828D01*
X72659775Y-52015114D02*
X71802632Y-52015114D01*
X71802632Y-52800828D02*
X71802632Y-51300828D01*
X71159774Y-52372257D02*
X70445489Y-52372257D01*
X71302631Y-52800828D02*
X70802631Y-51300828D01*
X70802631Y-51300828D02*
X70302631Y-52800828D01*
X69516917Y-52086542D02*
X69516917Y-52800828D01*
X70016917Y-51300828D02*
X69516917Y-52086542D01*
X69516917Y-52086542D02*
X69016917Y-51300828D01*
X68874061Y-52943685D02*
X67731203Y-52943685D01*
X66516918Y-52657971D02*
X66588346Y-52729400D01*
X66588346Y-52729400D02*
X66802632Y-52800828D01*
X66802632Y-52800828D02*
X66945489Y-52800828D01*
X66945489Y-52800828D02*
X67159775Y-52729400D01*
X67159775Y-52729400D02*
X67302632Y-52586542D01*
X67302632Y-52586542D02*
X67374061Y-52443685D01*
X67374061Y-52443685D02*
X67445489Y-52157971D01*
X67445489Y-52157971D02*
X67445489Y-51943685D01*
X67445489Y-51943685D02*
X67374061Y-51657971D01*
X67374061Y-51657971D02*
X67302632Y-51515114D01*
X67302632Y-51515114D02*
X67159775Y-51372257D01*
X67159775Y-51372257D02*
X66945489Y-51300828D01*
X66945489Y-51300828D02*
X66802632Y-51300828D01*
X66802632Y-51300828D02*
X66588346Y-51372257D01*
X66588346Y-51372257D02*
X66516918Y-51443685D01*
X65874061Y-52800828D02*
X65874061Y-51300828D01*
X65874061Y-51300828D02*
X65302632Y-51300828D01*
X65302632Y-51300828D02*
X65159775Y-51372257D01*
X65159775Y-51372257D02*
X65088346Y-51443685D01*
X65088346Y-51443685D02*
X65016918Y-51586542D01*
X65016918Y-51586542D02*
X65016918Y-51800828D01*
X65016918Y-51800828D02*
X65088346Y-51943685D01*
X65088346Y-51943685D02*
X65159775Y-52015114D01*
X65159775Y-52015114D02*
X65302632Y-52086542D01*
X65302632Y-52086542D02*
X65874061Y-52086542D01*
X64088346Y-51300828D02*
X63945489Y-51300828D01*
X63945489Y-51300828D02*
X63802632Y-51372257D01*
X63802632Y-51372257D02*
X63731204Y-51443685D01*
X63731204Y-51443685D02*
X63659775Y-51586542D01*
X63659775Y-51586542D02*
X63588346Y-51872257D01*
X63588346Y-51872257D02*
X63588346Y-52229400D01*
X63588346Y-52229400D02*
X63659775Y-52515114D01*
X63659775Y-52515114D02*
X63731204Y-52657971D01*
X63731204Y-52657971D02*
X63802632Y-52729400D01*
X63802632Y-52729400D02*
X63945489Y-52800828D01*
X63945489Y-52800828D02*
X64088346Y-52800828D01*
X64088346Y-52800828D02*
X64231204Y-52729400D01*
X64231204Y-52729400D02*
X64302632Y-52657971D01*
X64302632Y-52657971D02*
X64374061Y-52515114D01*
X64374061Y-52515114D02*
X64445489Y-52229400D01*
X64445489Y-52229400D02*
X64445489Y-51872257D01*
X64445489Y-51872257D02*
X64374061Y-51586542D01*
X64374061Y-51586542D02*
X64302632Y-51443685D01*
X64302632Y-51443685D02*
X64231204Y-51372257D01*
X64231204Y-51372257D02*
X64088346Y-51300828D01*
X62659775Y-51300828D02*
X62516918Y-51300828D01*
X62516918Y-51300828D02*
X62374061Y-51372257D01*
X62374061Y-51372257D02*
X62302633Y-51443685D01*
X62302633Y-51443685D02*
X62231204Y-51586542D01*
X62231204Y-51586542D02*
X62159775Y-51872257D01*
X62159775Y-51872257D02*
X62159775Y-52229400D01*
X62159775Y-52229400D02*
X62231204Y-52515114D01*
X62231204Y-52515114D02*
X62302633Y-52657971D01*
X62302633Y-52657971D02*
X62374061Y-52729400D01*
X62374061Y-52729400D02*
X62516918Y-52800828D01*
X62516918Y-52800828D02*
X62659775Y-52800828D01*
X62659775Y-52800828D02*
X62802633Y-52729400D01*
X62802633Y-52729400D02*
X62874061Y-52657971D01*
X62874061Y-52657971D02*
X62945490Y-52515114D01*
X62945490Y-52515114D02*
X63016918Y-52229400D01*
X63016918Y-52229400D02*
X63016918Y-51872257D01*
X63016918Y-51872257D02*
X62945490Y-51586542D01*
X62945490Y-51586542D02*
X62874061Y-51443685D01*
X62874061Y-51443685D02*
X62802633Y-51372257D01*
X62802633Y-51372257D02*
X62659775Y-51300828D01*
X61231204Y-51300828D02*
X61088347Y-51300828D01*
X61088347Y-51300828D02*
X60945490Y-51372257D01*
X60945490Y-51372257D02*
X60874062Y-51443685D01*
X60874062Y-51443685D02*
X60802633Y-51586542D01*
X60802633Y-51586542D02*
X60731204Y-51872257D01*
X60731204Y-51872257D02*
X60731204Y-52229400D01*
X60731204Y-52229400D02*
X60802633Y-52515114D01*
X60802633Y-52515114D02*
X60874062Y-52657971D01*
X60874062Y-52657971D02*
X60945490Y-52729400D01*
X60945490Y-52729400D02*
X61088347Y-52800828D01*
X61088347Y-52800828D02*
X61231204Y-52800828D01*
X61231204Y-52800828D02*
X61374062Y-52729400D01*
X61374062Y-52729400D02*
X61445490Y-52657971D01*
X61445490Y-52657971D02*
X61516919Y-52515114D01*
X61516919Y-52515114D02*
X61588347Y-52229400D01*
X61588347Y-52229400D02*
X61588347Y-51872257D01*
X61588347Y-51872257D02*
X61516919Y-51586542D01*
X61516919Y-51586542D02*
X61445490Y-51443685D01*
X61445490Y-51443685D02*
X61374062Y-51372257D01*
X61374062Y-51372257D02*
X61231204Y-51300828D01*
X59302633Y-52800828D02*
X60159776Y-52800828D01*
X59731205Y-52800828D02*
X59731205Y-51300828D01*
X59731205Y-51300828D02*
X59874062Y-51515114D01*
X59874062Y-51515114D02*
X60016919Y-51657971D01*
X60016919Y-51657971D02*
X60159776Y-51729400D01*
D11*
X50353258Y-86540777D02*
X49867544Y-86540777D01*
X50110401Y-87390777D02*
X50110401Y-86540777D01*
X49665163Y-86540777D02*
X49098496Y-87390777D01*
X49098496Y-86540777D02*
X49665163Y-87390777D01*
X51812782Y-89040777D02*
X51286591Y-89040777D01*
X51286591Y-89040777D02*
X51569925Y-89364586D01*
X51569925Y-89364586D02*
X51448496Y-89364586D01*
X51448496Y-89364586D02*
X51367544Y-89405062D01*
X51367544Y-89405062D02*
X51327068Y-89445539D01*
X51327068Y-89445539D02*
X51286591Y-89526491D01*
X51286591Y-89526491D02*
X51286591Y-89728872D01*
X51286591Y-89728872D02*
X51327068Y-89809824D01*
X51327068Y-89809824D02*
X51367544Y-89850301D01*
X51367544Y-89850301D02*
X51448496Y-89890777D01*
X51448496Y-89890777D02*
X51691353Y-89890777D01*
X51691353Y-89890777D02*
X51772306Y-89850301D01*
X51772306Y-89850301D02*
X51812782Y-89809824D01*
X51043734Y-89040777D02*
X50760401Y-89890777D01*
X50760401Y-89890777D02*
X50477067Y-89040777D01*
X50274687Y-89040777D02*
X49748496Y-89040777D01*
X49748496Y-89040777D02*
X50031830Y-89364586D01*
X50031830Y-89364586D02*
X49910401Y-89364586D01*
X49910401Y-89364586D02*
X49829449Y-89405062D01*
X49829449Y-89405062D02*
X49788973Y-89445539D01*
X49788973Y-89445539D02*
X49748496Y-89526491D01*
X49748496Y-89526491D02*
X49748496Y-89728872D01*
X49748496Y-89728872D02*
X49788973Y-89809824D01*
X49788973Y-89809824D02*
X49829449Y-89850301D01*
X49829449Y-89850301D02*
X49910401Y-89890777D01*
X49910401Y-89890777D02*
X50153258Y-89890777D01*
X50153258Y-89890777D02*
X50234211Y-89850301D01*
X50234211Y-89850301D02*
X50274687Y-89809824D01*
D10*
X54054510Y-135729400D02*
X55197368Y-135729400D01*
X54625939Y-136300828D02*
X54625939Y-135157971D01*
X54229400Y-123445489D02*
X54229400Y-122302632D01*
D11*
X50786591Y-81081253D02*
X50867544Y-81040777D01*
X50867544Y-81040777D02*
X50988972Y-81040777D01*
X50988972Y-81040777D02*
X51110401Y-81081253D01*
X51110401Y-81081253D02*
X51191353Y-81162205D01*
X51191353Y-81162205D02*
X51231830Y-81243158D01*
X51231830Y-81243158D02*
X51272306Y-81405062D01*
X51272306Y-81405062D02*
X51272306Y-81526491D01*
X51272306Y-81526491D02*
X51231830Y-81688396D01*
X51231830Y-81688396D02*
X51191353Y-81769348D01*
X51191353Y-81769348D02*
X51110401Y-81850301D01*
X51110401Y-81850301D02*
X50988972Y-81890777D01*
X50988972Y-81890777D02*
X50908020Y-81890777D01*
X50908020Y-81890777D02*
X50786591Y-81850301D01*
X50786591Y-81850301D02*
X50746115Y-81809824D01*
X50746115Y-81809824D02*
X50746115Y-81526491D01*
X50746115Y-81526491D02*
X50908020Y-81526491D01*
X50381830Y-81890777D02*
X50381830Y-81040777D01*
X50381830Y-81040777D02*
X49896115Y-81890777D01*
X49896115Y-81890777D02*
X49896115Y-81040777D01*
X49491354Y-81890777D02*
X49491354Y-81040777D01*
X49491354Y-81040777D02*
X49288973Y-81040777D01*
X49288973Y-81040777D02*
X49167544Y-81081253D01*
X49167544Y-81081253D02*
X49086592Y-81162205D01*
X49086592Y-81162205D02*
X49046115Y-81243158D01*
X49046115Y-81243158D02*
X49005639Y-81405062D01*
X49005639Y-81405062D02*
X49005639Y-81526491D01*
X49005639Y-81526491D02*
X49046115Y-81688396D01*
X49046115Y-81688396D02*
X49086592Y-81769348D01*
X49086592Y-81769348D02*
X49167544Y-81850301D01*
X49167544Y-81850301D02*
X49288973Y-81890777D01*
X49288973Y-81890777D02*
X49491354Y-81890777D01*
X49746115Y-84390777D02*
X50029449Y-83986015D01*
X50231830Y-84390777D02*
X50231830Y-83540777D01*
X50231830Y-83540777D02*
X49908020Y-83540777D01*
X49908020Y-83540777D02*
X49827068Y-83581253D01*
X49827068Y-83581253D02*
X49786591Y-83621729D01*
X49786591Y-83621729D02*
X49746115Y-83702681D01*
X49746115Y-83702681D02*
X49746115Y-83824110D01*
X49746115Y-83824110D02*
X49786591Y-83905062D01*
X49786591Y-83905062D02*
X49827068Y-83945539D01*
X49827068Y-83945539D02*
X49908020Y-83986015D01*
X49908020Y-83986015D02*
X50231830Y-83986015D01*
X49462782Y-83540777D02*
X48896115Y-84390777D01*
X48896115Y-83540777D02*
X49462782Y-84390777D01*
D12*
X80333333Y-81954819D02*
X80333333Y-82669104D01*
X80333333Y-82669104D02*
X80380952Y-82811961D01*
X80380952Y-82811961D02*
X80476190Y-82907200D01*
X80476190Y-82907200D02*
X80619047Y-82954819D01*
X80619047Y-82954819D02*
X80714285Y-82954819D01*
X79428571Y-82288152D02*
X79428571Y-82954819D01*
X79666666Y-81907200D02*
X79904761Y-82621485D01*
X79904761Y-82621485D02*
X79285714Y-82621485D01*
X123833333Y-58954819D02*
X123833333Y-59669104D01*
X123833333Y-59669104D02*
X123880952Y-59811961D01*
X123880952Y-59811961D02*
X123976190Y-59907200D01*
X123976190Y-59907200D02*
X124119047Y-59954819D01*
X124119047Y-59954819D02*
X124214285Y-59954819D01*
X122928571Y-58954819D02*
X123119047Y-58954819D01*
X123119047Y-58954819D02*
X123214285Y-59002438D01*
X123214285Y-59002438D02*
X123261904Y-59050057D01*
X123261904Y-59050057D02*
X123357142Y-59192914D01*
X123357142Y-59192914D02*
X123404761Y-59383390D01*
X123404761Y-59383390D02*
X123404761Y-59764342D01*
X123404761Y-59764342D02*
X123357142Y-59859580D01*
X123357142Y-59859580D02*
X123309523Y-59907200D01*
X123309523Y-59907200D02*
X123214285Y-59954819D01*
X123214285Y-59954819D02*
X123023809Y-59954819D01*
X123023809Y-59954819D02*
X122928571Y-59907200D01*
X122928571Y-59907200D02*
X122880952Y-59859580D01*
X122880952Y-59859580D02*
X122833333Y-59764342D01*
X122833333Y-59764342D02*
X122833333Y-59526247D01*
X122833333Y-59526247D02*
X122880952Y-59431009D01*
X122880952Y-59431009D02*
X122928571Y-59383390D01*
X122928571Y-59383390D02*
X123023809Y-59335771D01*
X123023809Y-59335771D02*
X123214285Y-59335771D01*
X123214285Y-59335771D02*
X123309523Y-59383390D01*
X123309523Y-59383390D02*
X123357142Y-59431009D01*
X123357142Y-59431009D02*
X123404761Y-59526247D01*
X57333333Y-83954819D02*
X57333333Y-84669104D01*
X57333333Y-84669104D02*
X57380952Y-84811961D01*
X57380952Y-84811961D02*
X57476190Y-84907200D01*
X57476190Y-84907200D02*
X57619047Y-84954819D01*
X57619047Y-84954819D02*
X57714285Y-84954819D01*
X56714285Y-84383390D02*
X56809523Y-84335771D01*
X56809523Y-84335771D02*
X56857142Y-84288152D01*
X56857142Y-84288152D02*
X56904761Y-84192914D01*
X56904761Y-84192914D02*
X56904761Y-84145295D01*
X56904761Y-84145295D02*
X56857142Y-84050057D01*
X56857142Y-84050057D02*
X56809523Y-84002438D01*
X56809523Y-84002438D02*
X56714285Y-83954819D01*
X56714285Y-83954819D02*
X56523809Y-83954819D01*
X56523809Y-83954819D02*
X56428571Y-84002438D01*
X56428571Y-84002438D02*
X56380952Y-84050057D01*
X56380952Y-84050057D02*
X56333333Y-84145295D01*
X56333333Y-84145295D02*
X56333333Y-84192914D01*
X56333333Y-84192914D02*
X56380952Y-84288152D01*
X56380952Y-84288152D02*
X56428571Y-84335771D01*
X56428571Y-84335771D02*
X56523809Y-84383390D01*
X56523809Y-84383390D02*
X56714285Y-84383390D01*
X56714285Y-84383390D02*
X56809523Y-84431009D01*
X56809523Y-84431009D02*
X56857142Y-84478628D01*
X56857142Y-84478628D02*
X56904761Y-84573866D01*
X56904761Y-84573866D02*
X56904761Y-84764342D01*
X56904761Y-84764342D02*
X56857142Y-84859580D01*
X56857142Y-84859580D02*
X56809523Y-84907200D01*
X56809523Y-84907200D02*
X56714285Y-84954819D01*
X56714285Y-84954819D02*
X56523809Y-84954819D01*
X56523809Y-84954819D02*
X56428571Y-84907200D01*
X56428571Y-84907200D02*
X56380952Y-84859580D01*
X56380952Y-84859580D02*
X56333333Y-84764342D01*
X56333333Y-84764342D02*
X56333333Y-84573866D01*
X56333333Y-84573866D02*
X56380952Y-84478628D01*
X56380952Y-84478628D02*
X56428571Y-84431009D01*
X56428571Y-84431009D02*
X56523809Y-84383390D01*
X141333333Y-65454819D02*
X141333333Y-66169104D01*
X141333333Y-66169104D02*
X141380952Y-66311961D01*
X141380952Y-66311961D02*
X141476190Y-66407200D01*
X141476190Y-66407200D02*
X141619047Y-66454819D01*
X141619047Y-66454819D02*
X141714285Y-66454819D01*
X140333333Y-66454819D02*
X140904761Y-66454819D01*
X140619047Y-66454819D02*
X140619047Y-65454819D01*
X140619047Y-65454819D02*
X140714285Y-65597676D01*
X140714285Y-65597676D02*
X140809523Y-65692914D01*
X140809523Y-65692914D02*
X140904761Y-65740533D01*
X51833333Y-136454819D02*
X51833333Y-137169104D01*
X51833333Y-137169104D02*
X51880952Y-137311961D01*
X51880952Y-137311961D02*
X51976190Y-137407200D01*
X51976190Y-137407200D02*
X52119047Y-137454819D01*
X52119047Y-137454819D02*
X52214285Y-137454819D01*
X51452380Y-136454819D02*
X50833333Y-136454819D01*
X50833333Y-136454819D02*
X51166666Y-136835771D01*
X51166666Y-136835771D02*
X51023809Y-136835771D01*
X51023809Y-136835771D02*
X50928571Y-136883390D01*
X50928571Y-136883390D02*
X50880952Y-136931009D01*
X50880952Y-136931009D02*
X50833333Y-137026247D01*
X50833333Y-137026247D02*
X50833333Y-137264342D01*
X50833333Y-137264342D02*
X50880952Y-137359580D01*
X50880952Y-137359580D02*
X50928571Y-137407200D01*
X50928571Y-137407200D02*
X51023809Y-137454819D01*
X51023809Y-137454819D02*
X51309523Y-137454819D01*
X51309523Y-137454819D02*
X51404761Y-137407200D01*
X51404761Y-137407200D02*
X51452380Y-137359580D01*
X111735202Y-58954819D02*
X111735202Y-59669104D01*
X111735202Y-59669104D02*
X111782821Y-59811961D01*
X111782821Y-59811961D02*
X111878059Y-59907200D01*
X111878059Y-59907200D02*
X112020916Y-59954819D01*
X112020916Y-59954819D02*
X112116154Y-59954819D01*
X111354249Y-58954819D02*
X110687583Y-58954819D01*
X110687583Y-58954819D02*
X111116154Y-59954819D01*
D13*
%TO.C,J4*%
X77132130Y-89066870D02*
X77132130Y-86466870D01*
X77132130Y-89066870D02*
X79792130Y-89066870D01*
X77132130Y-86466870D02*
X79792130Y-86466870D01*
X79792130Y-89066870D02*
X79792130Y-86466870D01*
X79792130Y-83866870D02*
X79792130Y-85196870D01*
X78462130Y-83866870D02*
X79792130Y-83866870D01*
%TO.C,J6*%
X119406869Y-48788131D02*
X119406869Y-56408131D01*
X119406869Y-50058131D02*
X129566869Y-50058131D01*
X119406869Y-56408131D02*
X129566869Y-56408131D01*
X129566869Y-48788131D02*
X119406869Y-48788131D01*
X129566869Y-56408131D02*
X129566869Y-48788131D01*
%TO.C,J8*%
X54952130Y-90456870D02*
X54952130Y-82776870D01*
X52292130Y-90456870D02*
X54952130Y-90456870D01*
X52292130Y-90456870D02*
X52292130Y-82776870D01*
X52292130Y-82776870D02*
X54952130Y-82776870D01*
X52292130Y-81506870D02*
X52292130Y-80176870D01*
X52292130Y-80176870D02*
X53622130Y-80176870D01*
%TO.C,J1*%
X139391869Y-48458131D02*
X139391869Y-48978131D01*
X139391869Y-48978131D02*
X140041869Y-48978131D01*
X140041869Y-57088131D02*
X140041869Y-48978131D01*
X140041869Y-60608131D02*
X140041869Y-63938131D01*
X144101869Y-64158131D02*
X142301869Y-64158131D01*
X153361869Y-48978131D02*
X153361869Y-57088131D01*
X153361869Y-48978131D02*
X154011869Y-48978131D01*
X153361869Y-60608131D02*
X153361869Y-63938131D01*
X153361869Y-63938131D02*
X140041869Y-63938131D01*
X154011869Y-48458131D02*
X139391869Y-48458131D01*
X154011869Y-48978131D02*
X154011869Y-48458131D01*
%TO.C,J3*%
X49841869Y-124468131D02*
X49841869Y-134628131D01*
X49841869Y-134628131D02*
X57461869Y-134628131D01*
X56191869Y-124468131D02*
X56191869Y-134628131D01*
X57461869Y-124468131D02*
X49841869Y-124468131D01*
X57461869Y-134628131D02*
X57461869Y-124468131D01*
%TO.C,J7*%
X116481869Y-56383131D02*
X116481869Y-48763131D01*
X116481869Y-48763131D02*
X106321869Y-48763131D01*
X106321869Y-56383131D02*
X116481869Y-56383131D01*
X106321869Y-50033131D02*
X116481869Y-50033131D01*
X106321869Y-48763131D02*
X106321869Y-56383131D01*
%TD*%
M02*
