M48
; DRILL file {KiCad 8.0.3} date 2025-09-25T14:22:20+0530
; FORMAT={-:-/ absolute / metric / decimal}
; #@! TF.CreationDate,2025-09-25T14:22:21+05:30
; #@! TF.GenerationSoftware,Kicad,Pcbnew,8.0.3
; #@! TF.FileFunction,Plated,1,2,PTH
FMAT,2
METRIC
; #@! TA.AperFunction,Plated,PTH,ViaDrill
T1C0.500
; #@! TA.AperFunction,Plated,PTH,ComponentDrill
T2C0.950
; #@! TA.AperFunction,Plated,PTH,ComponentDrill
T3C1.000
; #@! TA.AperFunction,Plated,PTH,ComponentDrill
T4C1.100
; #@! TA.AperFunction,Plated,PTH,ComponentDrill
T5C1.300
; #@! TA.AperFunction,Plated,PTH,ComponentDrill
T6C1.520
; #@! TA.AperFunction,Plated,PTH,ComponentDrill
T7C2.300
; #@! TA.AperFunction,Plated,PTH,ComponentDrill
T8C3.500
%
G90
G05
T1
X57.75Y-90.25
X59.0Y-83.0
X60.537Y-113.137
X62.5Y-91.5
X63.432Y-67.617
X64.152Y-132.048
X65.652Y-84.548
X66.296Y-117.048
X67.152Y-91.048
X67.372Y-68.587
X69.0Y-90.679
X70.312Y-114.012
X71.0Y-73.5
X71.952Y-89.897
X73.5Y-74.0
X73.562Y-90.662
X75.787Y-69.762
X79.112Y-79.187
X80.382Y-94.307
X145.702Y-104.598
T2
X143.202Y-61.558
X145.702Y-61.558
X147.702Y-61.558
X150.202Y-61.558
T3
X53.622Y-81.507
X53.622Y-84.047
X53.622Y-86.587
X53.622Y-89.127
X78.462Y-85.197
X78.462Y-87.737
X90.592Y-76.567
X90.592Y-79.107
X90.592Y-81.647
X90.592Y-84.187
T4
X54.092Y-115.227
X54.092Y-119.727
X60.592Y-115.227
X60.592Y-119.727
T5
X59.152Y-139.623
X59.152Y-152.123
X64.152Y-139.623
X64.152Y-152.123
X82.477Y-139.598
X82.477Y-152.098
X87.477Y-139.598
X87.477Y-152.098
X105.602Y-139.523
X105.602Y-152.023
X110.602Y-139.523
X110.602Y-152.023
X128.602Y-139.523
X128.602Y-152.023
X133.602Y-139.523
X133.602Y-152.023
X151.502Y-139.498
X151.502Y-151.998
X156.502Y-139.498
X156.502Y-151.998
X174.377Y-139.498
X174.377Y-151.998
X179.377Y-139.498
X179.377Y-151.998
T6
X53.652Y-127.008
X53.652Y-132.088
X108.862Y-52.573
X113.942Y-52.573
X121.947Y-52.598
X127.027Y-52.598
T7
X140.132Y-58.848
X153.272Y-58.848
T8
X52.835Y-52.067
X53.102Y-157.973
X83.713Y-71.862
X83.713Y-126.862
X165.711Y-71.362
X165.713Y-126.362
X184.527Y-157.898
X184.577Y-52.023
M30
