%TF.GenerationSoftware,KiCad,Pcbnew,8.0.3*%
%TF.CreationDate,2025-09-25T14:22:10+05:30*%
%TF.ProjectId,reciever-,72656369-6576-4657-922d-2e6b69636164,rev?*%
%TF.SameCoordinates,Original*%
%TF.FileFunction,Legend,Top*%
%TF.FilePolarity,Positive*%
%FSLAX46Y46*%
G04 Gerber Fmt 4.6, Leading zero omitted, Abs format (unit mm)*
G04 Created by KiCad (PCBNEW 8.0.3) date 2025-09-25 14:22:10*
%MOMM*%
%LPD*%
G01*
G04 APERTURE LIST*
%ADD10C,0.300000*%
%ADD11C,0.100000*%
%ADD12C,0.150000*%
%ADD13C,0.120000*%
%ADD14C,0.152400*%
%ADD15C,0.127000*%
G04 APERTURE END LIST*
D10*
X54229400Y-123445489D02*
X54229400Y-122302632D01*
X54054510Y-135729400D02*
X55197368Y-135729400D01*
X54625939Y-136300828D02*
X54625939Y-135157971D01*
D11*
X167182130Y-126548131D02*
G75*
G02*
X164182130Y-126548131I-1500000J0D01*
G01*
X164182130Y-126548131D02*
G75*
G02*
X167182130Y-126548131I1500000J0D01*
G01*
X85182130Y-126666870D02*
G75*
G02*
X82182130Y-126666870I-1500000J0D01*
G01*
X82182130Y-126666870D02*
G75*
G02*
X85182130Y-126666870I1500000J0D01*
G01*
X167182130Y-71548131D02*
G75*
G02*
X164182130Y-71548131I-1500000J0D01*
G01*
X164182130Y-71548131D02*
G75*
G02*
X167182130Y-71548131I1500000J0D01*
G01*
X85182130Y-71666870D02*
G75*
G02*
X82182130Y-71666870I-1500000J0D01*
G01*
X82182130Y-71666870D02*
G75*
G02*
X85182130Y-71666870I1500000J0D01*
G01*
D10*
X60483082Y-52372257D02*
X61197368Y-52372257D01*
X60340225Y-52800828D02*
X60840225Y-51300828D01*
X60840225Y-51300828D02*
X61340225Y-52800828D01*
X62340224Y-52015114D02*
X62554510Y-52086542D01*
X62554510Y-52086542D02*
X62625939Y-52157971D01*
X62625939Y-52157971D02*
X62697367Y-52300828D01*
X62697367Y-52300828D02*
X62697367Y-52515114D01*
X62697367Y-52515114D02*
X62625939Y-52657971D01*
X62625939Y-52657971D02*
X62554510Y-52729400D01*
X62554510Y-52729400D02*
X62411653Y-52800828D01*
X62411653Y-52800828D02*
X61840224Y-52800828D01*
X61840224Y-52800828D02*
X61840224Y-51300828D01*
X61840224Y-51300828D02*
X62340224Y-51300828D01*
X62340224Y-51300828D02*
X62483082Y-51372257D01*
X62483082Y-51372257D02*
X62554510Y-51443685D01*
X62554510Y-51443685D02*
X62625939Y-51586542D01*
X62625939Y-51586542D02*
X62625939Y-51729400D01*
X62625939Y-51729400D02*
X62554510Y-51872257D01*
X62554510Y-51872257D02*
X62483082Y-51943685D01*
X62483082Y-51943685D02*
X62340224Y-52015114D01*
X62340224Y-52015114D02*
X61840224Y-52015114D01*
X63340224Y-52800828D02*
X63340224Y-51300828D01*
X63340224Y-52015114D02*
X64197367Y-52015114D01*
X64197367Y-52800828D02*
X64197367Y-51300828D01*
X64840225Y-52372257D02*
X65554511Y-52372257D01*
X64697368Y-52800828D02*
X65197368Y-51300828D01*
X65197368Y-51300828D02*
X65697368Y-52800828D01*
X66483082Y-52086542D02*
X66483082Y-52800828D01*
X65983082Y-51300828D02*
X66483082Y-52086542D01*
X66483082Y-52086542D02*
X66983082Y-51300828D01*
X67125939Y-52943685D02*
X68268796Y-52943685D01*
X69483081Y-52657971D02*
X69411653Y-52729400D01*
X69411653Y-52729400D02*
X69197367Y-52800828D01*
X69197367Y-52800828D02*
X69054510Y-52800828D01*
X69054510Y-52800828D02*
X68840224Y-52729400D01*
X68840224Y-52729400D02*
X68697367Y-52586542D01*
X68697367Y-52586542D02*
X68625938Y-52443685D01*
X68625938Y-52443685D02*
X68554510Y-52157971D01*
X68554510Y-52157971D02*
X68554510Y-51943685D01*
X68554510Y-51943685D02*
X68625938Y-51657971D01*
X68625938Y-51657971D02*
X68697367Y-51515114D01*
X68697367Y-51515114D02*
X68840224Y-51372257D01*
X68840224Y-51372257D02*
X69054510Y-51300828D01*
X69054510Y-51300828D02*
X69197367Y-51300828D01*
X69197367Y-51300828D02*
X69411653Y-51372257D01*
X69411653Y-51372257D02*
X69483081Y-51443685D01*
X70125938Y-52800828D02*
X70125938Y-51300828D01*
X70125938Y-51300828D02*
X70697367Y-51300828D01*
X70697367Y-51300828D02*
X70840224Y-51372257D01*
X70840224Y-51372257D02*
X70911653Y-51443685D01*
X70911653Y-51443685D02*
X70983081Y-51586542D01*
X70983081Y-51586542D02*
X70983081Y-51800828D01*
X70983081Y-51800828D02*
X70911653Y-51943685D01*
X70911653Y-51943685D02*
X70840224Y-52015114D01*
X70840224Y-52015114D02*
X70697367Y-52086542D01*
X70697367Y-52086542D02*
X70125938Y-52086542D01*
X71911653Y-51300828D02*
X72054510Y-51300828D01*
X72054510Y-51300828D02*
X72197367Y-51372257D01*
X72197367Y-51372257D02*
X72268796Y-51443685D01*
X72268796Y-51443685D02*
X72340224Y-51586542D01*
X72340224Y-51586542D02*
X72411653Y-51872257D01*
X72411653Y-51872257D02*
X72411653Y-52229400D01*
X72411653Y-52229400D02*
X72340224Y-52515114D01*
X72340224Y-52515114D02*
X72268796Y-52657971D01*
X72268796Y-52657971D02*
X72197367Y-52729400D01*
X72197367Y-52729400D02*
X72054510Y-52800828D01*
X72054510Y-52800828D02*
X71911653Y-52800828D01*
X71911653Y-52800828D02*
X71768796Y-52729400D01*
X71768796Y-52729400D02*
X71697367Y-52657971D01*
X71697367Y-52657971D02*
X71625938Y-52515114D01*
X71625938Y-52515114D02*
X71554510Y-52229400D01*
X71554510Y-52229400D02*
X71554510Y-51872257D01*
X71554510Y-51872257D02*
X71625938Y-51586542D01*
X71625938Y-51586542D02*
X71697367Y-51443685D01*
X71697367Y-51443685D02*
X71768796Y-51372257D01*
X71768796Y-51372257D02*
X71911653Y-51300828D01*
X73340224Y-51300828D02*
X73483081Y-51300828D01*
X73483081Y-51300828D02*
X73625938Y-51372257D01*
X73625938Y-51372257D02*
X73697367Y-51443685D01*
X73697367Y-51443685D02*
X73768795Y-51586542D01*
X73768795Y-51586542D02*
X73840224Y-51872257D01*
X73840224Y-51872257D02*
X73840224Y-52229400D01*
X73840224Y-52229400D02*
X73768795Y-52515114D01*
X73768795Y-52515114D02*
X73697367Y-52657971D01*
X73697367Y-52657971D02*
X73625938Y-52729400D01*
X73625938Y-52729400D02*
X73483081Y-52800828D01*
X73483081Y-52800828D02*
X73340224Y-52800828D01*
X73340224Y-52800828D02*
X73197367Y-52729400D01*
X73197367Y-52729400D02*
X73125938Y-52657971D01*
X73125938Y-52657971D02*
X73054509Y-52515114D01*
X73054509Y-52515114D02*
X72983081Y-52229400D01*
X72983081Y-52229400D02*
X72983081Y-51872257D01*
X72983081Y-51872257D02*
X73054509Y-51586542D01*
X73054509Y-51586542D02*
X73125938Y-51443685D01*
X73125938Y-51443685D02*
X73197367Y-51372257D01*
X73197367Y-51372257D02*
X73340224Y-51300828D01*
X74768795Y-51300828D02*
X74911652Y-51300828D01*
X74911652Y-51300828D02*
X75054509Y-51372257D01*
X75054509Y-51372257D02*
X75125938Y-51443685D01*
X75125938Y-51443685D02*
X75197366Y-51586542D01*
X75197366Y-51586542D02*
X75268795Y-51872257D01*
X75268795Y-51872257D02*
X75268795Y-52229400D01*
X75268795Y-52229400D02*
X75197366Y-52515114D01*
X75197366Y-52515114D02*
X75125938Y-52657971D01*
X75125938Y-52657971D02*
X75054509Y-52729400D01*
X75054509Y-52729400D02*
X74911652Y-52800828D01*
X74911652Y-52800828D02*
X74768795Y-52800828D01*
X74768795Y-52800828D02*
X74625938Y-52729400D01*
X74625938Y-52729400D02*
X74554509Y-52657971D01*
X74554509Y-52657971D02*
X74483080Y-52515114D01*
X74483080Y-52515114D02*
X74411652Y-52229400D01*
X74411652Y-52229400D02*
X74411652Y-51872257D01*
X74411652Y-51872257D02*
X74483080Y-51586542D01*
X74483080Y-51586542D02*
X74554509Y-51443685D01*
X74554509Y-51443685D02*
X74625938Y-51372257D01*
X74625938Y-51372257D02*
X74768795Y-51300828D01*
X76697366Y-52800828D02*
X75840223Y-52800828D01*
X76268794Y-52800828D02*
X76268794Y-51300828D01*
X76268794Y-51300828D02*
X76125937Y-51515114D01*
X76125937Y-51515114D02*
X75983080Y-51657971D01*
X75983080Y-51657971D02*
X75840223Y-51729400D01*
D12*
X90278796Y-73541689D02*
X90278796Y-74255974D01*
X90278796Y-74255974D02*
X90231177Y-74398831D01*
X90231177Y-74398831D02*
X90135939Y-74494070D01*
X90135939Y-74494070D02*
X89993082Y-74541689D01*
X89993082Y-74541689D02*
X89897844Y-74541689D01*
X91231177Y-73541689D02*
X90754987Y-73541689D01*
X90754987Y-73541689D02*
X90707368Y-74017879D01*
X90707368Y-74017879D02*
X90754987Y-73970260D01*
X90754987Y-73970260D02*
X90850225Y-73922641D01*
X90850225Y-73922641D02*
X91088320Y-73922641D01*
X91088320Y-73922641D02*
X91183558Y-73970260D01*
X91183558Y-73970260D02*
X91231177Y-74017879D01*
X91231177Y-74017879D02*
X91278796Y-74113117D01*
X91278796Y-74113117D02*
X91278796Y-74351212D01*
X91278796Y-74351212D02*
X91231177Y-74446450D01*
X91231177Y-74446450D02*
X91183558Y-74494070D01*
X91183558Y-74494070D02*
X91088320Y-74541689D01*
X91088320Y-74541689D02*
X90850225Y-74541689D01*
X90850225Y-74541689D02*
X90754987Y-74494070D01*
X90754987Y-74494070D02*
X90707368Y-74446450D01*
X50254941Y-114728972D02*
X50207322Y-114776592D01*
X50207322Y-114776592D02*
X50064465Y-114824211D01*
X50064465Y-114824211D02*
X49969227Y-114824211D01*
X49969227Y-114824211D02*
X49826370Y-114776592D01*
X49826370Y-114776592D02*
X49731132Y-114681353D01*
X49731132Y-114681353D02*
X49683513Y-114586115D01*
X49683513Y-114586115D02*
X49635894Y-114395639D01*
X49635894Y-114395639D02*
X49635894Y-114252782D01*
X49635894Y-114252782D02*
X49683513Y-114062306D01*
X49683513Y-114062306D02*
X49731132Y-113967068D01*
X49731132Y-113967068D02*
X49826370Y-113871830D01*
X49826370Y-113871830D02*
X49969227Y-113824211D01*
X49969227Y-113824211D02*
X50064465Y-113824211D01*
X50064465Y-113824211D02*
X50207322Y-113871830D01*
X50207322Y-113871830D02*
X50254941Y-113919449D01*
X51112084Y-114157544D02*
X51112084Y-114824211D01*
X50873989Y-113776592D02*
X50635894Y-114490877D01*
X50635894Y-114490877D02*
X51254941Y-114490877D01*
X112593536Y-154955331D02*
X112736393Y-155002950D01*
X112736393Y-155002950D02*
X112974488Y-155002950D01*
X112974488Y-155002950D02*
X113069726Y-154955331D01*
X113069726Y-154955331D02*
X113117345Y-154907711D01*
X113117345Y-154907711D02*
X113164964Y-154812473D01*
X113164964Y-154812473D02*
X113164964Y-154717235D01*
X113164964Y-154717235D02*
X113117345Y-154621997D01*
X113117345Y-154621997D02*
X113069726Y-154574378D01*
X113069726Y-154574378D02*
X112974488Y-154526759D01*
X112974488Y-154526759D02*
X112784012Y-154479140D01*
X112784012Y-154479140D02*
X112688774Y-154431521D01*
X112688774Y-154431521D02*
X112641155Y-154383902D01*
X112641155Y-154383902D02*
X112593536Y-154288664D01*
X112593536Y-154288664D02*
X112593536Y-154193426D01*
X112593536Y-154193426D02*
X112641155Y-154098188D01*
X112641155Y-154098188D02*
X112688774Y-154050569D01*
X112688774Y-154050569D02*
X112784012Y-154002950D01*
X112784012Y-154002950D02*
X113022107Y-154002950D01*
X113022107Y-154002950D02*
X113164964Y-154050569D01*
X113498298Y-154002950D02*
X113736393Y-155002950D01*
X113736393Y-155002950D02*
X113926869Y-154288664D01*
X113926869Y-154288664D02*
X114117345Y-155002950D01*
X114117345Y-155002950D02*
X114355441Y-154002950D01*
X115164964Y-154002950D02*
X114974488Y-154002950D01*
X114974488Y-154002950D02*
X114879250Y-154050569D01*
X114879250Y-154050569D02*
X114831631Y-154098188D01*
X114831631Y-154098188D02*
X114736393Y-154241045D01*
X114736393Y-154241045D02*
X114688774Y-154431521D01*
X114688774Y-154431521D02*
X114688774Y-154812473D01*
X114688774Y-154812473D02*
X114736393Y-154907711D01*
X114736393Y-154907711D02*
X114784012Y-154955331D01*
X114784012Y-154955331D02*
X114879250Y-155002950D01*
X114879250Y-155002950D02*
X115069726Y-155002950D01*
X115069726Y-155002950D02*
X115164964Y-154955331D01*
X115164964Y-154955331D02*
X115212583Y-154907711D01*
X115212583Y-154907711D02*
X115260202Y-154812473D01*
X115260202Y-154812473D02*
X115260202Y-154574378D01*
X115260202Y-154574378D02*
X115212583Y-154479140D01*
X115212583Y-154479140D02*
X115164964Y-154431521D01*
X115164964Y-154431521D02*
X115069726Y-154383902D01*
X115069726Y-154383902D02*
X114879250Y-154383902D01*
X114879250Y-154383902D02*
X114784012Y-154431521D01*
X114784012Y-154431521D02*
X114736393Y-154479140D01*
X114736393Y-154479140D02*
X114688774Y-154574378D01*
X107142857Y-158431009D02*
X107285714Y-158478628D01*
X107285714Y-158478628D02*
X107333333Y-158526247D01*
X107333333Y-158526247D02*
X107380952Y-158621485D01*
X107380952Y-158621485D02*
X107380952Y-158764342D01*
X107380952Y-158764342D02*
X107333333Y-158859580D01*
X107333333Y-158859580D02*
X107285714Y-158907200D01*
X107285714Y-158907200D02*
X107190476Y-158954819D01*
X107190476Y-158954819D02*
X106809524Y-158954819D01*
X106809524Y-158954819D02*
X106809524Y-157954819D01*
X106809524Y-157954819D02*
X107142857Y-157954819D01*
X107142857Y-157954819D02*
X107238095Y-158002438D01*
X107238095Y-158002438D02*
X107285714Y-158050057D01*
X107285714Y-158050057D02*
X107333333Y-158145295D01*
X107333333Y-158145295D02*
X107333333Y-158240533D01*
X107333333Y-158240533D02*
X107285714Y-158335771D01*
X107285714Y-158335771D02*
X107238095Y-158383390D01*
X107238095Y-158383390D02*
X107142857Y-158431009D01*
X107142857Y-158431009D02*
X106809524Y-158431009D01*
X107761905Y-158669104D02*
X108238095Y-158669104D01*
X107666667Y-158954819D02*
X108000000Y-157954819D01*
X108000000Y-157954819D02*
X108333333Y-158954819D01*
X109238095Y-158859580D02*
X109190476Y-158907200D01*
X109190476Y-158907200D02*
X109047619Y-158954819D01*
X109047619Y-158954819D02*
X108952381Y-158954819D01*
X108952381Y-158954819D02*
X108809524Y-158907200D01*
X108809524Y-158907200D02*
X108714286Y-158811961D01*
X108714286Y-158811961D02*
X108666667Y-158716723D01*
X108666667Y-158716723D02*
X108619048Y-158526247D01*
X108619048Y-158526247D02*
X108619048Y-158383390D01*
X108619048Y-158383390D02*
X108666667Y-158192914D01*
X108666667Y-158192914D02*
X108714286Y-158097676D01*
X108714286Y-158097676D02*
X108809524Y-158002438D01*
X108809524Y-158002438D02*
X108952381Y-157954819D01*
X108952381Y-157954819D02*
X109047619Y-157954819D01*
X109047619Y-157954819D02*
X109190476Y-158002438D01*
X109190476Y-158002438D02*
X109238095Y-158050057D01*
X109666667Y-158954819D02*
X109666667Y-157954819D01*
X110238095Y-158954819D02*
X109809524Y-158383390D01*
X110238095Y-157954819D02*
X109666667Y-158526247D01*
X74333333Y-119359580D02*
X74285714Y-119407200D01*
X74285714Y-119407200D02*
X74142857Y-119454819D01*
X74142857Y-119454819D02*
X74047619Y-119454819D01*
X74047619Y-119454819D02*
X73904762Y-119407200D01*
X73904762Y-119407200D02*
X73809524Y-119311961D01*
X73809524Y-119311961D02*
X73761905Y-119216723D01*
X73761905Y-119216723D02*
X73714286Y-119026247D01*
X73714286Y-119026247D02*
X73714286Y-118883390D01*
X73714286Y-118883390D02*
X73761905Y-118692914D01*
X73761905Y-118692914D02*
X73809524Y-118597676D01*
X73809524Y-118597676D02*
X73904762Y-118502438D01*
X73904762Y-118502438D02*
X74047619Y-118454819D01*
X74047619Y-118454819D02*
X74142857Y-118454819D01*
X74142857Y-118454819D02*
X74285714Y-118502438D01*
X74285714Y-118502438D02*
X74333333Y-118550057D01*
X74904762Y-118883390D02*
X74809524Y-118835771D01*
X74809524Y-118835771D02*
X74761905Y-118788152D01*
X74761905Y-118788152D02*
X74714286Y-118692914D01*
X74714286Y-118692914D02*
X74714286Y-118645295D01*
X74714286Y-118645295D02*
X74761905Y-118550057D01*
X74761905Y-118550057D02*
X74809524Y-118502438D01*
X74809524Y-118502438D02*
X74904762Y-118454819D01*
X74904762Y-118454819D02*
X75095238Y-118454819D01*
X75095238Y-118454819D02*
X75190476Y-118502438D01*
X75190476Y-118502438D02*
X75238095Y-118550057D01*
X75238095Y-118550057D02*
X75285714Y-118645295D01*
X75285714Y-118645295D02*
X75285714Y-118692914D01*
X75285714Y-118692914D02*
X75238095Y-118788152D01*
X75238095Y-118788152D02*
X75190476Y-118835771D01*
X75190476Y-118835771D02*
X75095238Y-118883390D01*
X75095238Y-118883390D02*
X74904762Y-118883390D01*
X74904762Y-118883390D02*
X74809524Y-118931009D01*
X74809524Y-118931009D02*
X74761905Y-118978628D01*
X74761905Y-118978628D02*
X74714286Y-119073866D01*
X74714286Y-119073866D02*
X74714286Y-119264342D01*
X74714286Y-119264342D02*
X74761905Y-119359580D01*
X74761905Y-119359580D02*
X74809524Y-119407200D01*
X74809524Y-119407200D02*
X74904762Y-119454819D01*
X74904762Y-119454819D02*
X75095238Y-119454819D01*
X75095238Y-119454819D02*
X75190476Y-119407200D01*
X75190476Y-119407200D02*
X75238095Y-119359580D01*
X75238095Y-119359580D02*
X75285714Y-119264342D01*
X75285714Y-119264342D02*
X75285714Y-119073866D01*
X75285714Y-119073866D02*
X75238095Y-118978628D01*
X75238095Y-118978628D02*
X75190476Y-118931009D01*
X75190476Y-118931009D02*
X75095238Y-118883390D01*
X178567773Y-136286449D02*
X178520154Y-136334069D01*
X178520154Y-136334069D02*
X178377297Y-136381688D01*
X178377297Y-136381688D02*
X178282059Y-136381688D01*
X178282059Y-136381688D02*
X178139202Y-136334069D01*
X178139202Y-136334069D02*
X178043964Y-136238830D01*
X178043964Y-136238830D02*
X177996345Y-136143592D01*
X177996345Y-136143592D02*
X177948726Y-135953116D01*
X177948726Y-135953116D02*
X177948726Y-135810259D01*
X177948726Y-135810259D02*
X177996345Y-135619783D01*
X177996345Y-135619783D02*
X178043964Y-135524545D01*
X178043964Y-135524545D02*
X178139202Y-135429307D01*
X178139202Y-135429307D02*
X178282059Y-135381688D01*
X178282059Y-135381688D02*
X178377297Y-135381688D01*
X178377297Y-135381688D02*
X178520154Y-135429307D01*
X178520154Y-135429307D02*
X178567773Y-135476926D01*
X179520154Y-136381688D02*
X178948726Y-136381688D01*
X179234440Y-136381688D02*
X179234440Y-135381688D01*
X179234440Y-135381688D02*
X179139202Y-135524545D01*
X179139202Y-135524545D02*
X179043964Y-135619783D01*
X179043964Y-135619783D02*
X178948726Y-135667402D01*
X180472535Y-136381688D02*
X179901107Y-136381688D01*
X180186821Y-136381688D02*
X180186821Y-135381688D01*
X180186821Y-135381688D02*
X180091583Y-135524545D01*
X180091583Y-135524545D02*
X179996345Y-135619783D01*
X179996345Y-135619783D02*
X179901107Y-135667402D01*
X164950979Y-122316351D02*
X164950979Y-121316351D01*
X164950979Y-121792541D02*
X165522407Y-121792541D01*
X165522407Y-122316351D02*
X165522407Y-121316351D01*
X165903360Y-121316351D02*
X166522407Y-121316351D01*
X166522407Y-121316351D02*
X166189074Y-121697303D01*
X166189074Y-121697303D02*
X166331931Y-121697303D01*
X166331931Y-121697303D02*
X166427169Y-121744922D01*
X166427169Y-121744922D02*
X166474788Y-121792541D01*
X166474788Y-121792541D02*
X166522407Y-121887779D01*
X166522407Y-121887779D02*
X166522407Y-122125874D01*
X166522407Y-122125874D02*
X166474788Y-122221112D01*
X166474788Y-122221112D02*
X166427169Y-122268732D01*
X166427169Y-122268732D02*
X166331931Y-122316351D01*
X166331931Y-122316351D02*
X166046217Y-122316351D01*
X166046217Y-122316351D02*
X165950979Y-122268732D01*
X165950979Y-122268732D02*
X165903360Y-122221112D01*
X66243536Y-154905331D02*
X66386393Y-154952950D01*
X66386393Y-154952950D02*
X66624488Y-154952950D01*
X66624488Y-154952950D02*
X66719726Y-154905331D01*
X66719726Y-154905331D02*
X66767345Y-154857711D01*
X66767345Y-154857711D02*
X66814964Y-154762473D01*
X66814964Y-154762473D02*
X66814964Y-154667235D01*
X66814964Y-154667235D02*
X66767345Y-154571997D01*
X66767345Y-154571997D02*
X66719726Y-154524378D01*
X66719726Y-154524378D02*
X66624488Y-154476759D01*
X66624488Y-154476759D02*
X66434012Y-154429140D01*
X66434012Y-154429140D02*
X66338774Y-154381521D01*
X66338774Y-154381521D02*
X66291155Y-154333902D01*
X66291155Y-154333902D02*
X66243536Y-154238664D01*
X66243536Y-154238664D02*
X66243536Y-154143426D01*
X66243536Y-154143426D02*
X66291155Y-154048188D01*
X66291155Y-154048188D02*
X66338774Y-154000569D01*
X66338774Y-154000569D02*
X66434012Y-153952950D01*
X66434012Y-153952950D02*
X66672107Y-153952950D01*
X66672107Y-153952950D02*
X66814964Y-154000569D01*
X67148298Y-153952950D02*
X67386393Y-154952950D01*
X67386393Y-154952950D02*
X67576869Y-154238664D01*
X67576869Y-154238664D02*
X67767345Y-154952950D01*
X67767345Y-154952950D02*
X68005441Y-153952950D01*
X68291155Y-153952950D02*
X68957821Y-153952950D01*
X68957821Y-153952950D02*
X68529250Y-154952950D01*
X60261905Y-158954819D02*
X60261905Y-157954819D01*
X60261905Y-157954819D02*
X60833333Y-158954819D01*
X60833333Y-158954819D02*
X60833333Y-157954819D01*
X61309524Y-157954819D02*
X61309524Y-158764342D01*
X61309524Y-158764342D02*
X61357143Y-158859580D01*
X61357143Y-158859580D02*
X61404762Y-158907200D01*
X61404762Y-158907200D02*
X61500000Y-158954819D01*
X61500000Y-158954819D02*
X61690476Y-158954819D01*
X61690476Y-158954819D02*
X61785714Y-158907200D01*
X61785714Y-158907200D02*
X61833333Y-158859580D01*
X61833333Y-158859580D02*
X61880952Y-158764342D01*
X61880952Y-158764342D02*
X61880952Y-157954819D01*
X62357143Y-158954819D02*
X62357143Y-157954819D01*
X62357143Y-157954819D02*
X62690476Y-158669104D01*
X62690476Y-158669104D02*
X63023809Y-157954819D01*
X63023809Y-157954819D02*
X63023809Y-158954819D01*
X63261905Y-159050057D02*
X64023809Y-159050057D01*
X64785714Y-158954819D02*
X64214286Y-158954819D01*
X64500000Y-158954819D02*
X64500000Y-157954819D01*
X64500000Y-157954819D02*
X64404762Y-158097676D01*
X64404762Y-158097676D02*
X64309524Y-158192914D01*
X64309524Y-158192914D02*
X64214286Y-158240533D01*
X89438536Y-154955331D02*
X89581393Y-155002950D01*
X89581393Y-155002950D02*
X89819488Y-155002950D01*
X89819488Y-155002950D02*
X89914726Y-154955331D01*
X89914726Y-154955331D02*
X89962345Y-154907711D01*
X89962345Y-154907711D02*
X90009964Y-154812473D01*
X90009964Y-154812473D02*
X90009964Y-154717235D01*
X90009964Y-154717235D02*
X89962345Y-154621997D01*
X89962345Y-154621997D02*
X89914726Y-154574378D01*
X89914726Y-154574378D02*
X89819488Y-154526759D01*
X89819488Y-154526759D02*
X89629012Y-154479140D01*
X89629012Y-154479140D02*
X89533774Y-154431521D01*
X89533774Y-154431521D02*
X89486155Y-154383902D01*
X89486155Y-154383902D02*
X89438536Y-154288664D01*
X89438536Y-154288664D02*
X89438536Y-154193426D01*
X89438536Y-154193426D02*
X89486155Y-154098188D01*
X89486155Y-154098188D02*
X89533774Y-154050569D01*
X89533774Y-154050569D02*
X89629012Y-154002950D01*
X89629012Y-154002950D02*
X89867107Y-154002950D01*
X89867107Y-154002950D02*
X90009964Y-154050569D01*
X90343298Y-154002950D02*
X90581393Y-155002950D01*
X90581393Y-155002950D02*
X90771869Y-154288664D01*
X90771869Y-154288664D02*
X90962345Y-155002950D01*
X90962345Y-155002950D02*
X91200441Y-154002950D01*
X91533774Y-154098188D02*
X91581393Y-154050569D01*
X91581393Y-154050569D02*
X91676631Y-154002950D01*
X91676631Y-154002950D02*
X91914726Y-154002950D01*
X91914726Y-154002950D02*
X92009964Y-154050569D01*
X92009964Y-154050569D02*
X92057583Y-154098188D01*
X92057583Y-154098188D02*
X92105202Y-154193426D01*
X92105202Y-154193426D02*
X92105202Y-154288664D01*
X92105202Y-154288664D02*
X92057583Y-154431521D01*
X92057583Y-154431521D02*
X91486155Y-155002950D01*
X91486155Y-155002950D02*
X92105202Y-155002950D01*
X82761905Y-158954819D02*
X82761905Y-157954819D01*
X82761905Y-157954819D02*
X83333333Y-158954819D01*
X83333333Y-158954819D02*
X83333333Y-157954819D01*
X83809524Y-157954819D02*
X83809524Y-158764342D01*
X83809524Y-158764342D02*
X83857143Y-158859580D01*
X83857143Y-158859580D02*
X83904762Y-158907200D01*
X83904762Y-158907200D02*
X84000000Y-158954819D01*
X84000000Y-158954819D02*
X84190476Y-158954819D01*
X84190476Y-158954819D02*
X84285714Y-158907200D01*
X84285714Y-158907200D02*
X84333333Y-158859580D01*
X84333333Y-158859580D02*
X84380952Y-158764342D01*
X84380952Y-158764342D02*
X84380952Y-157954819D01*
X84857143Y-158954819D02*
X84857143Y-157954819D01*
X84857143Y-157954819D02*
X85190476Y-158669104D01*
X85190476Y-158669104D02*
X85523809Y-157954819D01*
X85523809Y-157954819D02*
X85523809Y-158954819D01*
X85761905Y-159050057D02*
X86523809Y-159050057D01*
X86714286Y-158050057D02*
X86761905Y-158002438D01*
X86761905Y-158002438D02*
X86857143Y-157954819D01*
X86857143Y-157954819D02*
X87095238Y-157954819D01*
X87095238Y-157954819D02*
X87190476Y-158002438D01*
X87190476Y-158002438D02*
X87238095Y-158050057D01*
X87238095Y-158050057D02*
X87285714Y-158145295D01*
X87285714Y-158145295D02*
X87285714Y-158240533D01*
X87285714Y-158240533D02*
X87238095Y-158383390D01*
X87238095Y-158383390D02*
X86666667Y-158954819D01*
X86666667Y-158954819D02*
X87285714Y-158954819D01*
X164949458Y-67316876D02*
X164949458Y-66316876D01*
X164949458Y-66793066D02*
X165520886Y-66793066D01*
X165520886Y-67316876D02*
X165520886Y-66316876D01*
X166425648Y-66650209D02*
X166425648Y-67316876D01*
X166187553Y-66269257D02*
X165949458Y-66983542D01*
X165949458Y-66983542D02*
X166568505Y-66983542D01*
X63333333Y-119454819D02*
X63000000Y-118978628D01*
X62761905Y-119454819D02*
X62761905Y-118454819D01*
X62761905Y-118454819D02*
X63142857Y-118454819D01*
X63142857Y-118454819D02*
X63238095Y-118502438D01*
X63238095Y-118502438D02*
X63285714Y-118550057D01*
X63285714Y-118550057D02*
X63333333Y-118645295D01*
X63333333Y-118645295D02*
X63333333Y-118788152D01*
X63333333Y-118788152D02*
X63285714Y-118883390D01*
X63285714Y-118883390D02*
X63238095Y-118931009D01*
X63238095Y-118931009D02*
X63142857Y-118978628D01*
X63142857Y-118978628D02*
X62761905Y-118978628D01*
X63714286Y-118550057D02*
X63761905Y-118502438D01*
X63761905Y-118502438D02*
X63857143Y-118454819D01*
X63857143Y-118454819D02*
X64095238Y-118454819D01*
X64095238Y-118454819D02*
X64190476Y-118502438D01*
X64190476Y-118502438D02*
X64238095Y-118550057D01*
X64238095Y-118550057D02*
X64285714Y-118645295D01*
X64285714Y-118645295D02*
X64285714Y-118740533D01*
X64285714Y-118740533D02*
X64238095Y-118883390D01*
X64238095Y-118883390D02*
X63666667Y-119454819D01*
X63666667Y-119454819D02*
X64285714Y-119454819D01*
X75738095Y-72954819D02*
X75738095Y-73764342D01*
X75738095Y-73764342D02*
X75785714Y-73859580D01*
X75785714Y-73859580D02*
X75833333Y-73907200D01*
X75833333Y-73907200D02*
X75928571Y-73954819D01*
X75928571Y-73954819D02*
X76119047Y-73954819D01*
X76119047Y-73954819D02*
X76214285Y-73907200D01*
X76214285Y-73907200D02*
X76261904Y-73859580D01*
X76261904Y-73859580D02*
X76309523Y-73764342D01*
X76309523Y-73764342D02*
X76309523Y-72954819D01*
X76738095Y-73050057D02*
X76785714Y-73002438D01*
X76785714Y-73002438D02*
X76880952Y-72954819D01*
X76880952Y-72954819D02*
X77119047Y-72954819D01*
X77119047Y-72954819D02*
X77214285Y-73002438D01*
X77214285Y-73002438D02*
X77261904Y-73050057D01*
X77261904Y-73050057D02*
X77309523Y-73145295D01*
X77309523Y-73145295D02*
X77309523Y-73240533D01*
X77309523Y-73240533D02*
X77261904Y-73383390D01*
X77261904Y-73383390D02*
X76690476Y-73954819D01*
X76690476Y-73954819D02*
X77309523Y-73954819D01*
X112857142Y-136359580D02*
X112809523Y-136407200D01*
X112809523Y-136407200D02*
X112666666Y-136454819D01*
X112666666Y-136454819D02*
X112571428Y-136454819D01*
X112571428Y-136454819D02*
X112428571Y-136407200D01*
X112428571Y-136407200D02*
X112333333Y-136311961D01*
X112333333Y-136311961D02*
X112285714Y-136216723D01*
X112285714Y-136216723D02*
X112238095Y-136026247D01*
X112238095Y-136026247D02*
X112238095Y-135883390D01*
X112238095Y-135883390D02*
X112285714Y-135692914D01*
X112285714Y-135692914D02*
X112333333Y-135597676D01*
X112333333Y-135597676D02*
X112428571Y-135502438D01*
X112428571Y-135502438D02*
X112571428Y-135454819D01*
X112571428Y-135454819D02*
X112666666Y-135454819D01*
X112666666Y-135454819D02*
X112809523Y-135502438D01*
X112809523Y-135502438D02*
X112857142Y-135550057D01*
X113809523Y-136454819D02*
X113238095Y-136454819D01*
X113523809Y-136454819D02*
X113523809Y-135454819D01*
X113523809Y-135454819D02*
X113428571Y-135597676D01*
X113428571Y-135597676D02*
X113333333Y-135692914D01*
X113333333Y-135692914D02*
X113238095Y-135740533D01*
X114142857Y-135454819D02*
X114761904Y-135454819D01*
X114761904Y-135454819D02*
X114428571Y-135835771D01*
X114428571Y-135835771D02*
X114571428Y-135835771D01*
X114571428Y-135835771D02*
X114666666Y-135883390D01*
X114666666Y-135883390D02*
X114714285Y-135931009D01*
X114714285Y-135931009D02*
X114761904Y-136026247D01*
X114761904Y-136026247D02*
X114761904Y-136264342D01*
X114761904Y-136264342D02*
X114714285Y-136359580D01*
X114714285Y-136359580D02*
X114666666Y-136407200D01*
X114666666Y-136407200D02*
X114571428Y-136454819D01*
X114571428Y-136454819D02*
X114285714Y-136454819D01*
X114285714Y-136454819D02*
X114190476Y-136407200D01*
X114190476Y-136407200D02*
X114142857Y-136359580D01*
X82950979Y-122816351D02*
X82950979Y-121816351D01*
X82950979Y-122292541D02*
X83522407Y-122292541D01*
X83522407Y-122816351D02*
X83522407Y-121816351D01*
X83950979Y-121911589D02*
X83998598Y-121863970D01*
X83998598Y-121863970D02*
X84093836Y-121816351D01*
X84093836Y-121816351D02*
X84331931Y-121816351D01*
X84331931Y-121816351D02*
X84427169Y-121863970D01*
X84427169Y-121863970D02*
X84474788Y-121911589D01*
X84474788Y-121911589D02*
X84522407Y-122006827D01*
X84522407Y-122006827D02*
X84522407Y-122102065D01*
X84522407Y-122102065D02*
X84474788Y-122244922D01*
X84474788Y-122244922D02*
X83903360Y-122816351D01*
X83903360Y-122816351D02*
X84522407Y-122816351D01*
X135613536Y-154690331D02*
X135756393Y-154737950D01*
X135756393Y-154737950D02*
X135994488Y-154737950D01*
X135994488Y-154737950D02*
X136089726Y-154690331D01*
X136089726Y-154690331D02*
X136137345Y-154642711D01*
X136137345Y-154642711D02*
X136184964Y-154547473D01*
X136184964Y-154547473D02*
X136184964Y-154452235D01*
X136184964Y-154452235D02*
X136137345Y-154356997D01*
X136137345Y-154356997D02*
X136089726Y-154309378D01*
X136089726Y-154309378D02*
X135994488Y-154261759D01*
X135994488Y-154261759D02*
X135804012Y-154214140D01*
X135804012Y-154214140D02*
X135708774Y-154166521D01*
X135708774Y-154166521D02*
X135661155Y-154118902D01*
X135661155Y-154118902D02*
X135613536Y-154023664D01*
X135613536Y-154023664D02*
X135613536Y-153928426D01*
X135613536Y-153928426D02*
X135661155Y-153833188D01*
X135661155Y-153833188D02*
X135708774Y-153785569D01*
X135708774Y-153785569D02*
X135804012Y-153737950D01*
X135804012Y-153737950D02*
X136042107Y-153737950D01*
X136042107Y-153737950D02*
X136184964Y-153785569D01*
X136518298Y-153737950D02*
X136756393Y-154737950D01*
X136756393Y-154737950D02*
X136946869Y-154023664D01*
X136946869Y-154023664D02*
X137137345Y-154737950D01*
X137137345Y-154737950D02*
X137375441Y-153737950D01*
X137661155Y-153737950D02*
X138280202Y-153737950D01*
X138280202Y-153737950D02*
X137946869Y-154118902D01*
X137946869Y-154118902D02*
X138089726Y-154118902D01*
X138089726Y-154118902D02*
X138184964Y-154166521D01*
X138184964Y-154166521D02*
X138232583Y-154214140D01*
X138232583Y-154214140D02*
X138280202Y-154309378D01*
X138280202Y-154309378D02*
X138280202Y-154547473D01*
X138280202Y-154547473D02*
X138232583Y-154642711D01*
X138232583Y-154642711D02*
X138184964Y-154690331D01*
X138184964Y-154690331D02*
X138089726Y-154737950D01*
X138089726Y-154737950D02*
X137804012Y-154737950D01*
X137804012Y-154737950D02*
X137708774Y-154690331D01*
X137708774Y-154690331D02*
X137661155Y-154642711D01*
X129333333Y-157954819D02*
X129333333Y-158764342D01*
X129333333Y-158764342D02*
X129380952Y-158859580D01*
X129380952Y-158859580D02*
X129428571Y-158907200D01*
X129428571Y-158907200D02*
X129523809Y-158954819D01*
X129523809Y-158954819D02*
X129714285Y-158954819D01*
X129714285Y-158954819D02*
X129809523Y-158907200D01*
X129809523Y-158907200D02*
X129857142Y-158859580D01*
X129857142Y-158859580D02*
X129904761Y-158764342D01*
X129904761Y-158764342D02*
X129904761Y-157954819D01*
X130380952Y-158954819D02*
X130380952Y-157954819D01*
X130380952Y-157954819D02*
X130761904Y-157954819D01*
X130761904Y-157954819D02*
X130857142Y-158002438D01*
X130857142Y-158002438D02*
X130904761Y-158050057D01*
X130904761Y-158050057D02*
X130952380Y-158145295D01*
X130952380Y-158145295D02*
X130952380Y-158288152D01*
X130952380Y-158288152D02*
X130904761Y-158383390D01*
X130904761Y-158383390D02*
X130857142Y-158431009D01*
X130857142Y-158431009D02*
X130761904Y-158478628D01*
X130761904Y-158478628D02*
X130380952Y-158478628D01*
X76889964Y-127722950D02*
X76889964Y-128532473D01*
X76889964Y-128532473D02*
X76937583Y-128627711D01*
X76937583Y-128627711D02*
X76985202Y-128675331D01*
X76985202Y-128675331D02*
X77080440Y-128722950D01*
X77080440Y-128722950D02*
X77270916Y-128722950D01*
X77270916Y-128722950D02*
X77366154Y-128675331D01*
X77366154Y-128675331D02*
X77413773Y-128627711D01*
X77413773Y-128627711D02*
X77461392Y-128532473D01*
X77461392Y-128532473D02*
X77461392Y-127722950D01*
X77842345Y-127722950D02*
X78461392Y-127722950D01*
X78461392Y-127722950D02*
X78128059Y-128103902D01*
X78128059Y-128103902D02*
X78270916Y-128103902D01*
X78270916Y-128103902D02*
X78366154Y-128151521D01*
X78366154Y-128151521D02*
X78413773Y-128199140D01*
X78413773Y-128199140D02*
X78461392Y-128294378D01*
X78461392Y-128294378D02*
X78461392Y-128532473D01*
X78461392Y-128532473D02*
X78413773Y-128627711D01*
X78413773Y-128627711D02*
X78366154Y-128675331D01*
X78366154Y-128675331D02*
X78270916Y-128722950D01*
X78270916Y-128722950D02*
X77985202Y-128722950D01*
X77985202Y-128722950D02*
X77889964Y-128675331D01*
X77889964Y-128675331D02*
X77842345Y-128627711D01*
X63333333Y-124362295D02*
X63000000Y-123981342D01*
X62761905Y-124362295D02*
X62761905Y-123562295D01*
X62761905Y-123562295D02*
X63142857Y-123562295D01*
X63142857Y-123562295D02*
X63238095Y-123600390D01*
X63238095Y-123600390D02*
X63285714Y-123638485D01*
X63285714Y-123638485D02*
X63333333Y-123714676D01*
X63333333Y-123714676D02*
X63333333Y-123828961D01*
X63333333Y-123828961D02*
X63285714Y-123905152D01*
X63285714Y-123905152D02*
X63238095Y-123943247D01*
X63238095Y-123943247D02*
X63142857Y-123981342D01*
X63142857Y-123981342D02*
X62761905Y-123981342D01*
X63666667Y-123562295D02*
X64285714Y-123562295D01*
X64285714Y-123562295D02*
X63952381Y-123867057D01*
X63952381Y-123867057D02*
X64095238Y-123867057D01*
X64095238Y-123867057D02*
X64190476Y-123905152D01*
X64190476Y-123905152D02*
X64238095Y-123943247D01*
X64238095Y-123943247D02*
X64285714Y-124019438D01*
X64285714Y-124019438D02*
X64285714Y-124209914D01*
X64285714Y-124209914D02*
X64238095Y-124286104D01*
X64238095Y-124286104D02*
X64190476Y-124324200D01*
X64190476Y-124324200D02*
X64095238Y-124362295D01*
X64095238Y-124362295D02*
X63809524Y-124362295D01*
X63809524Y-124362295D02*
X63714286Y-124324200D01*
X63714286Y-124324200D02*
X63666667Y-124286104D01*
X157857142Y-136859580D02*
X157809523Y-136907200D01*
X157809523Y-136907200D02*
X157666666Y-136954819D01*
X157666666Y-136954819D02*
X157571428Y-136954819D01*
X157571428Y-136954819D02*
X157428571Y-136907200D01*
X157428571Y-136907200D02*
X157333333Y-136811961D01*
X157333333Y-136811961D02*
X157285714Y-136716723D01*
X157285714Y-136716723D02*
X157238095Y-136526247D01*
X157238095Y-136526247D02*
X157238095Y-136383390D01*
X157238095Y-136383390D02*
X157285714Y-136192914D01*
X157285714Y-136192914D02*
X157333333Y-136097676D01*
X157333333Y-136097676D02*
X157428571Y-136002438D01*
X157428571Y-136002438D02*
X157571428Y-135954819D01*
X157571428Y-135954819D02*
X157666666Y-135954819D01*
X157666666Y-135954819D02*
X157809523Y-136002438D01*
X157809523Y-136002438D02*
X157857142Y-136050057D01*
X158809523Y-136954819D02*
X158238095Y-136954819D01*
X158523809Y-136954819D02*
X158523809Y-135954819D01*
X158523809Y-135954819D02*
X158428571Y-136097676D01*
X158428571Y-136097676D02*
X158333333Y-136192914D01*
X158333333Y-136192914D02*
X158238095Y-136240533D01*
X159190476Y-136050057D02*
X159238095Y-136002438D01*
X159238095Y-136002438D02*
X159333333Y-135954819D01*
X159333333Y-135954819D02*
X159571428Y-135954819D01*
X159571428Y-135954819D02*
X159666666Y-136002438D01*
X159666666Y-136002438D02*
X159714285Y-136050057D01*
X159714285Y-136050057D02*
X159761904Y-136145295D01*
X159761904Y-136145295D02*
X159761904Y-136240533D01*
X159761904Y-136240533D02*
X159714285Y-136383390D01*
X159714285Y-136383390D02*
X159142857Y-136954819D01*
X159142857Y-136954819D02*
X159761904Y-136954819D01*
X76985202Y-119907711D02*
X76937583Y-119955331D01*
X76937583Y-119955331D02*
X76794726Y-120002950D01*
X76794726Y-120002950D02*
X76699488Y-120002950D01*
X76699488Y-120002950D02*
X76556631Y-119955331D01*
X76556631Y-119955331D02*
X76461393Y-119860092D01*
X76461393Y-119860092D02*
X76413774Y-119764854D01*
X76413774Y-119764854D02*
X76366155Y-119574378D01*
X76366155Y-119574378D02*
X76366155Y-119431521D01*
X76366155Y-119431521D02*
X76413774Y-119241045D01*
X76413774Y-119241045D02*
X76461393Y-119145807D01*
X76461393Y-119145807D02*
X76556631Y-119050569D01*
X76556631Y-119050569D02*
X76699488Y-119002950D01*
X76699488Y-119002950D02*
X76794726Y-119002950D01*
X76794726Y-119002950D02*
X76937583Y-119050569D01*
X76937583Y-119050569D02*
X76985202Y-119098188D01*
X77318536Y-119002950D02*
X77985202Y-119002950D01*
X77985202Y-119002950D02*
X77556631Y-120002950D01*
X78738095Y-100454819D02*
X78738095Y-101264342D01*
X78738095Y-101264342D02*
X78785714Y-101359580D01*
X78785714Y-101359580D02*
X78833333Y-101407200D01*
X78833333Y-101407200D02*
X78928571Y-101454819D01*
X78928571Y-101454819D02*
X79119047Y-101454819D01*
X79119047Y-101454819D02*
X79214285Y-101407200D01*
X79214285Y-101407200D02*
X79261904Y-101359580D01*
X79261904Y-101359580D02*
X79309523Y-101264342D01*
X79309523Y-101264342D02*
X79309523Y-100454819D01*
X80309523Y-101454819D02*
X79738095Y-101454819D01*
X80023809Y-101454819D02*
X80023809Y-100454819D01*
X80023809Y-100454819D02*
X79928571Y-100597676D01*
X79928571Y-100597676D02*
X79833333Y-100692914D01*
X79833333Y-100692914D02*
X79738095Y-100740533D01*
X58694819Y-112134299D02*
X58932914Y-112134299D01*
X58837676Y-112372394D02*
X58932914Y-112134299D01*
X58932914Y-112134299D02*
X58837676Y-111896204D01*
X59123390Y-112277156D02*
X58932914Y-112134299D01*
X58932914Y-112134299D02*
X59123390Y-111991442D01*
X58694819Y-112134299D02*
X58932914Y-112134299D01*
X58837676Y-112372394D02*
X58932914Y-112134299D01*
X58932914Y-112134299D02*
X58837676Y-111896204D01*
X59123390Y-112277156D02*
X58932914Y-112134299D01*
X58932914Y-112134299D02*
X59123390Y-111991442D01*
X83450979Y-67816351D02*
X83450979Y-66816351D01*
X83450979Y-67292541D02*
X84022407Y-67292541D01*
X84022407Y-67816351D02*
X84022407Y-66816351D01*
X85022407Y-67816351D02*
X84450979Y-67816351D01*
X84736693Y-67816351D02*
X84736693Y-66816351D01*
X84736693Y-66816351D02*
X84641455Y-66959208D01*
X84641455Y-66959208D02*
X84546217Y-67054446D01*
X84546217Y-67054446D02*
X84450979Y-67102065D01*
X54818160Y-71702345D02*
X54818160Y-72417435D01*
X54818160Y-72417435D02*
X54770487Y-72560453D01*
X54770487Y-72560453D02*
X54675142Y-72655799D01*
X54675142Y-72655799D02*
X54532124Y-72703471D01*
X54532124Y-72703471D02*
X54436779Y-72703471D01*
X55247214Y-71797691D02*
X55294887Y-71750018D01*
X55294887Y-71750018D02*
X55390232Y-71702345D01*
X55390232Y-71702345D02*
X55628596Y-71702345D01*
X55628596Y-71702345D02*
X55723941Y-71750018D01*
X55723941Y-71750018D02*
X55771614Y-71797691D01*
X55771614Y-71797691D02*
X55819286Y-71893036D01*
X55819286Y-71893036D02*
X55819286Y-71988381D01*
X55819286Y-71988381D02*
X55771614Y-72131399D01*
X55771614Y-72131399D02*
X55199542Y-72703471D01*
X55199542Y-72703471D02*
X55819286Y-72703471D01*
X158293536Y-154855331D02*
X158436393Y-154902950D01*
X158436393Y-154902950D02*
X158674488Y-154902950D01*
X158674488Y-154902950D02*
X158769726Y-154855331D01*
X158769726Y-154855331D02*
X158817345Y-154807711D01*
X158817345Y-154807711D02*
X158864964Y-154712473D01*
X158864964Y-154712473D02*
X158864964Y-154617235D01*
X158864964Y-154617235D02*
X158817345Y-154521997D01*
X158817345Y-154521997D02*
X158769726Y-154474378D01*
X158769726Y-154474378D02*
X158674488Y-154426759D01*
X158674488Y-154426759D02*
X158484012Y-154379140D01*
X158484012Y-154379140D02*
X158388774Y-154331521D01*
X158388774Y-154331521D02*
X158341155Y-154283902D01*
X158341155Y-154283902D02*
X158293536Y-154188664D01*
X158293536Y-154188664D02*
X158293536Y-154093426D01*
X158293536Y-154093426D02*
X158341155Y-153998188D01*
X158341155Y-153998188D02*
X158388774Y-153950569D01*
X158388774Y-153950569D02*
X158484012Y-153902950D01*
X158484012Y-153902950D02*
X158722107Y-153902950D01*
X158722107Y-153902950D02*
X158864964Y-153950569D01*
X159198298Y-153902950D02*
X159436393Y-154902950D01*
X159436393Y-154902950D02*
X159626869Y-154188664D01*
X159626869Y-154188664D02*
X159817345Y-154902950D01*
X159817345Y-154902950D02*
X160055441Y-153902950D01*
X160912583Y-153902950D02*
X160436393Y-153902950D01*
X160436393Y-153902950D02*
X160388774Y-154379140D01*
X160388774Y-154379140D02*
X160436393Y-154331521D01*
X160436393Y-154331521D02*
X160531631Y-154283902D01*
X160531631Y-154283902D02*
X160769726Y-154283902D01*
X160769726Y-154283902D02*
X160864964Y-154331521D01*
X160864964Y-154331521D02*
X160912583Y-154379140D01*
X160912583Y-154379140D02*
X160960202Y-154474378D01*
X160960202Y-154474378D02*
X160960202Y-154712473D01*
X160960202Y-154712473D02*
X160912583Y-154807711D01*
X160912583Y-154807711D02*
X160864964Y-154855331D01*
X160864964Y-154855331D02*
X160769726Y-154902950D01*
X160769726Y-154902950D02*
X160531631Y-154902950D01*
X160531631Y-154902950D02*
X160436393Y-154855331D01*
X160436393Y-154855331D02*
X160388774Y-154807711D01*
X152904762Y-158954819D02*
X152904762Y-157954819D01*
X152904762Y-157954819D02*
X153476190Y-158954819D01*
X153476190Y-158954819D02*
X153476190Y-157954819D01*
X153952381Y-158431009D02*
X154285714Y-158431009D01*
X154428571Y-158954819D02*
X153952381Y-158954819D01*
X153952381Y-158954819D02*
X153952381Y-157954819D01*
X153952381Y-157954819D02*
X154428571Y-157954819D01*
X154761905Y-157954819D02*
X155428571Y-158954819D01*
X155428571Y-157954819D02*
X154761905Y-158954819D01*
X155666667Y-157954819D02*
X156238095Y-157954819D01*
X155952381Y-158954819D02*
X155952381Y-157954819D01*
X132357142Y-136359580D02*
X132309523Y-136407200D01*
X132309523Y-136407200D02*
X132166666Y-136454819D01*
X132166666Y-136454819D02*
X132071428Y-136454819D01*
X132071428Y-136454819D02*
X131928571Y-136407200D01*
X131928571Y-136407200D02*
X131833333Y-136311961D01*
X131833333Y-136311961D02*
X131785714Y-136216723D01*
X131785714Y-136216723D02*
X131738095Y-136026247D01*
X131738095Y-136026247D02*
X131738095Y-135883390D01*
X131738095Y-135883390D02*
X131785714Y-135692914D01*
X131785714Y-135692914D02*
X131833333Y-135597676D01*
X131833333Y-135597676D02*
X131928571Y-135502438D01*
X131928571Y-135502438D02*
X132071428Y-135454819D01*
X132071428Y-135454819D02*
X132166666Y-135454819D01*
X132166666Y-135454819D02*
X132309523Y-135502438D01*
X132309523Y-135502438D02*
X132357142Y-135550057D01*
X133309523Y-136454819D02*
X132738095Y-136454819D01*
X133023809Y-136454819D02*
X133023809Y-135454819D01*
X133023809Y-135454819D02*
X132928571Y-135597676D01*
X132928571Y-135597676D02*
X132833333Y-135692914D01*
X132833333Y-135692914D02*
X132738095Y-135740533D01*
X133928571Y-135454819D02*
X134023809Y-135454819D01*
X134023809Y-135454819D02*
X134119047Y-135502438D01*
X134119047Y-135502438D02*
X134166666Y-135550057D01*
X134166666Y-135550057D02*
X134214285Y-135645295D01*
X134214285Y-135645295D02*
X134261904Y-135835771D01*
X134261904Y-135835771D02*
X134261904Y-136073866D01*
X134261904Y-136073866D02*
X134214285Y-136264342D01*
X134214285Y-136264342D02*
X134166666Y-136359580D01*
X134166666Y-136359580D02*
X134119047Y-136407200D01*
X134119047Y-136407200D02*
X134023809Y-136454819D01*
X134023809Y-136454819D02*
X133928571Y-136454819D01*
X133928571Y-136454819D02*
X133833333Y-136407200D01*
X133833333Y-136407200D02*
X133785714Y-136359580D01*
X133785714Y-136359580D02*
X133738095Y-136264342D01*
X133738095Y-136264342D02*
X133690476Y-136073866D01*
X133690476Y-136073866D02*
X133690476Y-135835771D01*
X133690476Y-135835771D02*
X133738095Y-135645295D01*
X133738095Y-135645295D02*
X133785714Y-135550057D01*
X133785714Y-135550057D02*
X133833333Y-135502438D01*
X133833333Y-135502438D02*
X133928571Y-135454819D01*
X66485202Y-123502950D02*
X66151869Y-123026759D01*
X65913774Y-123502950D02*
X65913774Y-122502950D01*
X65913774Y-122502950D02*
X66294726Y-122502950D01*
X66294726Y-122502950D02*
X66389964Y-122550569D01*
X66389964Y-122550569D02*
X66437583Y-122598188D01*
X66437583Y-122598188D02*
X66485202Y-122693426D01*
X66485202Y-122693426D02*
X66485202Y-122836283D01*
X66485202Y-122836283D02*
X66437583Y-122931521D01*
X66437583Y-122931521D02*
X66389964Y-122979140D01*
X66389964Y-122979140D02*
X66294726Y-123026759D01*
X66294726Y-123026759D02*
X65913774Y-123026759D01*
X67437583Y-123502950D02*
X66866155Y-123502950D01*
X67151869Y-123502950D02*
X67151869Y-122502950D01*
X67151869Y-122502950D02*
X67056631Y-122645807D01*
X67056631Y-122645807D02*
X66961393Y-122741045D01*
X66961393Y-122741045D02*
X66866155Y-122788664D01*
X169818536Y-154880331D02*
X169961393Y-154927950D01*
X169961393Y-154927950D02*
X170199488Y-154927950D01*
X170199488Y-154927950D02*
X170294726Y-154880331D01*
X170294726Y-154880331D02*
X170342345Y-154832711D01*
X170342345Y-154832711D02*
X170389964Y-154737473D01*
X170389964Y-154737473D02*
X170389964Y-154642235D01*
X170389964Y-154642235D02*
X170342345Y-154546997D01*
X170342345Y-154546997D02*
X170294726Y-154499378D01*
X170294726Y-154499378D02*
X170199488Y-154451759D01*
X170199488Y-154451759D02*
X170009012Y-154404140D01*
X170009012Y-154404140D02*
X169913774Y-154356521D01*
X169913774Y-154356521D02*
X169866155Y-154308902D01*
X169866155Y-154308902D02*
X169818536Y-154213664D01*
X169818536Y-154213664D02*
X169818536Y-154118426D01*
X169818536Y-154118426D02*
X169866155Y-154023188D01*
X169866155Y-154023188D02*
X169913774Y-153975569D01*
X169913774Y-153975569D02*
X170009012Y-153927950D01*
X170009012Y-153927950D02*
X170247107Y-153927950D01*
X170247107Y-153927950D02*
X170389964Y-153975569D01*
X170723298Y-153927950D02*
X170961393Y-154927950D01*
X170961393Y-154927950D02*
X171151869Y-154213664D01*
X171151869Y-154213664D02*
X171342345Y-154927950D01*
X171342345Y-154927950D02*
X171580441Y-153927950D01*
X172389964Y-154261283D02*
X172389964Y-154927950D01*
X172151869Y-153880331D02*
X171913774Y-154594616D01*
X171913774Y-154594616D02*
X172532821Y-154594616D01*
X171642857Y-158907200D02*
X171785714Y-158954819D01*
X171785714Y-158954819D02*
X172023809Y-158954819D01*
X172023809Y-158954819D02*
X172119047Y-158907200D01*
X172119047Y-158907200D02*
X172166666Y-158859580D01*
X172166666Y-158859580D02*
X172214285Y-158764342D01*
X172214285Y-158764342D02*
X172214285Y-158669104D01*
X172214285Y-158669104D02*
X172166666Y-158573866D01*
X172166666Y-158573866D02*
X172119047Y-158526247D01*
X172119047Y-158526247D02*
X172023809Y-158478628D01*
X172023809Y-158478628D02*
X171833333Y-158431009D01*
X171833333Y-158431009D02*
X171738095Y-158383390D01*
X171738095Y-158383390D02*
X171690476Y-158335771D01*
X171690476Y-158335771D02*
X171642857Y-158240533D01*
X171642857Y-158240533D02*
X171642857Y-158145295D01*
X171642857Y-158145295D02*
X171690476Y-158050057D01*
X171690476Y-158050057D02*
X171738095Y-158002438D01*
X171738095Y-158002438D02*
X171833333Y-157954819D01*
X171833333Y-157954819D02*
X172071428Y-157954819D01*
X172071428Y-157954819D02*
X172214285Y-158002438D01*
X172642857Y-158954819D02*
X172642857Y-157954819D01*
X173595237Y-158954819D02*
X173119047Y-158954819D01*
X173119047Y-158954819D02*
X173119047Y-157954819D01*
X173928571Y-158431009D02*
X174261904Y-158431009D01*
X174404761Y-158954819D02*
X173928571Y-158954819D01*
X173928571Y-158954819D02*
X173928571Y-157954819D01*
X173928571Y-157954819D02*
X174404761Y-157954819D01*
X174833333Y-158954819D02*
X174833333Y-157954819D01*
X174833333Y-157954819D02*
X175404761Y-158954819D01*
X175404761Y-158954819D02*
X175404761Y-157954819D01*
X176452380Y-158859580D02*
X176404761Y-158907200D01*
X176404761Y-158907200D02*
X176261904Y-158954819D01*
X176261904Y-158954819D02*
X176166666Y-158954819D01*
X176166666Y-158954819D02*
X176023809Y-158907200D01*
X176023809Y-158907200D02*
X175928571Y-158811961D01*
X175928571Y-158811961D02*
X175880952Y-158716723D01*
X175880952Y-158716723D02*
X175833333Y-158526247D01*
X175833333Y-158526247D02*
X175833333Y-158383390D01*
X175833333Y-158383390D02*
X175880952Y-158192914D01*
X175880952Y-158192914D02*
X175928571Y-158097676D01*
X175928571Y-158097676D02*
X176023809Y-158002438D01*
X176023809Y-158002438D02*
X176166666Y-157954819D01*
X176166666Y-157954819D02*
X176261904Y-157954819D01*
X176261904Y-157954819D02*
X176404761Y-158002438D01*
X176404761Y-158002438D02*
X176452380Y-158050057D01*
X176880952Y-158431009D02*
X177214285Y-158431009D01*
X177357142Y-158954819D02*
X176880952Y-158954819D01*
X176880952Y-158954819D02*
X176880952Y-157954819D01*
X176880952Y-157954819D02*
X177357142Y-157954819D01*
X59485202Y-131407711D02*
X59437583Y-131455331D01*
X59437583Y-131455331D02*
X59294726Y-131502950D01*
X59294726Y-131502950D02*
X59199488Y-131502950D01*
X59199488Y-131502950D02*
X59056631Y-131455331D01*
X59056631Y-131455331D02*
X58961393Y-131360092D01*
X58961393Y-131360092D02*
X58913774Y-131264854D01*
X58913774Y-131264854D02*
X58866155Y-131074378D01*
X58866155Y-131074378D02*
X58866155Y-130931521D01*
X58866155Y-130931521D02*
X58913774Y-130741045D01*
X58913774Y-130741045D02*
X58961393Y-130645807D01*
X58961393Y-130645807D02*
X59056631Y-130550569D01*
X59056631Y-130550569D02*
X59199488Y-130502950D01*
X59199488Y-130502950D02*
X59294726Y-130502950D01*
X59294726Y-130502950D02*
X59437583Y-130550569D01*
X59437583Y-130550569D02*
X59485202Y-130598188D01*
X60389964Y-130502950D02*
X59913774Y-130502950D01*
X59913774Y-130502950D02*
X59866155Y-130979140D01*
X59866155Y-130979140D02*
X59913774Y-130931521D01*
X59913774Y-130931521D02*
X60009012Y-130883902D01*
X60009012Y-130883902D02*
X60247107Y-130883902D01*
X60247107Y-130883902D02*
X60342345Y-130931521D01*
X60342345Y-130931521D02*
X60389964Y-130979140D01*
X60389964Y-130979140D02*
X60437583Y-131074378D01*
X60437583Y-131074378D02*
X60437583Y-131312473D01*
X60437583Y-131312473D02*
X60389964Y-131407711D01*
X60389964Y-131407711D02*
X60342345Y-131455331D01*
X60342345Y-131455331D02*
X60247107Y-131502950D01*
X60247107Y-131502950D02*
X60009012Y-131502950D01*
X60009012Y-131502950D02*
X59913774Y-131455331D01*
X59913774Y-131455331D02*
X59866155Y-131407711D01*
X62833333Y-131359580D02*
X62785714Y-131407200D01*
X62785714Y-131407200D02*
X62642857Y-131454819D01*
X62642857Y-131454819D02*
X62547619Y-131454819D01*
X62547619Y-131454819D02*
X62404762Y-131407200D01*
X62404762Y-131407200D02*
X62309524Y-131311961D01*
X62309524Y-131311961D02*
X62261905Y-131216723D01*
X62261905Y-131216723D02*
X62214286Y-131026247D01*
X62214286Y-131026247D02*
X62214286Y-130883390D01*
X62214286Y-130883390D02*
X62261905Y-130692914D01*
X62261905Y-130692914D02*
X62309524Y-130597676D01*
X62309524Y-130597676D02*
X62404762Y-130502438D01*
X62404762Y-130502438D02*
X62547619Y-130454819D01*
X62547619Y-130454819D02*
X62642857Y-130454819D01*
X62642857Y-130454819D02*
X62785714Y-130502438D01*
X62785714Y-130502438D02*
X62833333Y-130550057D01*
X63690476Y-130454819D02*
X63500000Y-130454819D01*
X63500000Y-130454819D02*
X63404762Y-130502438D01*
X63404762Y-130502438D02*
X63357143Y-130550057D01*
X63357143Y-130550057D02*
X63261905Y-130692914D01*
X63261905Y-130692914D02*
X63214286Y-130883390D01*
X63214286Y-130883390D02*
X63214286Y-131264342D01*
X63214286Y-131264342D02*
X63261905Y-131359580D01*
X63261905Y-131359580D02*
X63309524Y-131407200D01*
X63309524Y-131407200D02*
X63404762Y-131454819D01*
X63404762Y-131454819D02*
X63595238Y-131454819D01*
X63595238Y-131454819D02*
X63690476Y-131407200D01*
X63690476Y-131407200D02*
X63738095Y-131359580D01*
X63738095Y-131359580D02*
X63785714Y-131264342D01*
X63785714Y-131264342D02*
X63785714Y-131026247D01*
X63785714Y-131026247D02*
X63738095Y-130931009D01*
X63738095Y-130931009D02*
X63690476Y-130883390D01*
X63690476Y-130883390D02*
X63595238Y-130835771D01*
X63595238Y-130835771D02*
X63404762Y-130835771D01*
X63404762Y-130835771D02*
X63309524Y-130883390D01*
X63309524Y-130883390D02*
X63261905Y-130931009D01*
X63261905Y-130931009D02*
X63214286Y-131026247D01*
X88833333Y-136859580D02*
X88785714Y-136907200D01*
X88785714Y-136907200D02*
X88642857Y-136954819D01*
X88642857Y-136954819D02*
X88547619Y-136954819D01*
X88547619Y-136954819D02*
X88404762Y-136907200D01*
X88404762Y-136907200D02*
X88309524Y-136811961D01*
X88309524Y-136811961D02*
X88261905Y-136716723D01*
X88261905Y-136716723D02*
X88214286Y-136526247D01*
X88214286Y-136526247D02*
X88214286Y-136383390D01*
X88214286Y-136383390D02*
X88261905Y-136192914D01*
X88261905Y-136192914D02*
X88309524Y-136097676D01*
X88309524Y-136097676D02*
X88404762Y-136002438D01*
X88404762Y-136002438D02*
X88547619Y-135954819D01*
X88547619Y-135954819D02*
X88642857Y-135954819D01*
X88642857Y-135954819D02*
X88785714Y-136002438D01*
X88785714Y-136002438D02*
X88833333Y-136050057D01*
X89309524Y-136954819D02*
X89500000Y-136954819D01*
X89500000Y-136954819D02*
X89595238Y-136907200D01*
X89595238Y-136907200D02*
X89642857Y-136859580D01*
X89642857Y-136859580D02*
X89738095Y-136716723D01*
X89738095Y-136716723D02*
X89785714Y-136526247D01*
X89785714Y-136526247D02*
X89785714Y-136145295D01*
X89785714Y-136145295D02*
X89738095Y-136050057D01*
X89738095Y-136050057D02*
X89690476Y-136002438D01*
X89690476Y-136002438D02*
X89595238Y-135954819D01*
X89595238Y-135954819D02*
X89404762Y-135954819D01*
X89404762Y-135954819D02*
X89309524Y-136002438D01*
X89309524Y-136002438D02*
X89261905Y-136050057D01*
X89261905Y-136050057D02*
X89214286Y-136145295D01*
X89214286Y-136145295D02*
X89214286Y-136383390D01*
X89214286Y-136383390D02*
X89261905Y-136478628D01*
X89261905Y-136478628D02*
X89309524Y-136526247D01*
X89309524Y-136526247D02*
X89404762Y-136573866D01*
X89404762Y-136573866D02*
X89595238Y-136573866D01*
X89595238Y-136573866D02*
X89690476Y-136526247D01*
X89690476Y-136526247D02*
X89738095Y-136478628D01*
X89738095Y-136478628D02*
X89785714Y-136383390D01*
X65357142Y-136859580D02*
X65309523Y-136907200D01*
X65309523Y-136907200D02*
X65166666Y-136954819D01*
X65166666Y-136954819D02*
X65071428Y-136954819D01*
X65071428Y-136954819D02*
X64928571Y-136907200D01*
X64928571Y-136907200D02*
X64833333Y-136811961D01*
X64833333Y-136811961D02*
X64785714Y-136716723D01*
X64785714Y-136716723D02*
X64738095Y-136526247D01*
X64738095Y-136526247D02*
X64738095Y-136383390D01*
X64738095Y-136383390D02*
X64785714Y-136192914D01*
X64785714Y-136192914D02*
X64833333Y-136097676D01*
X64833333Y-136097676D02*
X64928571Y-136002438D01*
X64928571Y-136002438D02*
X65071428Y-135954819D01*
X65071428Y-135954819D02*
X65166666Y-135954819D01*
X65166666Y-135954819D02*
X65309523Y-136002438D01*
X65309523Y-136002438D02*
X65357142Y-136050057D01*
X66309523Y-136954819D02*
X65738095Y-136954819D01*
X66023809Y-136954819D02*
X66023809Y-135954819D01*
X66023809Y-135954819D02*
X65928571Y-136097676D01*
X65928571Y-136097676D02*
X65833333Y-136192914D01*
X65833333Y-136192914D02*
X65738095Y-136240533D01*
X67166666Y-136288152D02*
X67166666Y-136954819D01*
X66928571Y-135907200D02*
X66690476Y-136621485D01*
X66690476Y-136621485D02*
X67309523Y-136621485D01*
X56261905Y-122954819D02*
X56261905Y-121954819D01*
X56261905Y-121954819D02*
X56500000Y-121954819D01*
X56500000Y-121954819D02*
X56642857Y-122002438D01*
X56642857Y-122002438D02*
X56738095Y-122097676D01*
X56738095Y-122097676D02*
X56785714Y-122192914D01*
X56785714Y-122192914D02*
X56833333Y-122383390D01*
X56833333Y-122383390D02*
X56833333Y-122526247D01*
X56833333Y-122526247D02*
X56785714Y-122716723D01*
X56785714Y-122716723D02*
X56738095Y-122811961D01*
X56738095Y-122811961D02*
X56642857Y-122907200D01*
X56642857Y-122907200D02*
X56500000Y-122954819D01*
X56500000Y-122954819D02*
X56261905Y-122954819D01*
X57785714Y-122954819D02*
X57214286Y-122954819D01*
X57500000Y-122954819D02*
X57500000Y-121954819D01*
X57500000Y-121954819D02*
X57404762Y-122097676D01*
X57404762Y-122097676D02*
X57309524Y-122192914D01*
X57309524Y-122192914D02*
X57214286Y-122240533D01*
X69333333Y-119859580D02*
X69285714Y-119907200D01*
X69285714Y-119907200D02*
X69142857Y-119954819D01*
X69142857Y-119954819D02*
X69047619Y-119954819D01*
X69047619Y-119954819D02*
X68904762Y-119907200D01*
X68904762Y-119907200D02*
X68809524Y-119811961D01*
X68809524Y-119811961D02*
X68761905Y-119716723D01*
X68761905Y-119716723D02*
X68714286Y-119526247D01*
X68714286Y-119526247D02*
X68714286Y-119383390D01*
X68714286Y-119383390D02*
X68761905Y-119192914D01*
X68761905Y-119192914D02*
X68809524Y-119097676D01*
X68809524Y-119097676D02*
X68904762Y-119002438D01*
X68904762Y-119002438D02*
X69047619Y-118954819D01*
X69047619Y-118954819D02*
X69142857Y-118954819D01*
X69142857Y-118954819D02*
X69285714Y-119002438D01*
X69285714Y-119002438D02*
X69333333Y-119050057D01*
X69714286Y-119050057D02*
X69761905Y-119002438D01*
X69761905Y-119002438D02*
X69857143Y-118954819D01*
X69857143Y-118954819D02*
X70095238Y-118954819D01*
X70095238Y-118954819D02*
X70190476Y-119002438D01*
X70190476Y-119002438D02*
X70238095Y-119050057D01*
X70238095Y-119050057D02*
X70285714Y-119145295D01*
X70285714Y-119145295D02*
X70285714Y-119240533D01*
X70285714Y-119240533D02*
X70238095Y-119383390D01*
X70238095Y-119383390D02*
X69666667Y-119954819D01*
X69666667Y-119954819D02*
X70285714Y-119954819D01*
X62858333Y-121304474D02*
X62817857Y-121344951D01*
X62817857Y-121344951D02*
X62696428Y-121385427D01*
X62696428Y-121385427D02*
X62615476Y-121385427D01*
X62615476Y-121385427D02*
X62494047Y-121344951D01*
X62494047Y-121344951D02*
X62413095Y-121263998D01*
X62413095Y-121263998D02*
X62372618Y-121183046D01*
X62372618Y-121183046D02*
X62332142Y-121021141D01*
X62332142Y-121021141D02*
X62332142Y-120899712D01*
X62332142Y-120899712D02*
X62372618Y-120737808D01*
X62372618Y-120737808D02*
X62413095Y-120656855D01*
X62413095Y-120656855D02*
X62494047Y-120575903D01*
X62494047Y-120575903D02*
X62615476Y-120535427D01*
X62615476Y-120535427D02*
X62696428Y-120535427D01*
X62696428Y-120535427D02*
X62817857Y-120575903D01*
X62817857Y-120575903D02*
X62858333Y-120616379D01*
X63141666Y-120535427D02*
X63667857Y-120535427D01*
X63667857Y-120535427D02*
X63384523Y-120859236D01*
X63384523Y-120859236D02*
X63505952Y-120859236D01*
X63505952Y-120859236D02*
X63586904Y-120899712D01*
X63586904Y-120899712D02*
X63627380Y-120940189D01*
X63627380Y-120940189D02*
X63667857Y-121021141D01*
X63667857Y-121021141D02*
X63667857Y-121223522D01*
X63667857Y-121223522D02*
X63627380Y-121304474D01*
X63627380Y-121304474D02*
X63586904Y-121344951D01*
X63586904Y-121344951D02*
X63505952Y-121385427D01*
X63505952Y-121385427D02*
X63263095Y-121385427D01*
X63263095Y-121385427D02*
X63182142Y-121344951D01*
X63182142Y-121344951D02*
X63141666Y-121304474D01*
X49818536Y-120455331D02*
X49961393Y-120502950D01*
X49961393Y-120502950D02*
X50199488Y-120502950D01*
X50199488Y-120502950D02*
X50294726Y-120455331D01*
X50294726Y-120455331D02*
X50342345Y-120407711D01*
X50342345Y-120407711D02*
X50389964Y-120312473D01*
X50389964Y-120312473D02*
X50389964Y-120217235D01*
X50389964Y-120217235D02*
X50342345Y-120121997D01*
X50342345Y-120121997D02*
X50294726Y-120074378D01*
X50294726Y-120074378D02*
X50199488Y-120026759D01*
X50199488Y-120026759D02*
X50009012Y-119979140D01*
X50009012Y-119979140D02*
X49913774Y-119931521D01*
X49913774Y-119931521D02*
X49866155Y-119883902D01*
X49866155Y-119883902D02*
X49818536Y-119788664D01*
X49818536Y-119788664D02*
X49818536Y-119693426D01*
X49818536Y-119693426D02*
X49866155Y-119598188D01*
X49866155Y-119598188D02*
X49913774Y-119550569D01*
X49913774Y-119550569D02*
X50009012Y-119502950D01*
X50009012Y-119502950D02*
X50247107Y-119502950D01*
X50247107Y-119502950D02*
X50389964Y-119550569D01*
X50723298Y-119502950D02*
X50961393Y-120502950D01*
X50961393Y-120502950D02*
X51151869Y-119788664D01*
X51151869Y-119788664D02*
X51342345Y-120502950D01*
X51342345Y-120502950D02*
X51580441Y-119502950D01*
X52485202Y-120502950D02*
X51913774Y-120502950D01*
X52199488Y-120502950D02*
X52199488Y-119502950D01*
X52199488Y-119502950D02*
X52104250Y-119645807D01*
X52104250Y-119645807D02*
X52009012Y-119741045D01*
X52009012Y-119741045D02*
X51913774Y-119788664D01*
X71985202Y-119407711D02*
X71937583Y-119455331D01*
X71937583Y-119455331D02*
X71794726Y-119502950D01*
X71794726Y-119502950D02*
X71699488Y-119502950D01*
X71699488Y-119502950D02*
X71556631Y-119455331D01*
X71556631Y-119455331D02*
X71461393Y-119360092D01*
X71461393Y-119360092D02*
X71413774Y-119264854D01*
X71413774Y-119264854D02*
X71366155Y-119074378D01*
X71366155Y-119074378D02*
X71366155Y-118931521D01*
X71366155Y-118931521D02*
X71413774Y-118741045D01*
X71413774Y-118741045D02*
X71461393Y-118645807D01*
X71461393Y-118645807D02*
X71556631Y-118550569D01*
X71556631Y-118550569D02*
X71699488Y-118502950D01*
X71699488Y-118502950D02*
X71794726Y-118502950D01*
X71794726Y-118502950D02*
X71937583Y-118550569D01*
X71937583Y-118550569D02*
X71985202Y-118598188D01*
X72937583Y-119502950D02*
X72366155Y-119502950D01*
X72651869Y-119502950D02*
X72651869Y-118502950D01*
X72651869Y-118502950D02*
X72556631Y-118645807D01*
X72556631Y-118645807D02*
X72461393Y-118741045D01*
X72461393Y-118741045D02*
X72366155Y-118788664D01*
D13*
%TO.C,J5*%
X91922130Y-77836870D02*
X91922130Y-85516870D01*
X89262130Y-85516870D02*
X91922130Y-85516870D01*
X89262130Y-77836870D02*
X91922130Y-77836870D01*
X89262130Y-77836870D02*
X89262130Y-85516870D01*
X89262130Y-76566870D02*
X89262130Y-75236870D01*
X89262130Y-75236870D02*
X90592130Y-75236870D01*
%TO.C,C4*%
X50641869Y-117056898D02*
X50641869Y-116764364D01*
X51661869Y-117056898D02*
X51661869Y-116764364D01*
%TO.C,SW6*%
X101991869Y-139663131D02*
X104501869Y-139663131D01*
X101991869Y-151883131D02*
X101991869Y-139663131D01*
X101991869Y-151883131D02*
X104501869Y-151883131D01*
X106801869Y-139663131D02*
X109401869Y-139663131D01*
X106801869Y-151883131D02*
X109401869Y-151883131D01*
X111701869Y-139663131D02*
X114211869Y-139663131D01*
X111701869Y-151883131D02*
X114211869Y-151883131D01*
X114211869Y-139663131D02*
X114211869Y-151883131D01*
X111651869Y-145773131D02*
G75*
G02*
X104551869Y-145773131I-3550000J0D01*
G01*
X104551869Y-145773131D02*
G75*
G02*
X111651869Y-145773131I3550000J0D01*
G01*
%TO.C,C8*%
X73641869Y-121901864D02*
X73641869Y-122194398D01*
X74661869Y-121901864D02*
X74661869Y-122194398D01*
%TO.C,C11*%
X175646267Y-135490000D02*
X175353733Y-135490000D01*
X175646267Y-136510000D02*
X175353733Y-136510000D01*
%TO.C,SW7*%
X55541869Y-151983131D02*
X55541869Y-139763131D01*
X58051869Y-139763131D02*
X55541869Y-139763131D01*
X58051869Y-151983131D02*
X55541869Y-151983131D01*
X62951869Y-139763131D02*
X60351869Y-139763131D01*
X62951869Y-151983131D02*
X60351869Y-151983131D01*
X67761869Y-139763131D02*
X65251869Y-139763131D01*
X67761869Y-139763131D02*
X67761869Y-151983131D01*
X67761869Y-151983131D02*
X65251869Y-151983131D01*
X65201869Y-145873131D02*
G75*
G02*
X58101869Y-145873131I-3550000J0D01*
G01*
X58101869Y-145873131D02*
G75*
G02*
X65201869Y-145873131I3550000J0D01*
G01*
%TO.C,SW2*%
X78866869Y-151958131D02*
X78866869Y-139738131D01*
X81376869Y-139738131D02*
X78866869Y-139738131D01*
X81376869Y-151958131D02*
X78866869Y-151958131D01*
X86276869Y-139738131D02*
X83676869Y-139738131D01*
X86276869Y-151958131D02*
X83676869Y-151958131D01*
X91086869Y-139738131D02*
X88576869Y-139738131D01*
X91086869Y-139738131D02*
X91086869Y-151958131D01*
X91086869Y-151958131D02*
X88576869Y-151958131D01*
X88526869Y-145848131D02*
G75*
G02*
X81426869Y-145848131I-3550000J0D01*
G01*
X81426869Y-145848131D02*
G75*
G02*
X88526869Y-145848131I3550000J0D01*
G01*
%TO.C,R2*%
X62916869Y-116362695D02*
X62916869Y-115908567D01*
X64386869Y-116362695D02*
X64386869Y-115908567D01*
%TO.C,U2*%
X74372130Y-70486870D02*
X73872130Y-70486870D01*
X73872130Y-69986870D01*
X74372130Y-70486870D01*
G36*
X74372130Y-70486870D02*
G01*
X73872130Y-70486870D01*
X73872130Y-69986870D01*
X74372130Y-70486870D01*
G37*
D12*
X74622130Y-87286870D02*
X73872130Y-87286870D01*
X74622130Y-70786870D02*
X74622130Y-87286870D01*
X73872130Y-70786870D02*
X74622130Y-70786870D01*
X57872130Y-70786870D02*
X57122130Y-70786870D01*
X57122130Y-87286870D02*
X57872130Y-87286870D01*
X57122130Y-70786870D02*
X57122130Y-87286870D01*
D13*
%TO.C,C13*%
X109868102Y-135538131D02*
X110160636Y-135538131D01*
X109868102Y-136558131D02*
X110160636Y-136558131D01*
%TO.C,SW3*%
X124991869Y-151883131D02*
X124991869Y-139663131D01*
X127501869Y-139663131D02*
X124991869Y-139663131D01*
X127501869Y-151883131D02*
X124991869Y-151883131D01*
X132401869Y-139663131D02*
X129801869Y-139663131D01*
X132401869Y-151883131D02*
X129801869Y-151883131D01*
X137211869Y-139663131D02*
X134701869Y-139663131D01*
X137211869Y-139663131D02*
X137211869Y-151883131D01*
X137211869Y-151883131D02*
X134701869Y-151883131D01*
X134651869Y-145773131D02*
G75*
G02*
X127551869Y-145773131I-3550000J0D01*
G01*
X127551869Y-145773131D02*
G75*
G02*
X134651869Y-145773131I3550000J0D01*
G01*
%TO.C,U3*%
X68381869Y-124598131D02*
X68381869Y-124868131D01*
X68381869Y-131498131D02*
X68381869Y-131228131D01*
X74801869Y-124598131D02*
X68381869Y-124598131D01*
X74801869Y-131498131D02*
X68381869Y-131498131D01*
X66966869Y-124888131D02*
X66726869Y-124558131D01*
X67206869Y-124558131D01*
X66966869Y-124888131D01*
G36*
X66966869Y-124888131D02*
G01*
X66726869Y-124558131D01*
X67206869Y-124558131D01*
X66966869Y-124888131D01*
G37*
%TO.C,R3*%
X60765000Y-124227064D02*
X60765000Y-123772936D01*
X62235000Y-124227064D02*
X62235000Y-123772936D01*
%TO.C,C12*%
X154505602Y-135538131D02*
X154798136Y-135538131D01*
X154505602Y-136558131D02*
X154798136Y-136558131D01*
%TO.C,C7*%
X75916869Y-121786879D02*
X75916869Y-122309383D01*
X77386869Y-121786879D02*
X77386869Y-122309383D01*
D14*
%TO.C,U1*%
X51622200Y-92868700D02*
X51622200Y-111131300D01*
X51622200Y-111131300D02*
X58500860Y-111131300D01*
X58500860Y-92868700D02*
X51622200Y-92868700D01*
X76489140Y-111131300D02*
X77377800Y-111131300D01*
X77377800Y-92868700D02*
X76489140Y-92868700D01*
X77377800Y-94275860D02*
X77377800Y-92868700D01*
X77377800Y-111131300D02*
X77377800Y-109724140D01*
D15*
%TO.C,J2*%
X50551869Y-72598131D02*
X50551869Y-75198131D01*
D13*
%TO.C,SW5*%
X147891869Y-139638131D02*
X150401869Y-139638131D01*
X147891869Y-151858131D02*
X147891869Y-139638131D01*
X147891869Y-151858131D02*
X150401869Y-151858131D01*
X152701869Y-139638131D02*
X155301869Y-139638131D01*
X152701869Y-151858131D02*
X155301869Y-151858131D01*
X157601869Y-139638131D02*
X160111869Y-139638131D01*
X157601869Y-151858131D02*
X160111869Y-151858131D01*
X160111869Y-139638131D02*
X160111869Y-151858131D01*
X157551869Y-145748131D02*
G75*
G02*
X150451869Y-145748131I-3550000J0D01*
G01*
X150451869Y-145748131D02*
G75*
G02*
X157551869Y-145748131I3550000J0D01*
G01*
%TO.C,C10*%
X129783767Y-136433131D02*
X129491233Y-136433131D01*
X129783767Y-135413131D02*
X129491233Y-135413131D01*
%TO.C,R1*%
X65916869Y-119821067D02*
X65916869Y-120275195D01*
X67386869Y-119821067D02*
X67386869Y-120275195D01*
%TO.C,SW4*%
X180426869Y-145748131D02*
G75*
G02*
X173326869Y-145748131I-3550000J0D01*
G01*
X173326869Y-145748131D02*
G75*
G02*
X180426869Y-145748131I3550000J0D01*
G01*
X182986869Y-151858131D02*
X180476869Y-151858131D01*
X182986869Y-139638131D02*
X182986869Y-151858131D01*
X182986869Y-139638131D02*
X180476869Y-139638131D01*
X178176869Y-151858131D02*
X175576869Y-151858131D01*
X178176869Y-139638131D02*
X175576869Y-139638131D01*
X173276869Y-151858131D02*
X170766869Y-151858131D01*
X173276869Y-139638131D02*
X170766869Y-139638131D01*
X170766869Y-151858131D02*
X170766869Y-139638131D01*
%TO.C,C5*%
X59266869Y-128534383D02*
X59266869Y-128011879D01*
X60736869Y-128534383D02*
X60736869Y-128011879D01*
%TO.C,C6*%
X62872130Y-128423137D02*
X62872130Y-128130603D01*
X63892130Y-128423137D02*
X63892130Y-128130603D01*
%TO.C,C9*%
X86260636Y-136038131D02*
X85968102Y-136038131D01*
X86260636Y-137058131D02*
X85968102Y-137058131D01*
%TO.C,C14*%
X62798136Y-135538131D02*
X62505602Y-135538131D01*
X62798136Y-136558131D02*
X62505602Y-136558131D01*
%TO.C,D1*%
X58191869Y-123048131D02*
X58191869Y-125908131D01*
X58191869Y-125908131D02*
X60111869Y-125908131D01*
X60111869Y-125908131D02*
X60111869Y-123048131D01*
%TO.C,C2*%
X68641869Y-121901864D02*
X68641869Y-122194398D01*
X69661869Y-121901864D02*
X69661869Y-122194398D01*
%TO.C,C3*%
X63990000Y-121646267D02*
X63990000Y-121353733D01*
X65010000Y-121646267D02*
X65010000Y-121353733D01*
%TO.C,SW1*%
X53842130Y-116726870D02*
X53842130Y-118226870D01*
X55092130Y-120726870D02*
X59592130Y-120726870D01*
X59592130Y-114226870D02*
X55092130Y-114226870D01*
X60842130Y-118226870D02*
X60842130Y-116726870D01*
%TO.C,C1*%
X70916869Y-121786879D02*
X70916869Y-122309383D01*
X72386869Y-121786879D02*
X72386869Y-122309383D01*
%TD*%
M02*
